G04 #@! TF.GenerationSoftware,KiCad,Pcbnew,(6.0.11)*
G04 #@! TF.CreationDate,2023-04-24T14:11:09-03:00*
G04 #@! TF.ProjectId,HappyFeet,48617070-7946-4656-9574-2e6b69636164,V0.7*
G04 #@! TF.SameCoordinates,Original*
G04 #@! TF.FileFunction,Copper,L2,Bot*
G04 #@! TF.FilePolarity,Positive*
%FSLAX46Y46*%
G04 Gerber Fmt 4.6, Leading zero omitted, Abs format (unit mm)*
G04 Created by KiCad (PCBNEW (6.0.11)) date 2023-04-24 14:11:09*
%MOMM*%
%LPD*%
G01*
G04 APERTURE LIST*
G04 #@! TA.AperFunction,ComponentPad*
%ADD10O,2.108200X1.397000*%
G04 #@! TD*
G04 #@! TA.AperFunction,SMDPad,CuDef*
%ADD11C,2.000000*%
G04 #@! TD*
G04 #@! TA.AperFunction,SMDPad,CuDef*
%ADD12C,1.500000*%
G04 #@! TD*
G04 #@! TA.AperFunction,ViaPad*
%ADD13C,0.762000*%
G04 #@! TD*
G04 #@! TA.AperFunction,Conductor*
%ADD14C,0.500000*%
G04 #@! TD*
G04 #@! TA.AperFunction,Conductor*
%ADD15C,0.250000*%
G04 #@! TD*
G04 #@! TA.AperFunction,Conductor*
%ADD16C,0.154000*%
G04 #@! TD*
G04 APERTURE END LIST*
D10*
G04 #@! TO.P,J1,10*
G04 #@! TO.N,N/C*
X102468200Y-85720300D03*
G04 #@! TO.P,J1,11*
X102468200Y-93619700D03*
G04 #@! TD*
D11*
G04 #@! TO.P,TP7,1,1*
G04 #@! TO.N,JTAG_TCK*
X103970000Y-71331500D03*
G04 #@! TD*
G04 #@! TO.P,TP10,1,1*
G04 #@! TO.N,GND*
X115270000Y-72951500D03*
G04 #@! TD*
G04 #@! TO.P,TP9,1,1*
G04 #@! TO.N,JTAG_TMS*
X106612500Y-71209000D03*
G04 #@! TD*
G04 #@! TO.P,TP6,1,1*
G04 #@! TO.N,+3V3*
X121317500Y-88879000D03*
G04 #@! TD*
D12*
G04 #@! TO.P,TP8,1,1*
G04 #@! TO.N,NRST*
X104105000Y-84831500D03*
G04 #@! TD*
D13*
G04 #@! TO.N,GND*
X110230000Y-80000000D03*
X113910000Y-75930000D03*
X105850000Y-77820000D03*
X117680000Y-73400000D03*
X116660000Y-80400000D03*
X117650000Y-92100000D03*
X118410000Y-94030000D03*
X116660000Y-78180000D03*
X118720000Y-89340000D03*
X113910111Y-78029900D03*
X116090000Y-71150000D03*
X117890000Y-85550000D03*
X122690000Y-87000000D03*
X112210000Y-79630000D03*
X118920000Y-82630000D03*
X111222500Y-91542500D03*
X111970000Y-71070000D03*
X102892500Y-81337500D03*
X101400000Y-78100000D03*
X110210000Y-76130000D03*
X121610000Y-91630000D03*
X106900000Y-88870000D03*
X119080000Y-77290000D03*
X110230000Y-82600000D03*
X113910022Y-79730000D03*
X123810000Y-91930000D03*
X114650000Y-82630000D03*
X117900000Y-87330000D03*
X118790000Y-72480000D03*
X112440000Y-82630000D03*
X110200000Y-77800000D03*
X124060000Y-88360000D03*
X116740000Y-82630000D03*
X119020000Y-78910000D03*
X105000000Y-94070000D03*
X109000000Y-92570000D03*
X114390000Y-88350000D03*
X112210000Y-78030000D03*
X113560000Y-87010000D03*
X121010000Y-93930000D03*
X118790000Y-73520000D03*
X119020000Y-80550000D03*
X108837500Y-73214000D03*
G04 #@! TO.N,+3V3*
X119977500Y-88634000D03*
G04 #@! TO.N,NRST*
X105400000Y-84800000D03*
X107200000Y-77760000D03*
G04 #@! TO.N,JTAG_TMS*
X108017500Y-71186500D03*
G04 #@! TO.N,JTAG_TCK*
X108015000Y-73816500D03*
G04 #@! TO.N,ACCINT*
X107660000Y-80550000D03*
X105800000Y-79520000D03*
G04 #@! TO.N,ACCCS*
X106682393Y-81327607D03*
X111900000Y-73100000D03*
G04 #@! TD*
D14*
G04 #@! TO.N,GND*
X112210000Y-79630000D02*
X113810022Y-79630000D01*
X113910011Y-78030000D02*
X113910111Y-78029900D01*
X113810022Y-79630000D02*
X113910022Y-79730000D01*
X112210000Y-78030000D02*
X113910011Y-78030000D01*
D15*
G04 #@! TO.N,+3V3*
X121317500Y-88879000D02*
X120222500Y-88879000D01*
X120222500Y-88879000D02*
X119977500Y-88634000D01*
G04 #@! TO.N,NRST*
X105400000Y-84800000D02*
X108492802Y-81707198D01*
X108492802Y-81707198D02*
X108492802Y-79052802D01*
X105400000Y-84800000D02*
X104136500Y-84800000D01*
X108492802Y-79052802D02*
X107200000Y-77760000D01*
X104136500Y-84800000D02*
X104105000Y-84831500D01*
G04 #@! TO.N,JTAG_TMS*
X108017500Y-71186500D02*
X106635000Y-71186500D01*
X106635000Y-71186500D02*
X106612500Y-71209000D01*
D16*
G04 #@! TO.N,JTAG_TCK*
X108015000Y-73816500D02*
X106455000Y-73816500D01*
X106455000Y-73816500D02*
X103970000Y-71331500D01*
D15*
G04 #@! TO.N,ACCINT*
X107510000Y-79520000D02*
X107630000Y-79640000D01*
X107630000Y-79640000D02*
X107630000Y-80520000D01*
X105800000Y-79520000D02*
X107510000Y-79520000D01*
X107630000Y-80520000D02*
X107660000Y-80550000D01*
D16*
G04 #@! TO.N,ACCCS*
X105241999Y-77549501D02*
X105291131Y-77549501D01*
X105291131Y-77549501D02*
X106191632Y-76649000D01*
X108351000Y-76649000D02*
X111900000Y-73100000D01*
X106191632Y-76649000D02*
X108351000Y-76649000D01*
X105241999Y-79887213D02*
X105241999Y-77549501D01*
X106682393Y-81327607D02*
X105241999Y-79887213D01*
G04 #@! TD*
G04 #@! TA.AperFunction,Conductor*
G04 #@! TO.N,GND*
G36*
X103233939Y-70219407D02*
G01*
X103269903Y-70268907D01*
X103269903Y-70330093D01*
X103241023Y-70373932D01*
X103208713Y-70402267D01*
X103095457Y-70501590D01*
X103092649Y-70505152D01*
X103000179Y-70622451D01*
X102958863Y-70674860D01*
X102856131Y-70870120D01*
X102790703Y-71080833D01*
X102790169Y-71085343D01*
X102790169Y-71085344D01*
X102787039Y-71111789D01*
X102764770Y-71299940D01*
X102767284Y-71338302D01*
X102776556Y-71479759D01*
X102779200Y-71520104D01*
X102780316Y-71524497D01*
X102780316Y-71524499D01*
X102803445Y-71615569D01*
X102833511Y-71733952D01*
X102925883Y-71934321D01*
X103053222Y-72114502D01*
X103211264Y-72268461D01*
X103394717Y-72391040D01*
X103597436Y-72478135D01*
X103675165Y-72495723D01*
X103808206Y-72525828D01*
X103808211Y-72525829D01*
X103812632Y-72526829D01*
X103922865Y-72531160D01*
X104028565Y-72535313D01*
X104028566Y-72535313D01*
X104033098Y-72535491D01*
X104251452Y-72503831D01*
X104255751Y-72502372D01*
X104255754Y-72502371D01*
X104456078Y-72434370D01*
X104460379Y-72432910D01*
X104535109Y-72391059D01*
X104595120Y-72379122D01*
X104653487Y-72407432D01*
X106224063Y-73978007D01*
X106226292Y-73980590D01*
X106228359Y-73984818D01*
X106235060Y-73991034D01*
X106261742Y-74015785D01*
X106264418Y-74018362D01*
X106277029Y-74030973D01*
X106280530Y-74033375D01*
X106283787Y-74036234D01*
X106304149Y-74055123D01*
X106312942Y-74058631D01*
X106313232Y-74058747D01*
X106332557Y-74069066D01*
X106333088Y-74069430D01*
X106340626Y-74074601D01*
X106361725Y-74079608D01*
X106364017Y-74080152D01*
X106377843Y-74084525D01*
X106400166Y-74093431D01*
X106405970Y-74094000D01*
X106410788Y-74094000D01*
X106429970Y-74096245D01*
X106432317Y-74096360D01*
X106441210Y-74098470D01*
X106467414Y-74094904D01*
X106480763Y-74094000D01*
X107446147Y-74094000D01*
X107504338Y-74112907D01*
X107524689Y-74132733D01*
X107600269Y-74231231D01*
X107721741Y-74324439D01*
X107863198Y-74383033D01*
X108015000Y-74403018D01*
X108166802Y-74383033D01*
X108308259Y-74324439D01*
X108429731Y-74231231D01*
X108522939Y-74109759D01*
X108581533Y-73968302D01*
X108601518Y-73816500D01*
X108581533Y-73664698D01*
X108522939Y-73523241D01*
X108429731Y-73401769D01*
X108308259Y-73308561D01*
X108166802Y-73249967D01*
X108015000Y-73229982D01*
X107863198Y-73249967D01*
X107721741Y-73308561D01*
X107600269Y-73401769D01*
X107596315Y-73406922D01*
X107524689Y-73500267D01*
X107474265Y-73534923D01*
X107446147Y-73539000D01*
X106610952Y-73539000D01*
X106552761Y-73520093D01*
X106540948Y-73510004D01*
X105045932Y-72014987D01*
X105018155Y-71960470D01*
X105029559Y-71896610D01*
X105045965Y-71867315D01*
X105071410Y-71821879D01*
X105089478Y-71768653D01*
X105140871Y-71617254D01*
X105140872Y-71617251D01*
X105142331Y-71612952D01*
X105155156Y-71524499D01*
X105173571Y-71397497D01*
X105173571Y-71397491D01*
X105173991Y-71394598D01*
X105175643Y-71331500D01*
X105155454Y-71111789D01*
X105145500Y-71076494D01*
X105096799Y-70903811D01*
X105096798Y-70903810D01*
X105095565Y-70899436D01*
X105093557Y-70895364D01*
X105093555Y-70895359D01*
X104999988Y-70705625D01*
X104997980Y-70701553D01*
X104865967Y-70524767D01*
X104703949Y-70374999D01*
X104704632Y-70374260D01*
X104672576Y-70327613D01*
X104674180Y-70266449D01*
X104711429Y-70217909D01*
X104767500Y-70200500D01*
X105678564Y-70200500D01*
X105736755Y-70219407D01*
X105772719Y-70268907D01*
X105772719Y-70330093D01*
X105743838Y-70373933D01*
X105737957Y-70379090D01*
X105735149Y-70382652D01*
X105641387Y-70501590D01*
X105601363Y-70552360D01*
X105599249Y-70556378D01*
X105564486Y-70622452D01*
X105498631Y-70747620D01*
X105497287Y-70751949D01*
X105453415Y-70893241D01*
X105433203Y-70958333D01*
X105407270Y-71177440D01*
X105421700Y-71397604D01*
X105422816Y-71401997D01*
X105422816Y-71401999D01*
X105472106Y-71596078D01*
X105476011Y-71611452D01*
X105568383Y-71811821D01*
X105695722Y-71992002D01*
X105698968Y-71995164D01*
X105817670Y-72110799D01*
X105853764Y-72145961D01*
X106037217Y-72268540D01*
X106239936Y-72355635D01*
X106317665Y-72373223D01*
X106450706Y-72403328D01*
X106450711Y-72403329D01*
X106455132Y-72404329D01*
X106565365Y-72408660D01*
X106671065Y-72412813D01*
X106671066Y-72412813D01*
X106675598Y-72412991D01*
X106893952Y-72381331D01*
X106898251Y-72379872D01*
X106898254Y-72379871D01*
X107098578Y-72311870D01*
X107102879Y-72310410D01*
X107174444Y-72270332D01*
X107291425Y-72204819D01*
X107295384Y-72202602D01*
X107465018Y-72061518D01*
X107529932Y-71983468D01*
X114481261Y-71983468D01*
X114485049Y-71989772D01*
X115258914Y-72763637D01*
X115270797Y-72769691D01*
X115275828Y-72768895D01*
X116052459Y-71992264D01*
X116058513Y-71980381D01*
X116058415Y-71979759D01*
X116053588Y-71974206D01*
X115900933Y-71867315D01*
X115893463Y-71863003D01*
X115703078Y-71774225D01*
X115694985Y-71771279D01*
X115492056Y-71716905D01*
X115483588Y-71715412D01*
X115274309Y-71697102D01*
X115265691Y-71697102D01*
X115056412Y-71715412D01*
X115047944Y-71716905D01*
X114845015Y-71771279D01*
X114836922Y-71774225D01*
X114646538Y-71863003D01*
X114639068Y-71867315D01*
X114489299Y-71972185D01*
X114481273Y-71982836D01*
X114481261Y-71983468D01*
X107529932Y-71983468D01*
X107606102Y-71891884D01*
X107608319Y-71887926D01*
X107608322Y-71887921D01*
X107675115Y-71768653D01*
X107720045Y-71727120D01*
X107780806Y-71719928D01*
X107799377Y-71725562D01*
X107865698Y-71753033D01*
X108017500Y-71773018D01*
X108169302Y-71753033D01*
X108310759Y-71694439D01*
X108432231Y-71601231D01*
X108525439Y-71479759D01*
X108584033Y-71338302D01*
X108604018Y-71186500D01*
X108584033Y-71034698D01*
X108525439Y-70893241D01*
X108432231Y-70771769D01*
X108310759Y-70678561D01*
X108202918Y-70633891D01*
X108175299Y-70622451D01*
X108169302Y-70619967D01*
X108017500Y-70599982D01*
X107865698Y-70619967D01*
X107859700Y-70622451D01*
X107859698Y-70622452D01*
X107781100Y-70655008D01*
X107720104Y-70659809D01*
X107667935Y-70627839D01*
X107654427Y-70607334D01*
X107640480Y-70579053D01*
X107508467Y-70402267D01*
X107487248Y-70382652D01*
X107475938Y-70372197D01*
X107446042Y-70318813D01*
X107453234Y-70258052D01*
X107494767Y-70213123D01*
X107543140Y-70200500D01*
X120271000Y-70200500D01*
X120329191Y-70219407D01*
X120365155Y-70268907D01*
X120370000Y-70299500D01*
X120370000Y-73248992D01*
X120351093Y-73307183D01*
X120341004Y-73318996D01*
X119760000Y-73900000D01*
X119760000Y-85380000D01*
X124700500Y-85380000D01*
X124758691Y-85398907D01*
X124794655Y-85448407D01*
X124799500Y-85479000D01*
X124799500Y-94700500D01*
X124780593Y-94758691D01*
X124731093Y-94794655D01*
X124700500Y-94799500D01*
X100299500Y-94799500D01*
X100241309Y-94780593D01*
X100205345Y-94731093D01*
X100200500Y-94700500D01*
X100200500Y-93119058D01*
X100219407Y-93060867D01*
X100229496Y-93049054D01*
X100554467Y-92724083D01*
X100608984Y-92696306D01*
X100624141Y-92695088D01*
X100799006Y-92694505D01*
X101551628Y-92691996D01*
X101609880Y-92710709D01*
X101646009Y-92760089D01*
X101646213Y-92821274D01*
X101610414Y-92870893D01*
X101601457Y-92876731D01*
X101585768Y-92885789D01*
X101585761Y-92885794D01*
X101581270Y-92888387D01*
X101440833Y-93014838D01*
X101329755Y-93167724D01*
X101252891Y-93340363D01*
X101213600Y-93525211D01*
X101213600Y-93714189D01*
X101252891Y-93899037D01*
X101329755Y-94071676D01*
X101440833Y-94224562D01*
X101581270Y-94351013D01*
X101744930Y-94445501D01*
X101924658Y-94503898D01*
X101981700Y-94509894D01*
X102062904Y-94518429D01*
X102062911Y-94518429D01*
X102065486Y-94518700D01*
X102870914Y-94518700D01*
X102873489Y-94518429D01*
X102873496Y-94518429D01*
X102954700Y-94509894D01*
X103011742Y-94503898D01*
X103191470Y-94445501D01*
X103355130Y-94351013D01*
X103495567Y-94224562D01*
X103606645Y-94071676D01*
X103683509Y-93899037D01*
X103722800Y-93714189D01*
X103722800Y-93525211D01*
X103683509Y-93340363D01*
X103606645Y-93167724D01*
X103495567Y-93014838D01*
X103355130Y-92888387D01*
X103252342Y-92829043D01*
X103195960Y-92796491D01*
X103195958Y-92796490D01*
X103191470Y-92793899D01*
X103011742Y-92735502D01*
X102954700Y-92729506D01*
X102873496Y-92720971D01*
X102873489Y-92720971D01*
X102870914Y-92720700D01*
X102775182Y-92720700D01*
X102716991Y-92701793D01*
X102681027Y-92652293D01*
X102681027Y-92591107D01*
X102705178Y-92551696D01*
X102807865Y-92449009D01*
X102885255Y-92325844D01*
X102933298Y-92188546D01*
X102949584Y-92044000D01*
X102933298Y-91899454D01*
X102885255Y-91762156D01*
X102807865Y-91638991D01*
X102705009Y-91536135D01*
X102581844Y-91458745D01*
X102576594Y-91456908D01*
X102576592Y-91456907D01*
X102449796Y-91412539D01*
X102449795Y-91412539D01*
X102444546Y-91410702D01*
X102439020Y-91410079D01*
X102439014Y-91410078D01*
X102316072Y-91396225D01*
X102307644Y-91394779D01*
X102306178Y-91394610D01*
X102300718Y-91393345D01*
X102300000Y-91393344D01*
X102294547Y-91394588D01*
X102294546Y-91394588D01*
X102288590Y-91395946D01*
X102266358Y-91398425D01*
X101121289Y-91395916D01*
X100603629Y-91394782D01*
X100545480Y-91375747D01*
X100532071Y-91363968D01*
X100429240Y-91255724D01*
X100227725Y-91043603D01*
X100201354Y-90988392D01*
X100200500Y-90975417D01*
X100200500Y-88634000D01*
X119390982Y-88634000D01*
X119410967Y-88785802D01*
X119469561Y-88927259D01*
X119562769Y-89048731D01*
X119684241Y-89141939D01*
X119825698Y-89200533D01*
X119977500Y-89220518D01*
X119983934Y-89219671D01*
X120072267Y-89208042D01*
X120132428Y-89219192D01*
X120174545Y-89263575D01*
X120178510Y-89273146D01*
X120179894Y-89277055D01*
X120181011Y-89281452D01*
X120273383Y-89481821D01*
X120400722Y-89662002D01*
X120558764Y-89815961D01*
X120742217Y-89938540D01*
X120944936Y-90025635D01*
X121022665Y-90043223D01*
X121155706Y-90073328D01*
X121155711Y-90073329D01*
X121160132Y-90074329D01*
X121270365Y-90078660D01*
X121376065Y-90082813D01*
X121376066Y-90082813D01*
X121380598Y-90082991D01*
X121598952Y-90051331D01*
X121603251Y-90049872D01*
X121603254Y-90049871D01*
X121803578Y-89981870D01*
X121807879Y-89980410D01*
X121879444Y-89940332D01*
X121996425Y-89874819D01*
X122000384Y-89872602D01*
X122170018Y-89731518D01*
X122311102Y-89561884D01*
X122418910Y-89369379D01*
X122454826Y-89263575D01*
X122488371Y-89164754D01*
X122488372Y-89164751D01*
X122489831Y-89160452D01*
X122521491Y-88942098D01*
X122522037Y-88921264D01*
X122523067Y-88881914D01*
X122523067Y-88881909D01*
X122523143Y-88879000D01*
X122502954Y-88659289D01*
X122453010Y-88482198D01*
X122444299Y-88451311D01*
X122444298Y-88451310D01*
X122443065Y-88446936D01*
X122441057Y-88442864D01*
X122441055Y-88442859D01*
X122347488Y-88253125D01*
X122345480Y-88249053D01*
X122213467Y-88072267D01*
X122077478Y-87946560D01*
X122054779Y-87925577D01*
X122054778Y-87925576D01*
X122051449Y-87922499D01*
X121986505Y-87881522D01*
X121868687Y-87807185D01*
X121864850Y-87804764D01*
X121659921Y-87723006D01*
X121443524Y-87679962D01*
X121334847Y-87678539D01*
X121227446Y-87677133D01*
X121227441Y-87677133D01*
X121222906Y-87677074D01*
X121218433Y-87677843D01*
X121218428Y-87677843D01*
X121009935Y-87713668D01*
X121009929Y-87713670D01*
X121005457Y-87714438D01*
X120977676Y-87724687D01*
X120802720Y-87789231D01*
X120802717Y-87789232D01*
X120798457Y-87790804D01*
X120794554Y-87793126D01*
X120794552Y-87793127D01*
X120776559Y-87803832D01*
X120608841Y-87903614D01*
X120605426Y-87906609D01*
X120605423Y-87906611D01*
X120528290Y-87974255D01*
X120442957Y-88049090D01*
X120440149Y-88052652D01*
X120399912Y-88103693D01*
X120349038Y-88137686D01*
X120287900Y-88135284D01*
X120274729Y-88129108D01*
X120270759Y-88126061D01*
X120129302Y-88067467D01*
X119977500Y-88047482D01*
X119825698Y-88067467D01*
X119684241Y-88126061D01*
X119562769Y-88219269D01*
X119469561Y-88340741D01*
X119410967Y-88482198D01*
X119390982Y-88634000D01*
X100200500Y-88634000D01*
X100200500Y-88369058D01*
X100219407Y-88310867D01*
X100229496Y-88299054D01*
X100554295Y-87974255D01*
X100608812Y-87946478D01*
X100624101Y-87945259D01*
X102265819Y-87942067D01*
X102288366Y-87944625D01*
X102293813Y-87945888D01*
X102293819Y-87945889D01*
X102299282Y-87947155D01*
X102300000Y-87947156D01*
X102305456Y-87945911D01*
X102307184Y-87945718D01*
X102314671Y-87944447D01*
X102439577Y-87930373D01*
X102445106Y-87929750D01*
X102582936Y-87881522D01*
X102706578Y-87803832D01*
X102809832Y-87700578D01*
X102822823Y-87679903D01*
X102884564Y-87581644D01*
X102884565Y-87581642D01*
X102887522Y-87576936D01*
X102935750Y-87439106D01*
X102952100Y-87294000D01*
X102935750Y-87148894D01*
X102887522Y-87011064D01*
X102880245Y-86999482D01*
X102812791Y-86892131D01*
X102812790Y-86892130D01*
X102809832Y-86887422D01*
X102710714Y-86788304D01*
X102682937Y-86733787D01*
X102692508Y-86673355D01*
X102735773Y-86630090D01*
X102780718Y-86619300D01*
X102870914Y-86619300D01*
X102873489Y-86619029D01*
X102873496Y-86619029D01*
X102954700Y-86610494D01*
X103011742Y-86604498D01*
X103191470Y-86546101D01*
X103254558Y-86509678D01*
X103350639Y-86454206D01*
X103350640Y-86454205D01*
X103355130Y-86451613D01*
X103495567Y-86325162D01*
X103606645Y-86172276D01*
X103683509Y-85999637D01*
X103721416Y-85821300D01*
X103752009Y-85768312D01*
X103807905Y-85743425D01*
X103848846Y-85747729D01*
X103895293Y-85762821D01*
X103895304Y-85762823D01*
X103899907Y-85764319D01*
X104084998Y-85786390D01*
X104089820Y-85786019D01*
X104089823Y-85786019D01*
X104266023Y-85772461D01*
X104266028Y-85772460D01*
X104270851Y-85772089D01*
X104450387Y-85721962D01*
X104454700Y-85719783D01*
X104454706Y-85719781D01*
X104612447Y-85640100D01*
X104612449Y-85640098D01*
X104616768Y-85637917D01*
X104763655Y-85523156D01*
X104885454Y-85382050D01*
X104925798Y-85311032D01*
X104970980Y-85269776D01*
X105031784Y-85262956D01*
X105072144Y-85281392D01*
X105106741Y-85307939D01*
X105248198Y-85366533D01*
X105400000Y-85386518D01*
X105551802Y-85366533D01*
X105693259Y-85307939D01*
X105814731Y-85214731D01*
X105907939Y-85093259D01*
X105966533Y-84951802D01*
X105986518Y-84800000D01*
X105985671Y-84793566D01*
X105978210Y-84736893D01*
X105989360Y-84676732D01*
X106006359Y-84653967D01*
X108709859Y-81950467D01*
X108716227Y-81944632D01*
X108745996Y-81919653D01*
X108765431Y-81885990D01*
X108770070Y-81878709D01*
X108771789Y-81876254D01*
X108792356Y-81846882D01*
X108794598Y-81838515D01*
X108797061Y-81833234D01*
X108799059Y-81827744D01*
X108803390Y-81820243D01*
X108810138Y-81781976D01*
X108812007Y-81773547D01*
X108819825Y-81744368D01*
X108822066Y-81736004D01*
X108818679Y-81697288D01*
X108818302Y-81688660D01*
X108818302Y-79071328D01*
X108818679Y-79062700D01*
X108821310Y-79032622D01*
X108822065Y-79023995D01*
X108819824Y-79015632D01*
X108819824Y-79015629D01*
X108812008Y-78986458D01*
X108810139Y-78978030D01*
X108806155Y-78955436D01*
X108803390Y-78939757D01*
X108799059Y-78932254D01*
X108797060Y-78926763D01*
X108794598Y-78921483D01*
X108792356Y-78913118D01*
X108770070Y-78881291D01*
X108765429Y-78874007D01*
X108750325Y-78847846D01*
X108745996Y-78840347D01*
X108716231Y-78815371D01*
X108709863Y-78809537D01*
X107806359Y-77906033D01*
X107778582Y-77851516D01*
X107778210Y-77823107D01*
X107785671Y-77766434D01*
X107785671Y-77766433D01*
X107786518Y-77760000D01*
X107766533Y-77608198D01*
X107707939Y-77466741D01*
X107614731Y-77345269D01*
X107493259Y-77252061D01*
X107351802Y-77193467D01*
X107200000Y-77173482D01*
X107048198Y-77193467D01*
X106906741Y-77252061D01*
X106785269Y-77345269D01*
X106692061Y-77466741D01*
X106633467Y-77608198D01*
X106613482Y-77760000D01*
X106633467Y-77911802D01*
X106692061Y-78053259D01*
X106785269Y-78174731D01*
X106906741Y-78267939D01*
X107048198Y-78326533D01*
X107200000Y-78346518D01*
X107206433Y-78345671D01*
X107206434Y-78345671D01*
X107263107Y-78338210D01*
X107323268Y-78349360D01*
X107346033Y-78366359D01*
X108138306Y-79158632D01*
X108166083Y-79213149D01*
X108167302Y-79228636D01*
X108167302Y-80005550D01*
X108148395Y-80063741D01*
X108098895Y-80099705D01*
X108037709Y-80099705D01*
X108008035Y-80084092D01*
X107994231Y-80073500D01*
X107959576Y-80023075D01*
X107955500Y-79994959D01*
X107955500Y-79658534D01*
X107955877Y-79649905D01*
X107958509Y-79619822D01*
X107959264Y-79611193D01*
X107949204Y-79573650D01*
X107947334Y-79565216D01*
X107942092Y-79535483D01*
X107942091Y-79535481D01*
X107940588Y-79526955D01*
X107936258Y-79519456D01*
X107934262Y-79513971D01*
X107931796Y-79508684D01*
X107929554Y-79500316D01*
X107907268Y-79468489D01*
X107902627Y-79461205D01*
X107887523Y-79435044D01*
X107883194Y-79427545D01*
X107853429Y-79402569D01*
X107847061Y-79396735D01*
X107753269Y-79302943D01*
X107747434Y-79296575D01*
X107722455Y-79266806D01*
X107688792Y-79247371D01*
X107681511Y-79242732D01*
X107679056Y-79241013D01*
X107649684Y-79220446D01*
X107641316Y-79218204D01*
X107636029Y-79215738D01*
X107630544Y-79213742D01*
X107623045Y-79209412D01*
X107614519Y-79207909D01*
X107614517Y-79207908D01*
X107584784Y-79202666D01*
X107576349Y-79200796D01*
X107547174Y-79192978D01*
X107538807Y-79190736D01*
X107530178Y-79191491D01*
X107500095Y-79194123D01*
X107491466Y-79194500D01*
X106332021Y-79194500D01*
X106273830Y-79175593D01*
X106253479Y-79155767D01*
X106218685Y-79110422D01*
X106214731Y-79105269D01*
X106093259Y-79012061D01*
X105951802Y-78953467D01*
X105800000Y-78933482D01*
X105793566Y-78934329D01*
X105654629Y-78952620D01*
X105654626Y-78952621D01*
X105648198Y-78953467D01*
X105643520Y-78955405D01*
X105583019Y-78952233D01*
X105535469Y-78913726D01*
X105519499Y-78859809D01*
X105519499Y-77754586D01*
X105538406Y-77696395D01*
X105548495Y-77684582D01*
X106277581Y-76955496D01*
X106332098Y-76927719D01*
X106347585Y-76926500D01*
X108301906Y-76926500D01*
X108305309Y-76926750D01*
X108309759Y-76928278D01*
X108355259Y-76926570D01*
X108358972Y-76926500D01*
X108376810Y-76926500D01*
X108380986Y-76925722D01*
X108385310Y-76925442D01*
X108395504Y-76925059D01*
X108403929Y-76924743D01*
X108403930Y-76924743D01*
X108413064Y-76924400D01*
X108421462Y-76920792D01*
X108421466Y-76920791D01*
X108422059Y-76920536D01*
X108443003Y-76914172D01*
X108452630Y-76912379D01*
X108473087Y-76899769D01*
X108485957Y-76893083D01*
X108501632Y-76886349D01*
X108501634Y-76886348D01*
X108508046Y-76883593D01*
X108512553Y-76879892D01*
X108515964Y-76876481D01*
X108531102Y-76864516D01*
X108532852Y-76862929D01*
X108540631Y-76858134D01*
X108556628Y-76837097D01*
X108565428Y-76827017D01*
X111469826Y-73922619D01*
X114481487Y-73922619D01*
X114481585Y-73923241D01*
X114486412Y-73928794D01*
X114639067Y-74035685D01*
X114646537Y-74039997D01*
X114836922Y-74128775D01*
X114845015Y-74131721D01*
X115047944Y-74186095D01*
X115056412Y-74187588D01*
X115265691Y-74205898D01*
X115274309Y-74205898D01*
X115483588Y-74187588D01*
X115492056Y-74186095D01*
X115694985Y-74131721D01*
X115703078Y-74128775D01*
X115893463Y-74039997D01*
X115900933Y-74035685D01*
X116050701Y-73930815D01*
X116058727Y-73920164D01*
X116058739Y-73919532D01*
X116054951Y-73913228D01*
X115281086Y-73139363D01*
X115269203Y-73133309D01*
X115264172Y-73134105D01*
X114487541Y-73910736D01*
X114481487Y-73922619D01*
X111469826Y-73922619D01*
X111693983Y-73698462D01*
X111748500Y-73670685D01*
X111776909Y-73670313D01*
X111893566Y-73685671D01*
X111900000Y-73686518D01*
X112051802Y-73666533D01*
X112067560Y-73660006D01*
X112085418Y-73652609D01*
X112193259Y-73607939D01*
X112314731Y-73514731D01*
X112407939Y-73393259D01*
X112466533Y-73251802D01*
X112486518Y-73100000D01*
X112467535Y-72955809D01*
X114015602Y-72955809D01*
X114033912Y-73165088D01*
X114035405Y-73173556D01*
X114089779Y-73376485D01*
X114092725Y-73384578D01*
X114181503Y-73574962D01*
X114185815Y-73582432D01*
X114290685Y-73732201D01*
X114301336Y-73740227D01*
X114301968Y-73740239D01*
X114308272Y-73736451D01*
X115082137Y-72962586D01*
X115087379Y-72952297D01*
X115451809Y-72952297D01*
X115452605Y-72957328D01*
X116229236Y-73733959D01*
X116241119Y-73740013D01*
X116241741Y-73739915D01*
X116247294Y-73735088D01*
X116354185Y-73582432D01*
X116358497Y-73574962D01*
X116447275Y-73384578D01*
X116450221Y-73376485D01*
X116504595Y-73173556D01*
X116506088Y-73165088D01*
X116524398Y-72955809D01*
X116524398Y-72947191D01*
X116506088Y-72737912D01*
X116504595Y-72729444D01*
X116450221Y-72526515D01*
X116447275Y-72518422D01*
X116358497Y-72328038D01*
X116354185Y-72320568D01*
X116249315Y-72170799D01*
X116238664Y-72162773D01*
X116238032Y-72162761D01*
X116231728Y-72166549D01*
X115457863Y-72940414D01*
X115451809Y-72952297D01*
X115087379Y-72952297D01*
X115088191Y-72950703D01*
X115087395Y-72945672D01*
X114310764Y-72169041D01*
X114298881Y-72162987D01*
X114298259Y-72163085D01*
X114292706Y-72167912D01*
X114185815Y-72320568D01*
X114181503Y-72328038D01*
X114092725Y-72518422D01*
X114089779Y-72526515D01*
X114035405Y-72729444D01*
X114033912Y-72737912D01*
X114015602Y-72947191D01*
X114015602Y-72955809D01*
X112467535Y-72955809D01*
X112466533Y-72948198D01*
X112407939Y-72806741D01*
X112314731Y-72685269D01*
X112193259Y-72592061D01*
X112051802Y-72533467D01*
X111900000Y-72513482D01*
X111748198Y-72533467D01*
X111606741Y-72592061D01*
X111485269Y-72685269D01*
X111392061Y-72806741D01*
X111333467Y-72948198D01*
X111313482Y-73100000D01*
X111314329Y-73106434D01*
X111329687Y-73223091D01*
X111318537Y-73283252D01*
X111301538Y-73306017D01*
X108265051Y-76342504D01*
X108210534Y-76370281D01*
X108195047Y-76371500D01*
X106240726Y-76371500D01*
X106237323Y-76371250D01*
X106232873Y-76369722D01*
X106187374Y-76371430D01*
X106183660Y-76371500D01*
X106165822Y-76371500D01*
X106161646Y-76372278D01*
X106157322Y-76372558D01*
X106147128Y-76372941D01*
X106138703Y-76373257D01*
X106138702Y-76373257D01*
X106129568Y-76373600D01*
X106121170Y-76377208D01*
X106121166Y-76377209D01*
X106120573Y-76377464D01*
X106099629Y-76383828D01*
X106090002Y-76385621D01*
X106082219Y-76390419D01*
X106082218Y-76390419D01*
X106069545Y-76398231D01*
X106056675Y-76404917D01*
X106041005Y-76411649D01*
X106041004Y-76411650D01*
X106034586Y-76414407D01*
X106030080Y-76418108D01*
X106026670Y-76421518D01*
X106011528Y-76433487D01*
X106009784Y-76435069D01*
X106002001Y-76439866D01*
X105996469Y-76447142D01*
X105996468Y-76447142D01*
X105986001Y-76460907D01*
X105977201Y-76470987D01*
X105187593Y-77260595D01*
X105153230Y-77282953D01*
X105149353Y-77284449D01*
X105140369Y-77286122D01*
X105132589Y-77290917D01*
X105132588Y-77290918D01*
X105112052Y-77303577D01*
X105103582Y-77308243D01*
X105081892Y-77318846D01*
X105081891Y-77318847D01*
X105073681Y-77322860D01*
X105067468Y-77329557D01*
X105063667Y-77332380D01*
X105060148Y-77335571D01*
X105052368Y-77340367D01*
X105046836Y-77347643D01*
X105046835Y-77347643D01*
X105032226Y-77366855D01*
X105026002Y-77374259D01*
X105003376Y-77398650D01*
X104999988Y-77407141D01*
X104997452Y-77411153D01*
X104995326Y-77415381D01*
X104989794Y-77422655D01*
X104987252Y-77431434D01*
X104980538Y-77454617D01*
X104977397Y-77463764D01*
X104965068Y-77494667D01*
X104964499Y-77500471D01*
X104964499Y-77502697D01*
X104964172Y-77507148D01*
X104963581Y-77513176D01*
X104961039Y-77521953D01*
X104961827Y-77531054D01*
X104961827Y-77531056D01*
X104964130Y-77557642D01*
X104964499Y-77566184D01*
X104964499Y-79838119D01*
X104964249Y-79841522D01*
X104962721Y-79845972D01*
X104963064Y-79855107D01*
X104964429Y-79891471D01*
X104964499Y-79895185D01*
X104964499Y-79913023D01*
X104965277Y-79917199D01*
X104965558Y-79921531D01*
X104966202Y-79938685D01*
X104966599Y-79949277D01*
X104970207Y-79957675D01*
X104970208Y-79957679D01*
X104970463Y-79958272D01*
X104976827Y-79979216D01*
X104978620Y-79988843D01*
X104983418Y-79996626D01*
X104983418Y-79996627D01*
X104991230Y-80009300D01*
X104997916Y-80022170D01*
X105000395Y-80027939D01*
X105007406Y-80044259D01*
X105011107Y-80048766D01*
X105014518Y-80052177D01*
X105026483Y-80067315D01*
X105028070Y-80069065D01*
X105032865Y-80076844D01*
X105040141Y-80082377D01*
X105053902Y-80092841D01*
X105063982Y-80101641D01*
X106083931Y-81121590D01*
X106111708Y-81176107D01*
X106112080Y-81204516D01*
X106095875Y-81327607D01*
X106115860Y-81479409D01*
X106174454Y-81620866D01*
X106267662Y-81742338D01*
X106389134Y-81835546D01*
X106530591Y-81894140D01*
X106657568Y-81910857D01*
X106667422Y-81912154D01*
X106682393Y-81914125D01*
X106697365Y-81912154D01*
X106707218Y-81910857D01*
X106834195Y-81894140D01*
X106975652Y-81835546D01*
X107097124Y-81742338D01*
X107190332Y-81620866D01*
X107248926Y-81479409D01*
X107268911Y-81327607D01*
X107248926Y-81175805D01*
X107249988Y-81175665D01*
X107252865Y-81120736D01*
X107291369Y-81073184D01*
X107350469Y-81057347D01*
X107383177Y-81064747D01*
X107508198Y-81116533D01*
X107660000Y-81136518D01*
X107811802Y-81116533D01*
X107953259Y-81057939D01*
X108008036Y-81015908D01*
X108065711Y-80995484D01*
X108124376Y-81012862D01*
X108161624Y-81061403D01*
X108167302Y-81094450D01*
X108167302Y-81531364D01*
X108148395Y-81589555D01*
X108138306Y-81601368D01*
X105546033Y-84193641D01*
X105491516Y-84221418D01*
X105463107Y-84221790D01*
X105406434Y-84214329D01*
X105406433Y-84214329D01*
X105400000Y-84213482D01*
X105248198Y-84233467D01*
X105106741Y-84292061D01*
X105101592Y-84296012D01*
X105048941Y-84336412D01*
X104991265Y-84356836D01*
X104932599Y-84339458D01*
X104906702Y-84310450D01*
X104905475Y-84311265D01*
X104902796Y-84307234D01*
X104900522Y-84302956D01*
X104782710Y-84158505D01*
X104778981Y-84155420D01*
X104642812Y-84042770D01*
X104642810Y-84042769D01*
X104639085Y-84039687D01*
X104475116Y-83951029D01*
X104297049Y-83895909D01*
X104292239Y-83895403D01*
X104292237Y-83895403D01*
X104116484Y-83876930D01*
X104116482Y-83876930D01*
X104111668Y-83876424D01*
X104049673Y-83882066D01*
X103930852Y-83892879D01*
X103930848Y-83892880D01*
X103926032Y-83893318D01*
X103921390Y-83894684D01*
X103921386Y-83894685D01*
X103751861Y-83944580D01*
X103751858Y-83944581D01*
X103747214Y-83945948D01*
X103582023Y-84032307D01*
X103578247Y-84035343D01*
X103578244Y-84035345D01*
X103440523Y-84146076D01*
X103436752Y-84149108D01*
X103433644Y-84152812D01*
X103320044Y-84288195D01*
X103320041Y-84288199D01*
X103316935Y-84291901D01*
X103227135Y-84455246D01*
X103170772Y-84632924D01*
X103170232Y-84637736D01*
X103170232Y-84637737D01*
X103156722Y-84758182D01*
X103131446Y-84813903D01*
X103078246Y-84844125D01*
X103027746Y-84841302D01*
X103025772Y-84840660D01*
X103011742Y-84836102D01*
X102954700Y-84830106D01*
X102873496Y-84821571D01*
X102873489Y-84821571D01*
X102870914Y-84821300D01*
X102065486Y-84821300D01*
X102062911Y-84821571D01*
X102062904Y-84821571D01*
X101981700Y-84830106D01*
X101924658Y-84836102D01*
X101744930Y-84894499D01*
X101740442Y-84897090D01*
X101740440Y-84897091D01*
X101645677Y-84951802D01*
X101581270Y-84988987D01*
X101440833Y-85115438D01*
X101329755Y-85268324D01*
X101327648Y-85273056D01*
X101327647Y-85273058D01*
X101271616Y-85398907D01*
X101252891Y-85440963D01*
X101213600Y-85625811D01*
X101213600Y-85814789D01*
X101252891Y-85999637D01*
X101329755Y-86172276D01*
X101440833Y-86325162D01*
X101581270Y-86451613D01*
X101585760Y-86454205D01*
X101585761Y-86454206D01*
X101596911Y-86460643D01*
X101637853Y-86506112D01*
X101644250Y-86566962D01*
X101613659Y-86619951D01*
X101557764Y-86644838D01*
X101547332Y-86645381D01*
X100779827Y-86644750D01*
X100603598Y-86644605D01*
X100545422Y-86625650D01*
X100531904Y-86613791D01*
X100227725Y-86293603D01*
X100201354Y-86238393D01*
X100200500Y-86225417D01*
X100200500Y-70299500D01*
X100219407Y-70241309D01*
X100268907Y-70205345D01*
X100299500Y-70200500D01*
X103175748Y-70200500D01*
X103233939Y-70219407D01*
G37*
G04 #@! TD.AperFunction*
G04 #@! TD*
M02*
