%TF.GenerationSoftware,KiCad,Pcbnew,(6.0.11)*%
%TF.CreationDate,2023-04-24T14:11:14-03:00*%
%TF.ProjectId,HappyFeet,48617070-7946-4656-9574-2e6b69636164,V0.7*%
%TF.SameCoordinates,Original*%
%TF.FileFunction,Drillmap*%
%TF.FilePolarity,Positive*%
%FSLAX45Y45*%
G04 Gerber Fmt 4.5, Leading zero omitted, Abs format (unit mm)*
G04 Created by KiCad (PCBNEW (6.0.11)) date 2023-04-24 14:11:14*
%MOMM*%
%LPD*%
G01*
G04 APERTURE LIST*
%ADD10C,0.100000*%
%ADD11C,0.200000*%
%ADD12C,0.040000*%
%ADD13C,0.060000*%
G04 APERTURE END LIST*
D10*
X10000000Y-8634500D02*
X10000000Y-7000000D01*
X10230000Y-8684650D02*
X10047500Y-8684500D01*
X10230000Y-8774150D02*
X10050000Y-8774500D01*
X10230000Y-9159900D02*
X10047500Y-9159500D01*
X10230000Y-9248900D02*
X10050000Y-9249500D01*
X12500000Y-9500000D02*
X10000000Y-9500000D01*
X10230000Y-9248900D02*
G75*
G03*
X10230000Y-9159900I0J44500D01*
G01*
X12500000Y-7000000D02*
X12500000Y-9500000D01*
X10047500Y-9159500D02*
X10000000Y-9109500D01*
X10000000Y-9109500D02*
X10000000Y-8824500D01*
X10047500Y-8684500D02*
X10000000Y-8634500D01*
X10230000Y-8774150D02*
G75*
G03*
X10230000Y-8684650I0J44750D01*
G01*
X10000000Y-9500000D02*
X10000000Y-9299500D01*
X10000000Y-8824500D02*
X10050000Y-8774500D01*
X10000000Y-7000000D02*
X12500000Y-7000000D01*
X10000000Y-9299500D02*
X10050000Y-9249500D01*
D11*
D12*
X10120000Y-7790000D02*
X10160000Y-7830000D01*
X10160000Y-7790000D02*
X10120000Y-7830000D01*
X10269250Y-8113750D02*
X10309250Y-8153750D01*
X10309250Y-8113750D02*
X10269250Y-8153750D01*
X10480000Y-9387000D02*
X10520000Y-9427000D01*
X10520000Y-9387000D02*
X10480000Y-9427000D01*
X10520000Y-8460000D02*
X10560000Y-8500000D01*
X10560000Y-8460000D02*
X10520000Y-8500000D01*
X10560000Y-7932000D02*
X10600000Y-7972000D01*
X10600000Y-7932000D02*
X10560000Y-7972000D01*
X10565000Y-7762000D02*
X10605000Y-7802000D01*
X10605000Y-7762000D02*
X10565000Y-7802000D01*
X10648239Y-8112761D02*
X10688239Y-8152761D01*
X10688239Y-8112761D02*
X10648239Y-8152761D01*
X10670000Y-8867000D02*
X10710000Y-8907000D01*
X10710000Y-8867000D02*
X10670000Y-8907000D01*
X10700000Y-7756000D02*
X10740000Y-7796000D01*
X10740000Y-7756000D02*
X10700000Y-7796000D01*
X10746000Y-8035000D02*
X10786000Y-8075000D01*
X10786000Y-8035000D02*
X10746000Y-8075000D01*
X10781500Y-7361650D02*
X10821500Y-7401650D01*
X10821500Y-7361650D02*
X10781500Y-7401650D01*
X10781750Y-7098650D02*
X10821750Y-7138650D01*
X10821750Y-7098650D02*
X10781750Y-7138650D01*
X10863750Y-7301400D02*
X10903750Y-7341400D01*
X10903750Y-7301400D02*
X10863750Y-7341400D01*
X10880000Y-9237000D02*
X10920000Y-9277000D01*
X10920000Y-9237000D02*
X10880000Y-9277000D01*
X11000000Y-7760000D02*
X11040000Y-7800000D01*
X11040000Y-7760000D02*
X11000000Y-7800000D01*
X11001000Y-7593000D02*
X11041000Y-7633000D01*
X11041000Y-7593000D02*
X11001000Y-7633000D01*
X11003000Y-7980000D02*
X11043000Y-8020000D01*
X11043000Y-7980000D02*
X11003000Y-8020000D01*
X11003000Y-8240000D02*
X11043000Y-8280000D01*
X11043000Y-8240000D02*
X11003000Y-8280000D01*
X11102250Y-9134250D02*
X11142250Y-9174250D01*
X11142250Y-9134250D02*
X11102250Y-9174250D01*
X11170000Y-7290000D02*
X11210000Y-7330000D01*
X11210000Y-7290000D02*
X11170000Y-7330000D01*
X11177000Y-7087000D02*
X11217000Y-7127000D01*
X11217000Y-7087000D02*
X11177000Y-7127000D01*
X11201000Y-7783000D02*
X11241000Y-7823000D01*
X11241000Y-7783000D02*
X11201000Y-7823000D01*
X11201000Y-7943000D02*
X11241000Y-7983000D01*
X11241000Y-7943000D02*
X11201000Y-7983000D01*
X11224000Y-8243000D02*
X11264000Y-8283000D01*
X11264000Y-8243000D02*
X11224000Y-8283000D01*
X11336000Y-8681000D02*
X11376000Y-8721000D01*
X11376000Y-8681000D02*
X11336000Y-8721000D01*
X11371000Y-7573000D02*
X11411000Y-7613000D01*
X11411000Y-7573000D02*
X11371000Y-7613000D01*
X11371002Y-7953000D02*
X11411002Y-7993000D01*
X11411002Y-7953000D02*
X11371002Y-7993000D01*
X11371011Y-7782990D02*
X11411011Y-7822990D01*
X11411011Y-7782990D02*
X11371011Y-7822990D01*
X11419000Y-8815000D02*
X11459000Y-8855000D01*
X11459000Y-8815000D02*
X11419000Y-8855000D01*
X11445000Y-8243000D02*
X11485000Y-8283000D01*
X11485000Y-8243000D02*
X11445000Y-8283000D01*
X11589000Y-7095000D02*
X11629000Y-7135000D01*
X11629000Y-7095000D02*
X11589000Y-7135000D01*
X11646000Y-7798000D02*
X11686000Y-7838000D01*
X11686000Y-7798000D02*
X11646000Y-7838000D01*
X11646000Y-8020000D02*
X11686000Y-8060000D01*
X11686000Y-8020000D02*
X11646000Y-8060000D01*
X11654000Y-8243000D02*
X11694000Y-8283000D01*
X11694000Y-8243000D02*
X11654000Y-8283000D01*
X11745000Y-9190000D02*
X11785000Y-9230000D01*
X11785000Y-9190000D02*
X11745000Y-9230000D01*
X11748000Y-7320000D02*
X11788000Y-7360000D01*
X11788000Y-7320000D02*
X11748000Y-7360000D01*
X11769000Y-8535000D02*
X11809000Y-8575000D01*
X11809000Y-8535000D02*
X11769000Y-8575000D01*
X11770000Y-8713000D02*
X11810000Y-8753000D01*
X11810000Y-8713000D02*
X11770000Y-8753000D01*
X11821000Y-9383000D02*
X11861000Y-9423000D01*
X11861000Y-9383000D02*
X11821000Y-9423000D01*
X11852000Y-8914000D02*
X11892000Y-8954000D01*
X11892000Y-8914000D02*
X11852000Y-8954000D01*
X11859000Y-7228000D02*
X11899000Y-7268000D01*
X11899000Y-7228000D02*
X11859000Y-7268000D01*
X11859000Y-7332000D02*
X11899000Y-7372000D01*
X11899000Y-7332000D02*
X11859000Y-7372000D01*
X11872000Y-8243000D02*
X11912000Y-8283000D01*
X11912000Y-8243000D02*
X11872000Y-8283000D01*
X11882000Y-7871000D02*
X11922000Y-7911000D01*
X11922000Y-7871000D02*
X11882000Y-7911000D01*
X11882000Y-8035000D02*
X11922000Y-8075000D01*
X11922000Y-8035000D02*
X11882000Y-8075000D01*
X11888000Y-7709000D02*
X11928000Y-7749000D01*
X11928000Y-7709000D02*
X11888000Y-7749000D01*
X11977750Y-8843400D02*
X12017750Y-8883400D01*
X12017750Y-8843400D02*
X11977750Y-8883400D01*
X12081000Y-9373000D02*
X12121000Y-9413000D01*
X12121000Y-9373000D02*
X12081000Y-9413000D01*
X12141000Y-9143000D02*
X12181000Y-9183000D01*
X12181000Y-9143000D02*
X12141000Y-9183000D01*
X12249000Y-8680000D02*
X12289000Y-8720000D01*
X12289000Y-8680000D02*
X12249000Y-8720000D01*
X12361000Y-9173000D02*
X12401000Y-9213000D01*
X12401000Y-9173000D02*
X12361000Y-9213000D01*
X12386000Y-8816000D02*
X12426000Y-8856000D01*
X12426000Y-8816000D02*
X12386000Y-8856000D01*
D13*
X10276820Y-8572030D02*
G75*
G03*
X10276820Y-8572030I-30000J0D01*
G01*
D11*
X10281820Y-8542030D02*
X10211820Y-8542030D01*
X10281820Y-8602030D02*
X10211820Y-8602030D01*
X10211820Y-8542030D02*
G75*
G03*
X10211820Y-8602030I0J-30000D01*
G01*
X10281820Y-8602030D02*
G75*
G03*
X10281820Y-8542030I0J30000D01*
G01*
D13*
X10276820Y-9361970D02*
G75*
G03*
X10276820Y-9361970I-30000J0D01*
G01*
D11*
X10281820Y-9331970D02*
X10211820Y-9331970D01*
X10281820Y-9391970D02*
X10211820Y-9391970D01*
X10211820Y-9331970D02*
G75*
G03*
X10211820Y-9391970I0J-30000D01*
G01*
X10281820Y-9391970D02*
G75*
G03*
X10281820Y-9331970I0J30000D01*
G01*
X10252619Y-9815476D02*
X10252619Y-9615476D01*
X10300238Y-9615476D01*
X10328810Y-9625000D01*
X10347857Y-9644048D01*
X10357381Y-9663095D01*
X10366905Y-9701190D01*
X10366905Y-9729762D01*
X10357381Y-9767857D01*
X10347857Y-9786905D01*
X10328810Y-9805952D01*
X10300238Y-9815476D01*
X10252619Y-9815476D01*
X10452619Y-9815476D02*
X10452619Y-9682143D01*
X10452619Y-9720238D02*
X10462143Y-9701190D01*
X10471667Y-9691667D01*
X10490714Y-9682143D01*
X10509762Y-9682143D01*
X10576429Y-9815476D02*
X10576429Y-9682143D01*
X10576429Y-9615476D02*
X10566905Y-9625000D01*
X10576429Y-9634524D01*
X10585952Y-9625000D01*
X10576429Y-9615476D01*
X10576429Y-9634524D01*
X10700238Y-9815476D02*
X10681190Y-9805952D01*
X10671667Y-9786905D01*
X10671667Y-9615476D01*
X10805000Y-9815476D02*
X10785952Y-9805952D01*
X10776429Y-9786905D01*
X10776429Y-9615476D01*
X11033571Y-9815476D02*
X11033571Y-9615476D01*
X11100238Y-9758333D01*
X11166905Y-9615476D01*
X11166905Y-9815476D01*
X11347857Y-9815476D02*
X11347857Y-9710714D01*
X11338333Y-9691667D01*
X11319286Y-9682143D01*
X11281190Y-9682143D01*
X11262143Y-9691667D01*
X11347857Y-9805952D02*
X11328809Y-9815476D01*
X11281190Y-9815476D01*
X11262143Y-9805952D01*
X11252619Y-9786905D01*
X11252619Y-9767857D01*
X11262143Y-9748810D01*
X11281190Y-9739286D01*
X11328809Y-9739286D01*
X11347857Y-9729762D01*
X11443095Y-9682143D02*
X11443095Y-9882143D01*
X11443095Y-9691667D02*
X11462143Y-9682143D01*
X11500238Y-9682143D01*
X11519286Y-9691667D01*
X11528809Y-9701190D01*
X11538333Y-9720238D01*
X11538333Y-9777381D01*
X11528809Y-9796429D01*
X11519286Y-9805952D01*
X11500238Y-9815476D01*
X11462143Y-9815476D01*
X11443095Y-9805952D01*
X11624048Y-9796429D02*
X11633571Y-9805952D01*
X11624048Y-9815476D01*
X11614524Y-9805952D01*
X11624048Y-9796429D01*
X11624048Y-9815476D01*
X11624048Y-9691667D02*
X11633571Y-9701190D01*
X11624048Y-9710714D01*
X11614524Y-9701190D01*
X11624048Y-9691667D01*
X11624048Y-9710714D01*
D12*
X9955000Y-10125000D02*
X9995000Y-10165000D01*
X9995000Y-10125000D02*
X9955000Y-10165000D01*
D11*
X10290714Y-10035476D02*
X10309762Y-10035476D01*
X10328810Y-10045000D01*
X10338333Y-10054524D01*
X10347857Y-10073571D01*
X10357381Y-10111667D01*
X10357381Y-10159286D01*
X10347857Y-10197381D01*
X10338333Y-10216429D01*
X10328810Y-10225952D01*
X10309762Y-10235476D01*
X10290714Y-10235476D01*
X10271667Y-10225952D01*
X10262143Y-10216429D01*
X10252619Y-10197381D01*
X10243095Y-10159286D01*
X10243095Y-10111667D01*
X10252619Y-10073571D01*
X10262143Y-10054524D01*
X10271667Y-10045000D01*
X10290714Y-10035476D01*
X10443095Y-10216429D02*
X10452619Y-10225952D01*
X10443095Y-10235476D01*
X10433571Y-10225952D01*
X10443095Y-10216429D01*
X10443095Y-10235476D01*
X10624048Y-10102143D02*
X10624048Y-10235476D01*
X10576429Y-10025952D02*
X10528810Y-10168810D01*
X10652619Y-10168810D01*
X10766905Y-10035476D02*
X10785952Y-10035476D01*
X10805000Y-10045000D01*
X10814524Y-10054524D01*
X10824048Y-10073571D01*
X10833571Y-10111667D01*
X10833571Y-10159286D01*
X10824048Y-10197381D01*
X10814524Y-10216429D01*
X10805000Y-10225952D01*
X10785952Y-10235476D01*
X10766905Y-10235476D01*
X10747857Y-10225952D01*
X10738333Y-10216429D01*
X10728810Y-10197381D01*
X10719286Y-10159286D01*
X10719286Y-10111667D01*
X10728810Y-10073571D01*
X10738333Y-10054524D01*
X10747857Y-10045000D01*
X10766905Y-10035476D01*
X10957381Y-10035476D02*
X10976429Y-10035476D01*
X10995476Y-10045000D01*
X11005000Y-10054524D01*
X11014524Y-10073571D01*
X11024048Y-10111667D01*
X11024048Y-10159286D01*
X11014524Y-10197381D01*
X11005000Y-10216429D01*
X10995476Y-10225952D01*
X10976429Y-10235476D01*
X10957381Y-10235476D01*
X10938333Y-10225952D01*
X10928810Y-10216429D01*
X10919286Y-10197381D01*
X10909762Y-10159286D01*
X10909762Y-10111667D01*
X10919286Y-10073571D01*
X10928810Y-10054524D01*
X10938333Y-10045000D01*
X10957381Y-10035476D01*
X11109762Y-10235476D02*
X11109762Y-10102143D01*
X11109762Y-10121190D02*
X11119286Y-10111667D01*
X11138333Y-10102143D01*
X11166905Y-10102143D01*
X11185952Y-10111667D01*
X11195476Y-10130714D01*
X11195476Y-10235476D01*
X11195476Y-10130714D02*
X11205000Y-10111667D01*
X11224048Y-10102143D01*
X11252619Y-10102143D01*
X11271667Y-10111667D01*
X11281190Y-10130714D01*
X11281190Y-10235476D01*
X11376428Y-10235476D02*
X11376428Y-10102143D01*
X11376428Y-10121190D02*
X11385952Y-10111667D01*
X11405000Y-10102143D01*
X11433571Y-10102143D01*
X11452619Y-10111667D01*
X11462143Y-10130714D01*
X11462143Y-10235476D01*
X11462143Y-10130714D02*
X11471667Y-10111667D01*
X11490714Y-10102143D01*
X11519286Y-10102143D01*
X11538333Y-10111667D01*
X11547857Y-10130714D01*
X11547857Y-10235476D01*
X11938333Y-10025952D02*
X11766905Y-10283095D01*
X12195476Y-10035476D02*
X12214524Y-10035476D01*
X12233571Y-10045000D01*
X12243095Y-10054524D01*
X12252619Y-10073571D01*
X12262143Y-10111667D01*
X12262143Y-10159286D01*
X12252619Y-10197381D01*
X12243095Y-10216429D01*
X12233571Y-10225952D01*
X12214524Y-10235476D01*
X12195476Y-10235476D01*
X12176428Y-10225952D01*
X12166905Y-10216429D01*
X12157381Y-10197381D01*
X12147857Y-10159286D01*
X12147857Y-10111667D01*
X12157381Y-10073571D01*
X12166905Y-10054524D01*
X12176428Y-10045000D01*
X12195476Y-10035476D01*
X12347857Y-10216429D02*
X12357381Y-10225952D01*
X12347857Y-10235476D01*
X12338333Y-10225952D01*
X12347857Y-10216429D01*
X12347857Y-10235476D01*
X12481190Y-10035476D02*
X12500238Y-10035476D01*
X12519286Y-10045000D01*
X12528809Y-10054524D01*
X12538333Y-10073571D01*
X12547857Y-10111667D01*
X12547857Y-10159286D01*
X12538333Y-10197381D01*
X12528809Y-10216429D01*
X12519286Y-10225952D01*
X12500238Y-10235476D01*
X12481190Y-10235476D01*
X12462143Y-10225952D01*
X12452619Y-10216429D01*
X12443095Y-10197381D01*
X12433571Y-10159286D01*
X12433571Y-10111667D01*
X12443095Y-10073571D01*
X12452619Y-10054524D01*
X12462143Y-10045000D01*
X12481190Y-10035476D01*
X12738333Y-10235476D02*
X12624048Y-10235476D01*
X12681190Y-10235476D02*
X12681190Y-10035476D01*
X12662143Y-10064048D01*
X12643095Y-10083095D01*
X12624048Y-10092619D01*
X12919286Y-10035476D02*
X12824048Y-10035476D01*
X12814524Y-10130714D01*
X12824048Y-10121190D01*
X12843095Y-10111667D01*
X12890714Y-10111667D01*
X12909762Y-10121190D01*
X12919286Y-10130714D01*
X12928809Y-10149762D01*
X12928809Y-10197381D01*
X12919286Y-10216429D01*
X12909762Y-10225952D01*
X12890714Y-10235476D01*
X12843095Y-10235476D01*
X12824048Y-10225952D01*
X12814524Y-10216429D01*
X12995476Y-10035476D02*
X13128809Y-10035476D01*
X13043095Y-10235476D01*
X13195476Y-10035476D02*
X13195476Y-10073571D01*
X13271667Y-10035476D02*
X13271667Y-10073571D01*
X13566905Y-10311667D02*
X13557381Y-10302143D01*
X13538333Y-10273571D01*
X13528809Y-10254524D01*
X13519286Y-10225952D01*
X13509762Y-10178333D01*
X13509762Y-10140238D01*
X13519286Y-10092619D01*
X13528809Y-10064048D01*
X13538333Y-10045000D01*
X13557381Y-10016429D01*
X13566905Y-10006905D01*
X13738333Y-10035476D02*
X13643095Y-10035476D01*
X13633571Y-10130714D01*
X13643095Y-10121190D01*
X13662143Y-10111667D01*
X13709762Y-10111667D01*
X13728809Y-10121190D01*
X13738333Y-10130714D01*
X13747857Y-10149762D01*
X13747857Y-10197381D01*
X13738333Y-10216429D01*
X13728809Y-10225952D01*
X13709762Y-10235476D01*
X13662143Y-10235476D01*
X13643095Y-10225952D01*
X13633571Y-10216429D01*
X13824048Y-10054524D02*
X13833571Y-10045000D01*
X13852619Y-10035476D01*
X13900238Y-10035476D01*
X13919286Y-10045000D01*
X13928809Y-10054524D01*
X13938333Y-10073571D01*
X13938333Y-10092619D01*
X13928809Y-10121190D01*
X13814524Y-10235476D01*
X13938333Y-10235476D01*
X14176428Y-10235476D02*
X14176428Y-10035476D01*
X14262143Y-10235476D02*
X14262143Y-10130714D01*
X14252619Y-10111667D01*
X14233571Y-10102143D01*
X14205000Y-10102143D01*
X14185952Y-10111667D01*
X14176428Y-10121190D01*
X14385952Y-10235476D02*
X14366905Y-10225952D01*
X14357381Y-10216429D01*
X14347857Y-10197381D01*
X14347857Y-10140238D01*
X14357381Y-10121190D01*
X14366905Y-10111667D01*
X14385952Y-10102143D01*
X14414524Y-10102143D01*
X14433571Y-10111667D01*
X14443095Y-10121190D01*
X14452619Y-10140238D01*
X14452619Y-10197381D01*
X14443095Y-10216429D01*
X14433571Y-10225952D01*
X14414524Y-10235476D01*
X14385952Y-10235476D01*
X14566905Y-10235476D02*
X14547857Y-10225952D01*
X14538333Y-10206905D01*
X14538333Y-10035476D01*
X14719286Y-10225952D02*
X14700238Y-10235476D01*
X14662143Y-10235476D01*
X14643095Y-10225952D01*
X14633571Y-10206905D01*
X14633571Y-10130714D01*
X14643095Y-10111667D01*
X14662143Y-10102143D01*
X14700238Y-10102143D01*
X14719286Y-10111667D01*
X14728809Y-10130714D01*
X14728809Y-10149762D01*
X14633571Y-10168810D01*
X14805000Y-10225952D02*
X14824048Y-10235476D01*
X14862143Y-10235476D01*
X14881190Y-10225952D01*
X14890714Y-10206905D01*
X14890714Y-10197381D01*
X14881190Y-10178333D01*
X14862143Y-10168810D01*
X14833571Y-10168810D01*
X14814524Y-10159286D01*
X14805000Y-10140238D01*
X14805000Y-10130714D01*
X14814524Y-10111667D01*
X14833571Y-10102143D01*
X14862143Y-10102143D01*
X14881190Y-10111667D01*
X14957381Y-10311667D02*
X14966905Y-10302143D01*
X14985952Y-10273571D01*
X14995476Y-10254524D01*
X15005000Y-10225952D01*
X15014524Y-10178333D01*
X15014524Y-10140238D01*
X15005000Y-10092619D01*
X14995476Y-10064048D01*
X14985952Y-10045000D01*
X14966905Y-10016429D01*
X14957381Y-10006905D01*
D13*
X9995000Y-10409000D02*
G75*
G03*
X9995000Y-10409000I-30000J0D01*
G01*
D11*
X10290714Y-10299476D02*
X10309762Y-10299476D01*
X10328810Y-10309000D01*
X10338333Y-10318524D01*
X10347857Y-10337571D01*
X10357381Y-10375667D01*
X10357381Y-10423286D01*
X10347857Y-10461381D01*
X10338333Y-10480429D01*
X10328810Y-10489952D01*
X10309762Y-10499476D01*
X10290714Y-10499476D01*
X10271667Y-10489952D01*
X10262143Y-10480429D01*
X10252619Y-10461381D01*
X10243095Y-10423286D01*
X10243095Y-10375667D01*
X10252619Y-10337571D01*
X10262143Y-10318524D01*
X10271667Y-10309000D01*
X10290714Y-10299476D01*
X10443095Y-10480429D02*
X10452619Y-10489952D01*
X10443095Y-10499476D01*
X10433571Y-10489952D01*
X10443095Y-10480429D01*
X10443095Y-10499476D01*
X10624048Y-10299476D02*
X10585952Y-10299476D01*
X10566905Y-10309000D01*
X10557381Y-10318524D01*
X10538333Y-10347095D01*
X10528810Y-10385190D01*
X10528810Y-10461381D01*
X10538333Y-10480429D01*
X10547857Y-10489952D01*
X10566905Y-10499476D01*
X10605000Y-10499476D01*
X10624048Y-10489952D01*
X10633571Y-10480429D01*
X10643095Y-10461381D01*
X10643095Y-10413762D01*
X10633571Y-10394714D01*
X10624048Y-10385190D01*
X10605000Y-10375667D01*
X10566905Y-10375667D01*
X10547857Y-10385190D01*
X10538333Y-10394714D01*
X10528810Y-10413762D01*
X10766905Y-10299476D02*
X10785952Y-10299476D01*
X10805000Y-10309000D01*
X10814524Y-10318524D01*
X10824048Y-10337571D01*
X10833571Y-10375667D01*
X10833571Y-10423286D01*
X10824048Y-10461381D01*
X10814524Y-10480429D01*
X10805000Y-10489952D01*
X10785952Y-10499476D01*
X10766905Y-10499476D01*
X10747857Y-10489952D01*
X10738333Y-10480429D01*
X10728810Y-10461381D01*
X10719286Y-10423286D01*
X10719286Y-10375667D01*
X10728810Y-10337571D01*
X10738333Y-10318524D01*
X10747857Y-10309000D01*
X10766905Y-10299476D01*
X10957381Y-10299476D02*
X10976429Y-10299476D01*
X10995476Y-10309000D01*
X11005000Y-10318524D01*
X11014524Y-10337571D01*
X11024048Y-10375667D01*
X11024048Y-10423286D01*
X11014524Y-10461381D01*
X11005000Y-10480429D01*
X10995476Y-10489952D01*
X10976429Y-10499476D01*
X10957381Y-10499476D01*
X10938333Y-10489952D01*
X10928810Y-10480429D01*
X10919286Y-10461381D01*
X10909762Y-10423286D01*
X10909762Y-10375667D01*
X10919286Y-10337571D01*
X10928810Y-10318524D01*
X10938333Y-10309000D01*
X10957381Y-10299476D01*
X11109762Y-10499476D02*
X11109762Y-10366143D01*
X11109762Y-10385190D02*
X11119286Y-10375667D01*
X11138333Y-10366143D01*
X11166905Y-10366143D01*
X11185952Y-10375667D01*
X11195476Y-10394714D01*
X11195476Y-10499476D01*
X11195476Y-10394714D02*
X11205000Y-10375667D01*
X11224048Y-10366143D01*
X11252619Y-10366143D01*
X11271667Y-10375667D01*
X11281190Y-10394714D01*
X11281190Y-10499476D01*
X11376428Y-10499476D02*
X11376428Y-10366143D01*
X11376428Y-10385190D02*
X11385952Y-10375667D01*
X11405000Y-10366143D01*
X11433571Y-10366143D01*
X11452619Y-10375667D01*
X11462143Y-10394714D01*
X11462143Y-10499476D01*
X11462143Y-10394714D02*
X11471667Y-10375667D01*
X11490714Y-10366143D01*
X11519286Y-10366143D01*
X11538333Y-10375667D01*
X11547857Y-10394714D01*
X11547857Y-10499476D01*
X11938333Y-10289952D02*
X11766905Y-10547095D01*
X12195476Y-10299476D02*
X12214524Y-10299476D01*
X12233571Y-10309000D01*
X12243095Y-10318524D01*
X12252619Y-10337571D01*
X12262143Y-10375667D01*
X12262143Y-10423286D01*
X12252619Y-10461381D01*
X12243095Y-10480429D01*
X12233571Y-10489952D01*
X12214524Y-10499476D01*
X12195476Y-10499476D01*
X12176428Y-10489952D01*
X12166905Y-10480429D01*
X12157381Y-10461381D01*
X12147857Y-10423286D01*
X12147857Y-10375667D01*
X12157381Y-10337571D01*
X12166905Y-10318524D01*
X12176428Y-10309000D01*
X12195476Y-10299476D01*
X12347857Y-10480429D02*
X12357381Y-10489952D01*
X12347857Y-10499476D01*
X12338333Y-10489952D01*
X12347857Y-10480429D01*
X12347857Y-10499476D01*
X12481190Y-10299476D02*
X12500238Y-10299476D01*
X12519286Y-10309000D01*
X12528809Y-10318524D01*
X12538333Y-10337571D01*
X12547857Y-10375667D01*
X12547857Y-10423286D01*
X12538333Y-10461381D01*
X12528809Y-10480429D01*
X12519286Y-10489952D01*
X12500238Y-10499476D01*
X12481190Y-10499476D01*
X12462143Y-10489952D01*
X12452619Y-10480429D01*
X12443095Y-10461381D01*
X12433571Y-10423286D01*
X12433571Y-10375667D01*
X12443095Y-10337571D01*
X12452619Y-10318524D01*
X12462143Y-10309000D01*
X12481190Y-10299476D01*
X12624048Y-10318524D02*
X12633571Y-10309000D01*
X12652619Y-10299476D01*
X12700238Y-10299476D01*
X12719286Y-10309000D01*
X12728809Y-10318524D01*
X12738333Y-10337571D01*
X12738333Y-10356619D01*
X12728809Y-10385190D01*
X12614524Y-10499476D01*
X12738333Y-10499476D01*
X12805000Y-10299476D02*
X12928809Y-10299476D01*
X12862143Y-10375667D01*
X12890714Y-10375667D01*
X12909762Y-10385190D01*
X12919286Y-10394714D01*
X12928809Y-10413762D01*
X12928809Y-10461381D01*
X12919286Y-10480429D01*
X12909762Y-10489952D01*
X12890714Y-10499476D01*
X12833571Y-10499476D01*
X12814524Y-10489952D01*
X12805000Y-10480429D01*
X13100238Y-10299476D02*
X13062143Y-10299476D01*
X13043095Y-10309000D01*
X13033571Y-10318524D01*
X13014524Y-10347095D01*
X13005000Y-10385190D01*
X13005000Y-10461381D01*
X13014524Y-10480429D01*
X13024048Y-10489952D01*
X13043095Y-10499476D01*
X13081190Y-10499476D01*
X13100238Y-10489952D01*
X13109762Y-10480429D01*
X13119286Y-10461381D01*
X13119286Y-10413762D01*
X13109762Y-10394714D01*
X13100238Y-10385190D01*
X13081190Y-10375667D01*
X13043095Y-10375667D01*
X13024048Y-10385190D01*
X13014524Y-10394714D01*
X13005000Y-10413762D01*
X13195476Y-10299476D02*
X13195476Y-10337571D01*
X13271667Y-10299476D02*
X13271667Y-10337571D01*
X13566905Y-10575667D02*
X13557381Y-10566143D01*
X13538333Y-10537571D01*
X13528809Y-10518524D01*
X13519286Y-10489952D01*
X13509762Y-10442333D01*
X13509762Y-10404238D01*
X13519286Y-10356619D01*
X13528809Y-10328048D01*
X13538333Y-10309000D01*
X13557381Y-10280429D01*
X13566905Y-10270905D01*
X13681190Y-10299476D02*
X13700238Y-10299476D01*
X13719286Y-10309000D01*
X13728809Y-10318524D01*
X13738333Y-10337571D01*
X13747857Y-10375667D01*
X13747857Y-10423286D01*
X13738333Y-10461381D01*
X13728809Y-10480429D01*
X13719286Y-10489952D01*
X13700238Y-10499476D01*
X13681190Y-10499476D01*
X13662143Y-10489952D01*
X13652619Y-10480429D01*
X13643095Y-10461381D01*
X13633571Y-10423286D01*
X13633571Y-10375667D01*
X13643095Y-10337571D01*
X13652619Y-10318524D01*
X13662143Y-10309000D01*
X13681190Y-10299476D01*
X13985952Y-10499476D02*
X13985952Y-10299476D01*
X14071667Y-10499476D02*
X14071667Y-10394714D01*
X14062143Y-10375667D01*
X14043095Y-10366143D01*
X14014524Y-10366143D01*
X13995476Y-10375667D01*
X13985952Y-10385190D01*
X14195476Y-10499476D02*
X14176428Y-10489952D01*
X14166905Y-10480429D01*
X14157381Y-10461381D01*
X14157381Y-10404238D01*
X14166905Y-10385190D01*
X14176428Y-10375667D01*
X14195476Y-10366143D01*
X14224048Y-10366143D01*
X14243095Y-10375667D01*
X14252619Y-10385190D01*
X14262143Y-10404238D01*
X14262143Y-10461381D01*
X14252619Y-10480429D01*
X14243095Y-10489952D01*
X14224048Y-10499476D01*
X14195476Y-10499476D01*
X14376428Y-10499476D02*
X14357381Y-10489952D01*
X14347857Y-10470905D01*
X14347857Y-10299476D01*
X14528809Y-10489952D02*
X14509762Y-10499476D01*
X14471667Y-10499476D01*
X14452619Y-10489952D01*
X14443095Y-10470905D01*
X14443095Y-10394714D01*
X14452619Y-10375667D01*
X14471667Y-10366143D01*
X14509762Y-10366143D01*
X14528809Y-10375667D01*
X14538333Y-10394714D01*
X14538333Y-10413762D01*
X14443095Y-10432810D01*
X14614524Y-10489952D02*
X14633571Y-10499476D01*
X14671667Y-10499476D01*
X14690714Y-10489952D01*
X14700238Y-10470905D01*
X14700238Y-10461381D01*
X14690714Y-10442333D01*
X14671667Y-10432810D01*
X14643095Y-10432810D01*
X14624048Y-10423286D01*
X14614524Y-10404238D01*
X14614524Y-10394714D01*
X14624048Y-10375667D01*
X14643095Y-10366143D01*
X14671667Y-10366143D01*
X14690714Y-10375667D01*
X14938333Y-10423286D02*
X15090714Y-10423286D01*
X15014524Y-10499476D02*
X15014524Y-10347095D01*
X15328809Y-10318524D02*
X15338333Y-10309000D01*
X15357381Y-10299476D01*
X15405000Y-10299476D01*
X15424048Y-10309000D01*
X15433571Y-10318524D01*
X15443095Y-10337571D01*
X15443095Y-10356619D01*
X15433571Y-10385190D01*
X15319286Y-10499476D01*
X15443095Y-10499476D01*
X15671667Y-10489952D02*
X15690714Y-10499476D01*
X15728809Y-10499476D01*
X15747857Y-10489952D01*
X15757381Y-10470905D01*
X15757381Y-10461381D01*
X15747857Y-10442333D01*
X15728809Y-10432810D01*
X15700238Y-10432810D01*
X15681190Y-10423286D01*
X15671667Y-10404238D01*
X15671667Y-10394714D01*
X15681190Y-10375667D01*
X15700238Y-10366143D01*
X15728809Y-10366143D01*
X15747857Y-10375667D01*
X15871667Y-10499476D02*
X15852619Y-10489952D01*
X15843095Y-10470905D01*
X15843095Y-10299476D01*
X15976428Y-10499476D02*
X15957381Y-10489952D01*
X15947857Y-10480429D01*
X15938333Y-10461381D01*
X15938333Y-10404238D01*
X15947857Y-10385190D01*
X15957381Y-10375667D01*
X15976428Y-10366143D01*
X16005000Y-10366143D01*
X16024048Y-10375667D01*
X16033571Y-10385190D01*
X16043095Y-10404238D01*
X16043095Y-10461381D01*
X16033571Y-10480429D01*
X16024048Y-10489952D01*
X16005000Y-10499476D01*
X15976428Y-10499476D01*
X16100238Y-10366143D02*
X16176428Y-10366143D01*
X16128809Y-10299476D02*
X16128809Y-10470905D01*
X16138333Y-10489952D01*
X16157381Y-10499476D01*
X16176428Y-10499476D01*
X16233571Y-10489952D02*
X16252619Y-10499476D01*
X16290714Y-10499476D01*
X16309762Y-10489952D01*
X16319286Y-10470905D01*
X16319286Y-10461381D01*
X16309762Y-10442333D01*
X16290714Y-10432810D01*
X16262143Y-10432810D01*
X16243095Y-10423286D01*
X16233571Y-10404238D01*
X16233571Y-10394714D01*
X16243095Y-10375667D01*
X16262143Y-10366143D01*
X16290714Y-10366143D01*
X16309762Y-10375667D01*
X16385952Y-10575667D02*
X16395476Y-10566143D01*
X16414524Y-10537571D01*
X16424048Y-10518524D01*
X16433571Y-10489952D01*
X16443095Y-10442333D01*
X16443095Y-10404238D01*
X16433571Y-10356619D01*
X16424048Y-10328048D01*
X16414524Y-10309000D01*
X16395476Y-10280429D01*
X16385952Y-10270905D01*
M02*
