G04 #@! TF.GenerationSoftware,KiCad,Pcbnew,(6.0.11)*
G04 #@! TF.CreationDate,2023-05-05T12:53:29-03:00*
G04 #@! TF.ProjectId,HappyFeet,48617070-7946-4656-9574-2e6b69636164,V0.7*
G04 #@! TF.SameCoordinates,Original*
G04 #@! TF.FileFunction,Soldermask,Top*
G04 #@! TF.FilePolarity,Negative*
%FSLAX46Y46*%
G04 Gerber Fmt 4.6, Leading zero omitted, Abs format (unit mm)*
G04 Created by KiCad (PCBNEW (6.0.11)) date 2023-05-05 12:53:29*
%MOMM*%
%LPD*%
G01*
G04 APERTURE LIST*
G04 Aperture macros list*
%AMRoundRect*
0 Rectangle with rounded corners*
0 $1 Rounding radius*
0 $2 $3 $4 $5 $6 $7 $8 $9 X,Y pos of 4 corners*
0 Add a 4 corners polygon primitive as box body*
4,1,4,$2,$3,$4,$5,$6,$7,$8,$9,$2,$3,0*
0 Add four circle primitives for the rounded corners*
1,1,$1+$1,$2,$3*
1,1,$1+$1,$4,$5*
1,1,$1+$1,$6,$7*
1,1,$1+$1,$8,$9*
0 Add four rect primitives between the rounded corners*
20,1,$1+$1,$2,$3,$4,$5,0*
20,1,$1+$1,$4,$5,$6,$7,0*
20,1,$1+$1,$6,$7,$8,$9,0*
20,1,$1+$1,$8,$9,$2,$3,0*%
G04 Aperture macros list end*
%ADD10RoundRect,0.198300X0.147500X0.172500X-0.147500X0.172500X-0.147500X-0.172500X0.147500X-0.172500X0*%
%ADD11RoundRect,0.198300X-0.147500X-0.172500X0.147500X-0.172500X0.147500X0.172500X-0.147500X0.172500X0*%
%ADD12RoundRect,0.198300X-0.172500X0.147500X-0.172500X-0.147500X0.172500X-0.147500X0.172500X0.147500X0*%
%ADD13RoundRect,0.198300X0.172500X-0.147500X0.172500X0.147500X-0.172500X0.147500X-0.172500X-0.147500X0*%
%ADD14RoundRect,0.050800X-0.774700X0.330200X-0.774700X-0.330200X0.774700X-0.330200X0.774700X0.330200X0*%
%ADD15RoundRect,0.050800X-0.952500X0.647700X-0.952500X-0.647700X0.952500X-0.647700X0.952500X0.647700X0*%
%ADD16RoundRect,0.050800X-0.495300X0.444500X-0.495300X-0.444500X0.495300X-0.444500X0.495300X0.444500X0*%
%ADD17RoundRect,0.050800X-0.279400X0.850900X-0.279400X-0.850900X0.279400X-0.850900X0.279400X0.850900X0*%
%ADD18RoundRect,0.050800X0.530000X0.325000X-0.530000X0.325000X-0.530000X-0.325000X0.530000X-0.325000X0*%
%ADD19C,2.000000*%
%ADD20RoundRect,0.269550X0.256250X-0.218750X0.256250X0.218750X-0.256250X0.218750X-0.256250X-0.218750X0*%
%ADD21RoundRect,0.269550X0.218750X0.256250X-0.218750X0.256250X-0.218750X-0.256250X0.218750X-0.256250X0*%
%ADD22RoundRect,0.050800X0.139700X0.152400X-0.139700X0.152400X-0.139700X-0.152400X0.139700X-0.152400X0*%
%ADD23RoundRect,0.050800X0.152400X-0.139700X0.152400X0.139700X-0.152400X0.139700X-0.152400X-0.139700X0*%
%ADD24R,1.383000X1.383000*%
%ADD25RoundRect,0.050800X-0.444500X-0.304800X0.444500X-0.304800X0.444500X0.304800X-0.444500X0.304800X0*%
%ADD26RoundRect,0.050800X-0.304800X0.444500X-0.304800X-0.444500X0.304800X-0.444500X0.304800X0.444500X0*%
%ADD27RoundRect,0.050800X-0.750000X0.750000X-0.750000X-0.750000X0.750000X-0.750000X0.750000X0.750000X0*%
%ADD28C,1.101600*%
%ADD29RoundRect,0.050800X0.444500X-0.406400X0.444500X0.406400X-0.444500X0.406400X-0.444500X-0.406400X0*%
%ADD30O,3.301600X0.901600*%
%ADD31RoundRect,0.050800X-0.685800X0.228600X-0.685800X-0.228600X0.685800X-0.228600X0.685800X0.228600X0*%
%ADD32RoundRect,0.050800X-1.054100X-0.736600X1.054100X-0.736600X1.054100X0.736600X-1.054100X0.736600X0*%
%ADD33RoundRect,0.050800X-0.952500X0.685800X-0.952500X-0.685800X0.952500X-0.685800X0.952500X0.685800X0*%
%ADD34O,2.209800X1.498600*%
%ADD35RoundRect,0.050800X-1.395000X0.370000X-1.395000X-0.370000X1.395000X-0.370000X1.395000X0.370000X0*%
G04 APERTURE END LIST*
D10*
G04 #@! TO.C,C3*
X103855000Y-78070000D03*
X102885000Y-78070000D03*
G04 #@! TD*
D11*
G04 #@! TO.C,C15*
X104635000Y-82620000D03*
X105605000Y-82620000D03*
G04 #@! TD*
D12*
G04 #@! TO.C,C18*
X112000000Y-89515000D03*
X112000000Y-90485000D03*
G04 #@! TD*
D13*
G04 #@! TO.C,C19*
X112000000Y-87985000D03*
X112000000Y-87015000D03*
G04 #@! TD*
D11*
G04 #@! TO.C,C22*
X116015000Y-86000000D03*
X116985000Y-86000000D03*
G04 #@! TD*
G04 #@! TO.C,C26*
X116015000Y-87500000D03*
X116985000Y-87500000D03*
G04 #@! TD*
D14*
G04 #@! TO.C,J3*
X119401500Y-92249999D03*
X119401500Y-91250001D03*
D15*
X123276501Y-89950001D03*
X123276501Y-93549999D03*
G04 #@! TD*
D13*
G04 #@! TO.C,R1*
X113000000Y-72985000D03*
X113000000Y-72015000D03*
G04 #@! TD*
D10*
G04 #@! TO.C,R3*
X105485000Y-83750000D03*
X104515000Y-83750000D03*
G04 #@! TD*
D16*
G04 #@! TO.C,SW1*
X102980001Y-79450002D03*
X101379999Y-79450002D03*
X102980001Y-83549998D03*
X101379999Y-83549998D03*
D17*
X100754999Y-81500000D03*
G04 #@! TD*
D18*
G04 #@! TO.C,U4*
X116100000Y-91450000D03*
X116100000Y-90500000D03*
X116100000Y-89550000D03*
X113900000Y-89550000D03*
X113900000Y-91450000D03*
G04 #@! TD*
D12*
G04 #@! TO.C,C24*
X114610000Y-86045000D03*
X114610000Y-87015000D03*
G04 #@! TD*
D19*
G04 #@! TO.C,FID1*
X121360000Y-71460000D03*
G04 #@! TD*
D20*
G04 #@! TO.C,D1*
X114500000Y-72787500D03*
X114500000Y-71212500D03*
G04 #@! TD*
D21*
G04 #@! TO.C,D3*
X116287500Y-93500000D03*
X114712500Y-93500000D03*
G04 #@! TD*
D13*
G04 #@! TO.C,R7*
X110250000Y-93485000D03*
X110250000Y-92515000D03*
G04 #@! TD*
D11*
G04 #@! TO.C,R6*
X112015000Y-93500000D03*
X112985000Y-93500000D03*
G04 #@! TD*
D18*
G04 #@! TO.C,U5*
X121400000Y-88050000D03*
X121400000Y-87100000D03*
X121400000Y-86150000D03*
X119200000Y-86150000D03*
X119200000Y-88050000D03*
G04 #@! TD*
D22*
G04 #@! TO.C,U2*
X105049999Y-80325500D03*
X105550000Y-80325500D03*
X106050000Y-80325500D03*
X106550001Y-80325500D03*
D23*
X106625500Y-79750000D03*
X106625500Y-79250000D03*
D22*
X106550001Y-78674500D03*
X106050000Y-78674500D03*
X105550000Y-78674500D03*
X105049999Y-78674500D03*
D23*
X104974500Y-79250000D03*
X104974500Y-79750000D03*
G04 #@! TD*
D13*
G04 #@! TO.C,C23*
X117500000Y-90235000D03*
X117500000Y-89265000D03*
G04 #@! TD*
D24*
G04 #@! TO.C,U1*
X113910022Y-79730000D03*
X113906212Y-78029900D03*
X112204412Y-79731700D03*
X112191712Y-78030000D03*
D25*
X118835118Y-74415000D03*
X117685117Y-74415000D03*
X116535117Y-74415000D03*
X115385117Y-74415000D03*
X114235117Y-74415000D03*
X113085116Y-74415000D03*
X111935116Y-74415000D03*
X110785116Y-74415000D03*
X109635116Y-74415000D03*
D26*
X108535512Y-76015009D03*
X108535512Y-77165010D03*
X108535512Y-78315010D03*
X108535512Y-79465010D03*
X108535512Y-80615010D03*
X108535512Y-81765011D03*
X108535512Y-82915011D03*
D25*
X109635116Y-84515000D03*
X110785116Y-84515000D03*
X111935116Y-84515000D03*
X113085116Y-84515000D03*
X114235117Y-84515000D03*
X115385117Y-84515000D03*
X116535117Y-84515000D03*
X117685117Y-84515000D03*
X118835118Y-84515000D03*
D27*
X113910111Y-78029900D03*
X112210112Y-78030000D03*
X112210000Y-79730000D03*
X113910022Y-79730000D03*
G04 #@! TD*
D13*
G04 #@! TO.C,R4*
X107200000Y-85085000D03*
X107200000Y-84115000D03*
G04 #@! TD*
G04 #@! TO.C,R8*
X107200000Y-83185000D03*
X107200000Y-82215000D03*
G04 #@! TD*
D19*
G04 #@! TO.C,FID2*
X107400000Y-93470000D03*
G04 #@! TD*
D28*
G04 #@! TO.C,TP1*
X108200000Y-86000000D03*
G04 #@! TD*
G04 #@! TO.C,TP2*
X119500000Y-71350000D03*
G04 #@! TD*
G04 #@! TO.C,TP3*
X107300000Y-90670000D03*
G04 #@! TD*
G04 #@! TO.C,TP4*
X117700000Y-71310000D03*
G04 #@! TD*
G04 #@! TO.C,TP5*
X116380000Y-72580000D03*
G04 #@! TD*
D13*
G04 #@! TO.C,R5*
X106900000Y-87755000D03*
X106900000Y-86785000D03*
G04 #@! TD*
D29*
G04 #@! TO.C,Z1*
X110154999Y-90064999D03*
X110154999Y-88015001D03*
X108265000Y-89040000D03*
G04 #@! TD*
D30*
G04 #@! TO.C,J1*
X100500000Y-87295000D03*
X100500000Y-92045000D03*
D31*
X104136394Y-90970000D03*
X104136394Y-90319999D03*
X104136394Y-89670000D03*
X104136394Y-89020001D03*
X104136394Y-88370000D03*
D32*
X103768100Y-87207501D03*
X103768100Y-92132499D03*
D33*
X101472300Y-88732500D03*
X101472300Y-90607500D03*
D34*
X101468200Y-85720300D03*
X101468200Y-93619700D03*
G04 #@! TD*
D35*
G04 #@! TO.C,J2*
X101750000Y-71364000D03*
X105820000Y-71364000D03*
X101750000Y-72634000D03*
X105820000Y-72634000D03*
X101750000Y-73904000D03*
X105820000Y-73904000D03*
X101750000Y-75174000D03*
X105820000Y-75174000D03*
X101750000Y-76444000D03*
X105820000Y-76444000D03*
G04 #@! TD*
G36*
X103450793Y-91247400D02*
G01*
X104821995Y-91247400D01*
X104823163Y-91247168D01*
X104825057Y-91247812D01*
X104825447Y-91249773D01*
X104824664Y-91250793D01*
X104795327Y-91270395D01*
X104788109Y-91306679D01*
X104808785Y-91337621D01*
X104822376Y-91343251D01*
X104823594Y-91344838D01*
X104822829Y-91346686D01*
X104821611Y-91347099D01*
X103423960Y-91347099D01*
X103422228Y-91346099D01*
X103422228Y-91344099D01*
X103423195Y-91343251D01*
X103458135Y-91328778D01*
X103472292Y-91294601D01*
X103458092Y-91260320D01*
X103435814Y-91248411D01*
X103434758Y-91246712D01*
X103435701Y-91244949D01*
X103437147Y-91244685D01*
X103450793Y-91247400D01*
G37*
G36*
X104836363Y-90595561D02*
G01*
X104836753Y-90597523D01*
X104835970Y-90598543D01*
X104806632Y-90618143D01*
X104799414Y-90654427D01*
X104820087Y-90685370D01*
X104833140Y-90690777D01*
X104834358Y-90692364D01*
X104833593Y-90694212D01*
X104831985Y-90694587D01*
X104821995Y-90692600D01*
X103450793Y-90692600D01*
X103438319Y-90695081D01*
X103436425Y-90694438D01*
X103436035Y-90692476D01*
X103436818Y-90691456D01*
X103466156Y-90671856D01*
X103473374Y-90635572D01*
X103452701Y-90604629D01*
X103439648Y-90599222D01*
X103438430Y-90597635D01*
X103439195Y-90595787D01*
X103440803Y-90595412D01*
X103450793Y-90597399D01*
X104821995Y-90597399D01*
X104834469Y-90594918D01*
X104836363Y-90595561D01*
G37*
G36*
X104836368Y-89945561D02*
G01*
X104836758Y-89947523D01*
X104835975Y-89948543D01*
X104806637Y-89968143D01*
X104799419Y-90004427D01*
X104820092Y-90035370D01*
X104833145Y-90040777D01*
X104834363Y-90042364D01*
X104833598Y-90044212D01*
X104831990Y-90044587D01*
X104821995Y-90042599D01*
X103450793Y-90042599D01*
X103438314Y-90045081D01*
X103436420Y-90044438D01*
X103436030Y-90042476D01*
X103436813Y-90041456D01*
X103466151Y-90021856D01*
X103473369Y-89985572D01*
X103452696Y-89954629D01*
X103439643Y-89949222D01*
X103438425Y-89947635D01*
X103439190Y-89945787D01*
X103440798Y-89945412D01*
X103450793Y-89947400D01*
X104821995Y-89947400D01*
X104834474Y-89944918D01*
X104836368Y-89945561D01*
G37*
G36*
X104836368Y-89295562D02*
G01*
X104836758Y-89297524D01*
X104835975Y-89298544D01*
X104806637Y-89318144D01*
X104799419Y-89354428D01*
X104820092Y-89385371D01*
X104833145Y-89390778D01*
X104834363Y-89392365D01*
X104833598Y-89394213D01*
X104831990Y-89394588D01*
X104821995Y-89392600D01*
X103450793Y-89392600D01*
X103438314Y-89395082D01*
X103436420Y-89394439D01*
X103436030Y-89392477D01*
X103436813Y-89391457D01*
X103466151Y-89371857D01*
X103473369Y-89335573D01*
X103452696Y-89304630D01*
X103439643Y-89299223D01*
X103438425Y-89297636D01*
X103439190Y-89295788D01*
X103440798Y-89295413D01*
X103450793Y-89297401D01*
X104821995Y-89297401D01*
X104834474Y-89294919D01*
X104836368Y-89295562D01*
G37*
G36*
X104836363Y-88645562D02*
G01*
X104836753Y-88647524D01*
X104835970Y-88648544D01*
X104806632Y-88668144D01*
X104799414Y-88704428D01*
X104820087Y-88735371D01*
X104833140Y-88740778D01*
X104834358Y-88742365D01*
X104833593Y-88744213D01*
X104831985Y-88744588D01*
X104821995Y-88742601D01*
X103450793Y-88742601D01*
X103438319Y-88745082D01*
X103436425Y-88744439D01*
X103436035Y-88742477D01*
X103436818Y-88741457D01*
X103466156Y-88721857D01*
X103473374Y-88685573D01*
X103452701Y-88654630D01*
X103439648Y-88649223D01*
X103438430Y-88647636D01*
X103439195Y-88645788D01*
X103440803Y-88645413D01*
X103450793Y-88647400D01*
X104821995Y-88647400D01*
X104834469Y-88644919D01*
X104836363Y-88645562D01*
G37*
G36*
X104825058Y-87993314D02*
G01*
X104825448Y-87995275D01*
X104824665Y-87996295D01*
X104795327Y-88015897D01*
X104788109Y-88052180D01*
X104808785Y-88083123D01*
X104822372Y-88088752D01*
X104823590Y-88090339D01*
X104822824Y-88092187D01*
X104821607Y-88092600D01*
X103450793Y-88092600D01*
X103436307Y-88095482D01*
X103434413Y-88094839D01*
X103434023Y-88092877D01*
X103434806Y-88091857D01*
X103464145Y-88072256D01*
X103471363Y-88035973D01*
X103450751Y-88005119D01*
X103423377Y-87996815D01*
X103422010Y-87995355D01*
X103422591Y-87993441D01*
X103423958Y-87992901D01*
X104822001Y-87992901D01*
X104823164Y-87992670D01*
X104825058Y-87993314D01*
G37*
G36*
X113012463Y-78982743D02*
G01*
X113033157Y-79013715D01*
X113069440Y-79020933D01*
X113100383Y-79000257D01*
X113107374Y-78983381D01*
X113108961Y-78982163D01*
X113110809Y-78982929D01*
X113111222Y-78984146D01*
X113111222Y-80476146D01*
X113110222Y-80477878D01*
X113108222Y-80477878D01*
X113107559Y-80477257D01*
X113086865Y-80446285D01*
X113050582Y-80439067D01*
X113019639Y-80459743D01*
X113012648Y-80476619D01*
X113011061Y-80477837D01*
X113009213Y-80477071D01*
X113008800Y-80475854D01*
X113008800Y-78983854D01*
X113009800Y-78982122D01*
X113011800Y-78982122D01*
X113012463Y-78982743D01*
G37*
G36*
X114657819Y-78829700D02*
G01*
X114657819Y-78831700D01*
X114657198Y-78832363D01*
X114626156Y-78853103D01*
X114618938Y-78889386D01*
X114639611Y-78920329D01*
X114656563Y-78927352D01*
X114657780Y-78928939D01*
X114657014Y-78930787D01*
X114655797Y-78931200D01*
X113164046Y-78931200D01*
X113162314Y-78930200D01*
X113162314Y-78928200D01*
X113162935Y-78927537D01*
X113193977Y-78906797D01*
X113201195Y-78870514D01*
X113180522Y-78839571D01*
X113163570Y-78832548D01*
X113162353Y-78830961D01*
X113163119Y-78829113D01*
X113164336Y-78828700D01*
X114656087Y-78828700D01*
X114657819Y-78829700D01*
G37*
G36*
X112957989Y-78829800D02*
G01*
X112957989Y-78831800D01*
X112957368Y-78832463D01*
X112926396Y-78853157D01*
X112919178Y-78889440D01*
X112939854Y-78920383D01*
X112956676Y-78927352D01*
X112957894Y-78928939D01*
X112957128Y-78930787D01*
X112955911Y-78931200D01*
X111463855Y-78931200D01*
X111462123Y-78930200D01*
X111462123Y-78928200D01*
X111462744Y-78927537D01*
X111493716Y-78906843D01*
X111500934Y-78870560D01*
X111480258Y-78839617D01*
X111463436Y-78832648D01*
X111462218Y-78831061D01*
X111462984Y-78829213D01*
X111464201Y-78828800D01*
X112956257Y-78828800D01*
X112957989Y-78829800D01*
G37*
G36*
X113012575Y-77282668D02*
G01*
X113033246Y-77313608D01*
X113069529Y-77320826D01*
X113100473Y-77300151D01*
X113107463Y-77283277D01*
X113109050Y-77282059D01*
X113110898Y-77282824D01*
X113111311Y-77284042D01*
X113111311Y-78776121D01*
X113110311Y-78777853D01*
X113108311Y-78777853D01*
X113107648Y-78777232D01*
X113086977Y-78746292D01*
X113050694Y-78739074D01*
X113019750Y-78759749D01*
X113012760Y-78776623D01*
X113011173Y-78777841D01*
X113009325Y-78777076D01*
X113008912Y-78775858D01*
X113008912Y-77283779D01*
X113009912Y-77282047D01*
X113011912Y-77282047D01*
X113012575Y-77282668D01*
G37*
M02*
