G04 #@! TF.GenerationSoftware,KiCad,Pcbnew,(6.0.11)*
G04 #@! TF.CreationDate,2023-05-05T12:53:29-03:00*
G04 #@! TF.ProjectId,HappyFeet,48617070-7946-4656-9574-2e6b69636164,V0.7*
G04 #@! TF.SameCoordinates,Original*
G04 #@! TF.FileFunction,Paste,Top*
G04 #@! TF.FilePolarity,Positive*
%FSLAX46Y46*%
G04 Gerber Fmt 4.6, Leading zero omitted, Abs format (unit mm)*
G04 Created by KiCad (PCBNEW (6.0.11)) date 2023-05-05 12:53:29*
%MOMM*%
%LPD*%
G01*
G04 APERTURE LIST*
G04 Aperture macros list*
%AMRoundRect*
0 Rectangle with rounded corners*
0 $1 Rounding radius*
0 $2 $3 $4 $5 $6 $7 $8 $9 X,Y pos of 4 corners*
0 Add a 4 corners polygon primitive as box body*
4,1,4,$2,$3,$4,$5,$6,$7,$8,$9,$2,$3,0*
0 Add four circle primitives for the rounded corners*
1,1,$1+$1,$2,$3*
1,1,$1+$1,$4,$5*
1,1,$1+$1,$6,$7*
1,1,$1+$1,$8,$9*
0 Add four rect primitives between the rounded corners*
20,1,$1+$1,$2,$3,$4,$5,0*
20,1,$1+$1,$4,$5,$6,$7,0*
20,1,$1+$1,$6,$7,$8,$9,0*
20,1,$1+$1,$8,$9,$2,$3,0*%
G04 Aperture macros list end*
%ADD10RoundRect,0.147500X0.147500X0.172500X-0.147500X0.172500X-0.147500X-0.172500X0.147500X-0.172500X0*%
%ADD11RoundRect,0.147500X-0.147500X-0.172500X0.147500X-0.172500X0.147500X0.172500X-0.147500X0.172500X0*%
%ADD12RoundRect,0.147500X-0.172500X0.147500X-0.172500X-0.147500X0.172500X-0.147500X0.172500X0.147500X0*%
%ADD13RoundRect,0.147500X0.172500X-0.147500X0.172500X0.147500X-0.172500X0.147500X-0.172500X-0.147500X0*%
%ADD14R,1.549400X0.660400*%
%ADD15R,1.905000X1.295400*%
%ADD16R,0.990600X0.889000*%
%ADD17R,0.558800X1.701800*%
%ADD18R,1.060000X0.650000*%
%ADD19RoundRect,0.218750X0.256250X-0.218750X0.256250X0.218750X-0.256250X0.218750X-0.256250X-0.218750X0*%
%ADD20RoundRect,0.218750X0.218750X0.256250X-0.218750X0.256250X-0.218750X-0.256250X0.218750X-0.256250X0*%
%ADD21R,0.279400X0.304800*%
%ADD22R,0.304800X0.279400*%
%ADD23R,1.383000X1.383000*%
%ADD24R,0.889000X0.609600*%
%ADD25R,0.609600X0.889000*%
%ADD26R,0.889000X0.812800*%
%ADD27R,1.371600X0.457200*%
%ADD28R,2.108200X1.473200*%
%ADD29R,1.905000X1.371600*%
%ADD30R,2.790000X0.740000*%
G04 APERTURE END LIST*
D10*
G04 #@! TO.C,C3*
X103855000Y-78070000D03*
X102885000Y-78070000D03*
G04 #@! TD*
D11*
G04 #@! TO.C,C15*
X104635000Y-82620000D03*
X105605000Y-82620000D03*
G04 #@! TD*
D12*
G04 #@! TO.C,C18*
X112000000Y-89515000D03*
X112000000Y-90485000D03*
G04 #@! TD*
D13*
G04 #@! TO.C,C19*
X112000000Y-87985000D03*
X112000000Y-87015000D03*
G04 #@! TD*
D11*
G04 #@! TO.C,C22*
X116015000Y-86000000D03*
X116985000Y-86000000D03*
G04 #@! TD*
G04 #@! TO.C,C26*
X116015000Y-87500000D03*
X116985000Y-87500000D03*
G04 #@! TD*
D14*
G04 #@! TO.C,J3*
X119401500Y-92249999D03*
X119401500Y-91250001D03*
D15*
X123276501Y-89950001D03*
X123276501Y-93549999D03*
G04 #@! TD*
D13*
G04 #@! TO.C,R1*
X113000000Y-72985000D03*
X113000000Y-72015000D03*
G04 #@! TD*
D10*
G04 #@! TO.C,R3*
X105485000Y-83750000D03*
X104515000Y-83750000D03*
G04 #@! TD*
D16*
G04 #@! TO.C,SW1*
X102980001Y-79450002D03*
X101379999Y-79450002D03*
X102980001Y-83549998D03*
X101379999Y-83549998D03*
D17*
X100754999Y-81500000D03*
G04 #@! TD*
D18*
G04 #@! TO.C,U4*
X116100000Y-91450000D03*
X116100000Y-90500000D03*
X116100000Y-89550000D03*
X113900000Y-89550000D03*
X113900000Y-91450000D03*
G04 #@! TD*
D12*
G04 #@! TO.C,C24*
X114610000Y-86045000D03*
X114610000Y-87015000D03*
G04 #@! TD*
D19*
G04 #@! TO.C,D1*
X114500000Y-72787500D03*
X114500000Y-71212500D03*
G04 #@! TD*
D20*
G04 #@! TO.C,D3*
X116287500Y-93500000D03*
X114712500Y-93500000D03*
G04 #@! TD*
D13*
G04 #@! TO.C,R7*
X110250000Y-93485000D03*
X110250000Y-92515000D03*
G04 #@! TD*
D11*
G04 #@! TO.C,R6*
X112015000Y-93500000D03*
X112985000Y-93500000D03*
G04 #@! TD*
D18*
G04 #@! TO.C,U5*
X121400000Y-88050000D03*
X121400000Y-87100000D03*
X121400000Y-86150000D03*
X119200000Y-86150000D03*
X119200000Y-88050000D03*
G04 #@! TD*
D21*
G04 #@! TO.C,U2*
X105049999Y-80325500D03*
X105550000Y-80325500D03*
X106050000Y-80325500D03*
X106550001Y-80325500D03*
D22*
X106625500Y-79750000D03*
X106625500Y-79250000D03*
D21*
X106550001Y-78674500D03*
X106050000Y-78674500D03*
X105550000Y-78674500D03*
X105049999Y-78674500D03*
D22*
X104974500Y-79250000D03*
X104974500Y-79750000D03*
G04 #@! TD*
D13*
G04 #@! TO.C,C23*
X117500000Y-90235000D03*
X117500000Y-89265000D03*
G04 #@! TD*
D23*
G04 #@! TO.C,U1*
X113910022Y-79730000D03*
X113906212Y-78029900D03*
X112204412Y-79731700D03*
X112191712Y-78030000D03*
D24*
X118835118Y-74415000D03*
X117685117Y-74415000D03*
X116535117Y-74415000D03*
X115385117Y-74415000D03*
X114235117Y-74415000D03*
X113085116Y-74415000D03*
X111935116Y-74415000D03*
X110785116Y-74415000D03*
X109635116Y-74415000D03*
D25*
X108535512Y-76015009D03*
X108535512Y-77165010D03*
X108535512Y-78315010D03*
X108535512Y-79465010D03*
X108535512Y-80615010D03*
X108535512Y-81765011D03*
X108535512Y-82915011D03*
D24*
X109635116Y-84515000D03*
X110785116Y-84515000D03*
X111935116Y-84515000D03*
X113085116Y-84515000D03*
X114235117Y-84515000D03*
X115385117Y-84515000D03*
X116535117Y-84515000D03*
X117685117Y-84515000D03*
X118835118Y-84515000D03*
G04 #@! TD*
D13*
G04 #@! TO.C,R4*
X107200000Y-85085000D03*
X107200000Y-84115000D03*
G04 #@! TD*
G04 #@! TO.C,R8*
X107200000Y-83185000D03*
X107200000Y-82215000D03*
G04 #@! TD*
G04 #@! TO.C,R5*
X106900000Y-87755000D03*
X106900000Y-86785000D03*
G04 #@! TD*
D26*
G04 #@! TO.C,Z1*
X110154999Y-90064999D03*
X110154999Y-88015001D03*
X108265000Y-89040000D03*
G04 #@! TD*
D27*
G04 #@! TO.C,J1*
X104136394Y-90970000D03*
X104136394Y-90319999D03*
X104136394Y-89670000D03*
X104136394Y-89020001D03*
X104136394Y-88370000D03*
D28*
X103768100Y-87207501D03*
X103768100Y-92132499D03*
D29*
X101472300Y-88732500D03*
X101472300Y-90607500D03*
G04 #@! TD*
D30*
G04 #@! TO.C,J2*
X101750000Y-71364000D03*
X105820000Y-71364000D03*
X101750000Y-72634000D03*
X105820000Y-72634000D03*
X101750000Y-73904000D03*
X105820000Y-73904000D03*
X101750000Y-75174000D03*
X105820000Y-75174000D03*
X101750000Y-76444000D03*
X105820000Y-76444000D03*
G04 #@! TD*
M02*
