%TF.GenerationSoftware,KiCad,Pcbnew,(6.0.11)*%
%TF.CreationDate,2023-05-05T12:53:34-03:00*%
%TF.ProjectId,HappyFeet,48617070-7946-4656-9574-2e6b69636164,V0.7*%
%TF.SameCoordinates,Original*%
%TF.FileFunction,Drillmap*%
%TF.FilePolarity,Positive*%
%FSLAX45Y45*%
G04 Gerber Fmt 4.5, Leading zero omitted, Abs format (unit mm)*
G04 Created by KiCad (PCBNEW (6.0.11)) date 2023-05-05 12:53:34*
%MOMM*%
%LPD*%
G01*
G04 APERTURE LIST*
%ADD10C,0.100000*%
%ADD11C,0.200000*%
%ADD12C,0.080000*%
G04 APERTURE END LIST*
D10*
X12500000Y-9500000D02*
X10000000Y-9500000D01*
X12500000Y-7000000D02*
X12500000Y-9500000D01*
X10000000Y-7000000D02*
X10000000Y-9500000D01*
X10000000Y-7000000D02*
X12500000Y-7000000D01*
D11*
D12*
X10010000Y-8689500D02*
X10090000Y-8769500D01*
X10090000Y-8689500D02*
X10010000Y-8769500D01*
D11*
X10170000Y-8689500D02*
X9930000Y-8689500D01*
X10170000Y-8769500D02*
X9930000Y-8769500D01*
X9930000Y-8689500D02*
G75*
G03*
X9930000Y-8769500I0J-40000D01*
G01*
X10170000Y-8769500D02*
G75*
G03*
X10170000Y-8689500I0J40000D01*
G01*
D12*
X10010000Y-9164500D02*
X10090000Y-9244500D01*
X10090000Y-9164500D02*
X10010000Y-9244500D01*
D11*
X10170000Y-9164500D02*
X9930000Y-9164500D01*
X10170000Y-9244500D02*
X9930000Y-9244500D01*
X9930000Y-9164500D02*
G75*
G03*
X9930000Y-9244500I0J-40000D01*
G01*
X10170000Y-9244500D02*
G75*
G03*
X10170000Y-9164500I0J40000D01*
G01*
X10252619Y-9815476D02*
X10252619Y-9615476D01*
X10300238Y-9615476D01*
X10328810Y-9625000D01*
X10347857Y-9644048D01*
X10357381Y-9663095D01*
X10366905Y-9701190D01*
X10366905Y-9729762D01*
X10357381Y-9767857D01*
X10347857Y-9786905D01*
X10328810Y-9805952D01*
X10300238Y-9815476D01*
X10252619Y-9815476D01*
X10452619Y-9815476D02*
X10452619Y-9682143D01*
X10452619Y-9720238D02*
X10462143Y-9701190D01*
X10471667Y-9691667D01*
X10490714Y-9682143D01*
X10509762Y-9682143D01*
X10576429Y-9815476D02*
X10576429Y-9682143D01*
X10576429Y-9615476D02*
X10566905Y-9625000D01*
X10576429Y-9634524D01*
X10585952Y-9625000D01*
X10576429Y-9615476D01*
X10576429Y-9634524D01*
X10700238Y-9815476D02*
X10681190Y-9805952D01*
X10671667Y-9786905D01*
X10671667Y-9615476D01*
X10805000Y-9815476D02*
X10785952Y-9805952D01*
X10776429Y-9786905D01*
X10776429Y-9615476D01*
X11033571Y-9815476D02*
X11033571Y-9615476D01*
X11100238Y-9758333D01*
X11166905Y-9615476D01*
X11166905Y-9815476D01*
X11347857Y-9815476D02*
X11347857Y-9710714D01*
X11338333Y-9691667D01*
X11319286Y-9682143D01*
X11281190Y-9682143D01*
X11262143Y-9691667D01*
X11347857Y-9805952D02*
X11328809Y-9815476D01*
X11281190Y-9815476D01*
X11262143Y-9805952D01*
X11252619Y-9786905D01*
X11252619Y-9767857D01*
X11262143Y-9748810D01*
X11281190Y-9739286D01*
X11328809Y-9739286D01*
X11347857Y-9729762D01*
X11443095Y-9682143D02*
X11443095Y-9882143D01*
X11443095Y-9691667D02*
X11462143Y-9682143D01*
X11500238Y-9682143D01*
X11519286Y-9691667D01*
X11528809Y-9701190D01*
X11538333Y-9720238D01*
X11538333Y-9777381D01*
X11528809Y-9796429D01*
X11519286Y-9805952D01*
X11500238Y-9815476D01*
X11462143Y-9815476D01*
X11443095Y-9805952D01*
X11624048Y-9796429D02*
X11633571Y-9805952D01*
X11624048Y-9815476D01*
X11614524Y-9805952D01*
X11624048Y-9796429D01*
X11624048Y-9815476D01*
X11624048Y-9691667D02*
X11633571Y-9701190D01*
X11624048Y-9710714D01*
X11614524Y-9701190D01*
X11624048Y-9691667D01*
X11624048Y-9710714D01*
D12*
X9915000Y-10105000D02*
X9995000Y-10185000D01*
X9995000Y-10105000D02*
X9915000Y-10185000D01*
D11*
X10290714Y-10035476D02*
X10309762Y-10035476D01*
X10328810Y-10045000D01*
X10338333Y-10054524D01*
X10347857Y-10073571D01*
X10357381Y-10111667D01*
X10357381Y-10159286D01*
X10347857Y-10197381D01*
X10338333Y-10216429D01*
X10328810Y-10225952D01*
X10309762Y-10235476D01*
X10290714Y-10235476D01*
X10271667Y-10225952D01*
X10262143Y-10216429D01*
X10252619Y-10197381D01*
X10243095Y-10159286D01*
X10243095Y-10111667D01*
X10252619Y-10073571D01*
X10262143Y-10054524D01*
X10271667Y-10045000D01*
X10290714Y-10035476D01*
X10443095Y-10216429D02*
X10452619Y-10225952D01*
X10443095Y-10235476D01*
X10433571Y-10225952D01*
X10443095Y-10216429D01*
X10443095Y-10235476D01*
X10566905Y-10121190D02*
X10547857Y-10111667D01*
X10538333Y-10102143D01*
X10528810Y-10083095D01*
X10528810Y-10073571D01*
X10538333Y-10054524D01*
X10547857Y-10045000D01*
X10566905Y-10035476D01*
X10605000Y-10035476D01*
X10624048Y-10045000D01*
X10633571Y-10054524D01*
X10643095Y-10073571D01*
X10643095Y-10083095D01*
X10633571Y-10102143D01*
X10624048Y-10111667D01*
X10605000Y-10121190D01*
X10566905Y-10121190D01*
X10547857Y-10130714D01*
X10538333Y-10140238D01*
X10528810Y-10159286D01*
X10528810Y-10197381D01*
X10538333Y-10216429D01*
X10547857Y-10225952D01*
X10566905Y-10235476D01*
X10605000Y-10235476D01*
X10624048Y-10225952D01*
X10633571Y-10216429D01*
X10643095Y-10197381D01*
X10643095Y-10159286D01*
X10633571Y-10140238D01*
X10624048Y-10130714D01*
X10605000Y-10121190D01*
X10766905Y-10035476D02*
X10785952Y-10035476D01*
X10805000Y-10045000D01*
X10814524Y-10054524D01*
X10824048Y-10073571D01*
X10833571Y-10111667D01*
X10833571Y-10159286D01*
X10824048Y-10197381D01*
X10814524Y-10216429D01*
X10805000Y-10225952D01*
X10785952Y-10235476D01*
X10766905Y-10235476D01*
X10747857Y-10225952D01*
X10738333Y-10216429D01*
X10728810Y-10197381D01*
X10719286Y-10159286D01*
X10719286Y-10111667D01*
X10728810Y-10073571D01*
X10738333Y-10054524D01*
X10747857Y-10045000D01*
X10766905Y-10035476D01*
X10957381Y-10035476D02*
X10976429Y-10035476D01*
X10995476Y-10045000D01*
X11005000Y-10054524D01*
X11014524Y-10073571D01*
X11024048Y-10111667D01*
X11024048Y-10159286D01*
X11014524Y-10197381D01*
X11005000Y-10216429D01*
X10995476Y-10225952D01*
X10976429Y-10235476D01*
X10957381Y-10235476D01*
X10938333Y-10225952D01*
X10928810Y-10216429D01*
X10919286Y-10197381D01*
X10909762Y-10159286D01*
X10909762Y-10111667D01*
X10919286Y-10073571D01*
X10928810Y-10054524D01*
X10938333Y-10045000D01*
X10957381Y-10035476D01*
X11109762Y-10235476D02*
X11109762Y-10102143D01*
X11109762Y-10121190D02*
X11119286Y-10111667D01*
X11138333Y-10102143D01*
X11166905Y-10102143D01*
X11185952Y-10111667D01*
X11195476Y-10130714D01*
X11195476Y-10235476D01*
X11195476Y-10130714D02*
X11205000Y-10111667D01*
X11224048Y-10102143D01*
X11252619Y-10102143D01*
X11271667Y-10111667D01*
X11281190Y-10130714D01*
X11281190Y-10235476D01*
X11376428Y-10235476D02*
X11376428Y-10102143D01*
X11376428Y-10121190D02*
X11385952Y-10111667D01*
X11405000Y-10102143D01*
X11433571Y-10102143D01*
X11452619Y-10111667D01*
X11462143Y-10130714D01*
X11462143Y-10235476D01*
X11462143Y-10130714D02*
X11471667Y-10111667D01*
X11490714Y-10102143D01*
X11519286Y-10102143D01*
X11538333Y-10111667D01*
X11547857Y-10130714D01*
X11547857Y-10235476D01*
X11938333Y-10025952D02*
X11766905Y-10283095D01*
X12195476Y-10035476D02*
X12214524Y-10035476D01*
X12233571Y-10045000D01*
X12243095Y-10054524D01*
X12252619Y-10073571D01*
X12262143Y-10111667D01*
X12262143Y-10159286D01*
X12252619Y-10197381D01*
X12243095Y-10216429D01*
X12233571Y-10225952D01*
X12214524Y-10235476D01*
X12195476Y-10235476D01*
X12176428Y-10225952D01*
X12166905Y-10216429D01*
X12157381Y-10197381D01*
X12147857Y-10159286D01*
X12147857Y-10111667D01*
X12157381Y-10073571D01*
X12166905Y-10054524D01*
X12176428Y-10045000D01*
X12195476Y-10035476D01*
X12347857Y-10216429D02*
X12357381Y-10225952D01*
X12347857Y-10235476D01*
X12338333Y-10225952D01*
X12347857Y-10216429D01*
X12347857Y-10235476D01*
X12481190Y-10035476D02*
X12500238Y-10035476D01*
X12519286Y-10045000D01*
X12528809Y-10054524D01*
X12538333Y-10073571D01*
X12547857Y-10111667D01*
X12547857Y-10159286D01*
X12538333Y-10197381D01*
X12528809Y-10216429D01*
X12519286Y-10225952D01*
X12500238Y-10235476D01*
X12481190Y-10235476D01*
X12462143Y-10225952D01*
X12452619Y-10216429D01*
X12443095Y-10197381D01*
X12433571Y-10159286D01*
X12433571Y-10111667D01*
X12443095Y-10073571D01*
X12452619Y-10054524D01*
X12462143Y-10045000D01*
X12481190Y-10035476D01*
X12614524Y-10035476D02*
X12738333Y-10035476D01*
X12671667Y-10111667D01*
X12700238Y-10111667D01*
X12719286Y-10121190D01*
X12728809Y-10130714D01*
X12738333Y-10149762D01*
X12738333Y-10197381D01*
X12728809Y-10216429D01*
X12719286Y-10225952D01*
X12700238Y-10235476D01*
X12643095Y-10235476D01*
X12624048Y-10225952D01*
X12614524Y-10216429D01*
X12928809Y-10235476D02*
X12814524Y-10235476D01*
X12871667Y-10235476D02*
X12871667Y-10035476D01*
X12852619Y-10064048D01*
X12833571Y-10083095D01*
X12814524Y-10092619D01*
X13109762Y-10035476D02*
X13014524Y-10035476D01*
X13005000Y-10130714D01*
X13014524Y-10121190D01*
X13033571Y-10111667D01*
X13081190Y-10111667D01*
X13100238Y-10121190D01*
X13109762Y-10130714D01*
X13119286Y-10149762D01*
X13119286Y-10197381D01*
X13109762Y-10216429D01*
X13100238Y-10225952D01*
X13081190Y-10235476D01*
X13033571Y-10235476D01*
X13014524Y-10225952D01*
X13005000Y-10216429D01*
X13195476Y-10035476D02*
X13195476Y-10073571D01*
X13271667Y-10035476D02*
X13271667Y-10073571D01*
X13566905Y-10311667D02*
X13557381Y-10302143D01*
X13538333Y-10273571D01*
X13528809Y-10254524D01*
X13519286Y-10225952D01*
X13509762Y-10178333D01*
X13509762Y-10140238D01*
X13519286Y-10092619D01*
X13528809Y-10064048D01*
X13538333Y-10045000D01*
X13557381Y-10016429D01*
X13566905Y-10006905D01*
X13681190Y-10035476D02*
X13700238Y-10035476D01*
X13719286Y-10045000D01*
X13728809Y-10054524D01*
X13738333Y-10073571D01*
X13747857Y-10111667D01*
X13747857Y-10159286D01*
X13738333Y-10197381D01*
X13728809Y-10216429D01*
X13719286Y-10225952D01*
X13700238Y-10235476D01*
X13681190Y-10235476D01*
X13662143Y-10225952D01*
X13652619Y-10216429D01*
X13643095Y-10197381D01*
X13633571Y-10159286D01*
X13633571Y-10111667D01*
X13643095Y-10073571D01*
X13652619Y-10054524D01*
X13662143Y-10045000D01*
X13681190Y-10035476D01*
X13985952Y-10235476D02*
X13985952Y-10035476D01*
X14071667Y-10235476D02*
X14071667Y-10130714D01*
X14062143Y-10111667D01*
X14043095Y-10102143D01*
X14014524Y-10102143D01*
X13995476Y-10111667D01*
X13985952Y-10121190D01*
X14195476Y-10235476D02*
X14176428Y-10225952D01*
X14166905Y-10216429D01*
X14157381Y-10197381D01*
X14157381Y-10140238D01*
X14166905Y-10121190D01*
X14176428Y-10111667D01*
X14195476Y-10102143D01*
X14224048Y-10102143D01*
X14243095Y-10111667D01*
X14252619Y-10121190D01*
X14262143Y-10140238D01*
X14262143Y-10197381D01*
X14252619Y-10216429D01*
X14243095Y-10225952D01*
X14224048Y-10235476D01*
X14195476Y-10235476D01*
X14376428Y-10235476D02*
X14357381Y-10225952D01*
X14347857Y-10206905D01*
X14347857Y-10035476D01*
X14528809Y-10225952D02*
X14509762Y-10235476D01*
X14471667Y-10235476D01*
X14452619Y-10225952D01*
X14443095Y-10206905D01*
X14443095Y-10130714D01*
X14452619Y-10111667D01*
X14471667Y-10102143D01*
X14509762Y-10102143D01*
X14528809Y-10111667D01*
X14538333Y-10130714D01*
X14538333Y-10149762D01*
X14443095Y-10168810D01*
X14614524Y-10225952D02*
X14633571Y-10235476D01*
X14671667Y-10235476D01*
X14690714Y-10225952D01*
X14700238Y-10206905D01*
X14700238Y-10197381D01*
X14690714Y-10178333D01*
X14671667Y-10168810D01*
X14643095Y-10168810D01*
X14624048Y-10159286D01*
X14614524Y-10140238D01*
X14614524Y-10130714D01*
X14624048Y-10111667D01*
X14643095Y-10102143D01*
X14671667Y-10102143D01*
X14690714Y-10111667D01*
X14938333Y-10159286D02*
X15090714Y-10159286D01*
X15014524Y-10235476D02*
X15014524Y-10083095D01*
X15328809Y-10054524D02*
X15338333Y-10045000D01*
X15357381Y-10035476D01*
X15405000Y-10035476D01*
X15424048Y-10045000D01*
X15433571Y-10054524D01*
X15443095Y-10073571D01*
X15443095Y-10092619D01*
X15433571Y-10121190D01*
X15319286Y-10235476D01*
X15443095Y-10235476D01*
X15671667Y-10225952D02*
X15690714Y-10235476D01*
X15728809Y-10235476D01*
X15747857Y-10225952D01*
X15757381Y-10206905D01*
X15757381Y-10197381D01*
X15747857Y-10178333D01*
X15728809Y-10168810D01*
X15700238Y-10168810D01*
X15681190Y-10159286D01*
X15671667Y-10140238D01*
X15671667Y-10130714D01*
X15681190Y-10111667D01*
X15700238Y-10102143D01*
X15728809Y-10102143D01*
X15747857Y-10111667D01*
X15871667Y-10235476D02*
X15852619Y-10225952D01*
X15843095Y-10206905D01*
X15843095Y-10035476D01*
X15976428Y-10235476D02*
X15957381Y-10225952D01*
X15947857Y-10216429D01*
X15938333Y-10197381D01*
X15938333Y-10140238D01*
X15947857Y-10121190D01*
X15957381Y-10111667D01*
X15976428Y-10102143D01*
X16005000Y-10102143D01*
X16024048Y-10111667D01*
X16033571Y-10121190D01*
X16043095Y-10140238D01*
X16043095Y-10197381D01*
X16033571Y-10216429D01*
X16024048Y-10225952D01*
X16005000Y-10235476D01*
X15976428Y-10235476D01*
X16100238Y-10102143D02*
X16176428Y-10102143D01*
X16128809Y-10035476D02*
X16128809Y-10206905D01*
X16138333Y-10225952D01*
X16157381Y-10235476D01*
X16176428Y-10235476D01*
X16233571Y-10225952D02*
X16252619Y-10235476D01*
X16290714Y-10235476D01*
X16309762Y-10225952D01*
X16319286Y-10206905D01*
X16319286Y-10197381D01*
X16309762Y-10178333D01*
X16290714Y-10168810D01*
X16262143Y-10168810D01*
X16243095Y-10159286D01*
X16233571Y-10140238D01*
X16233571Y-10130714D01*
X16243095Y-10111667D01*
X16262143Y-10102143D01*
X16290714Y-10102143D01*
X16309762Y-10111667D01*
X16385952Y-10311667D02*
X16395476Y-10302143D01*
X16414524Y-10273571D01*
X16424048Y-10254524D01*
X16433571Y-10225952D01*
X16443095Y-10178333D01*
X16443095Y-10140238D01*
X16433571Y-10092619D01*
X16424048Y-10064048D01*
X16414524Y-10045000D01*
X16395476Y-10016429D01*
X16385952Y-10006905D01*
X16747857Y-10311667D02*
X16738333Y-10302143D01*
X16719286Y-10273571D01*
X16709762Y-10254524D01*
X16700238Y-10225952D01*
X16690714Y-10178333D01*
X16690714Y-10140238D01*
X16700238Y-10092619D01*
X16709762Y-10064048D01*
X16719286Y-10045000D01*
X16738333Y-10016429D01*
X16747857Y-10006905D01*
X16824048Y-10102143D02*
X16824048Y-10235476D01*
X16824048Y-10121190D02*
X16833571Y-10111667D01*
X16852619Y-10102143D01*
X16881190Y-10102143D01*
X16900238Y-10111667D01*
X16909762Y-10130714D01*
X16909762Y-10235476D01*
X17033571Y-10235476D02*
X17014524Y-10225952D01*
X17005000Y-10216429D01*
X16995476Y-10197381D01*
X16995476Y-10140238D01*
X17005000Y-10121190D01*
X17014524Y-10111667D01*
X17033571Y-10102143D01*
X17062143Y-10102143D01*
X17081190Y-10111667D01*
X17090714Y-10121190D01*
X17100238Y-10140238D01*
X17100238Y-10197381D01*
X17090714Y-10216429D01*
X17081190Y-10225952D01*
X17062143Y-10235476D01*
X17033571Y-10235476D01*
X17157381Y-10102143D02*
X17233571Y-10102143D01*
X17185952Y-10035476D02*
X17185952Y-10206905D01*
X17195476Y-10225952D01*
X17214524Y-10235476D01*
X17233571Y-10235476D01*
X17452619Y-10102143D02*
X17452619Y-10302143D01*
X17452619Y-10111667D02*
X17471667Y-10102143D01*
X17509762Y-10102143D01*
X17528810Y-10111667D01*
X17538333Y-10121190D01*
X17547857Y-10140238D01*
X17547857Y-10197381D01*
X17538333Y-10216429D01*
X17528810Y-10225952D01*
X17509762Y-10235476D01*
X17471667Y-10235476D01*
X17452619Y-10225952D01*
X17662143Y-10235476D02*
X17643095Y-10225952D01*
X17633571Y-10206905D01*
X17633571Y-10035476D01*
X17824048Y-10235476D02*
X17824048Y-10130714D01*
X17814524Y-10111667D01*
X17795476Y-10102143D01*
X17757381Y-10102143D01*
X17738333Y-10111667D01*
X17824048Y-10225952D02*
X17805000Y-10235476D01*
X17757381Y-10235476D01*
X17738333Y-10225952D01*
X17728810Y-10206905D01*
X17728810Y-10187857D01*
X17738333Y-10168810D01*
X17757381Y-10159286D01*
X17805000Y-10159286D01*
X17824048Y-10149762D01*
X17890714Y-10102143D02*
X17966905Y-10102143D01*
X17919286Y-10035476D02*
X17919286Y-10206905D01*
X17928810Y-10225952D01*
X17947857Y-10235476D01*
X17966905Y-10235476D01*
X18109762Y-10225952D02*
X18090714Y-10235476D01*
X18052619Y-10235476D01*
X18033571Y-10225952D01*
X18024048Y-10206905D01*
X18024048Y-10130714D01*
X18033571Y-10111667D01*
X18052619Y-10102143D01*
X18090714Y-10102143D01*
X18109762Y-10111667D01*
X18119286Y-10130714D01*
X18119286Y-10149762D01*
X18024048Y-10168810D01*
X18290714Y-10235476D02*
X18290714Y-10035476D01*
X18290714Y-10225952D02*
X18271667Y-10235476D01*
X18233571Y-10235476D01*
X18214524Y-10225952D01*
X18205000Y-10216429D01*
X18195476Y-10197381D01*
X18195476Y-10140238D01*
X18205000Y-10121190D01*
X18214524Y-10111667D01*
X18233571Y-10102143D01*
X18271667Y-10102143D01*
X18290714Y-10111667D01*
X18366905Y-10311667D02*
X18376429Y-10302143D01*
X18395476Y-10273571D01*
X18405000Y-10254524D01*
X18414524Y-10225952D01*
X18424048Y-10178333D01*
X18424048Y-10140238D01*
X18414524Y-10092619D01*
X18405000Y-10064048D01*
X18395476Y-10045000D01*
X18376429Y-10016429D01*
X18366905Y-10006905D01*
M02*
