G04 #@! TF.GenerationSoftware,KiCad,Pcbnew,(6.0.11)*
G04 #@! TF.CreationDate,2023-05-05T12:53:29-03:00*
G04 #@! TF.ProjectId,HappyFeet,48617070-7946-4656-9574-2e6b69636164,V0.7*
G04 #@! TF.SameCoordinates,Original*
G04 #@! TF.FileFunction,Copper,L1,Top*
G04 #@! TF.FilePolarity,Positive*
%FSLAX46Y46*%
G04 Gerber Fmt 4.6, Leading zero omitted, Abs format (unit mm)*
G04 Created by KiCad (PCBNEW (6.0.11)) date 2023-05-05 12:53:29*
%MOMM*%
%LPD*%
G01*
G04 APERTURE LIST*
G04 Aperture macros list*
%AMRoundRect*
0 Rectangle with rounded corners*
0 $1 Rounding radius*
0 $2 $3 $4 $5 $6 $7 $8 $9 X,Y pos of 4 corners*
0 Add a 4 corners polygon primitive as box body*
4,1,4,$2,$3,$4,$5,$6,$7,$8,$9,$2,$3,0*
0 Add four circle primitives for the rounded corners*
1,1,$1+$1,$2,$3*
1,1,$1+$1,$4,$5*
1,1,$1+$1,$6,$7*
1,1,$1+$1,$8,$9*
0 Add four rect primitives between the rounded corners*
20,1,$1+$1,$2,$3,$4,$5,0*
20,1,$1+$1,$4,$5,$6,$7,0*
20,1,$1+$1,$6,$7,$8,$9,0*
20,1,$1+$1,$8,$9,$2,$3,0*%
G04 Aperture macros list end*
G04 #@! TA.AperFunction,SMDPad,CuDef*
%ADD10RoundRect,0.147500X0.147500X0.172500X-0.147500X0.172500X-0.147500X-0.172500X0.147500X-0.172500X0*%
G04 #@! TD*
G04 #@! TA.AperFunction,SMDPad,CuDef*
%ADD11RoundRect,0.147500X-0.147500X-0.172500X0.147500X-0.172500X0.147500X0.172500X-0.147500X0.172500X0*%
G04 #@! TD*
G04 #@! TA.AperFunction,SMDPad,CuDef*
%ADD12RoundRect,0.147500X-0.172500X0.147500X-0.172500X-0.147500X0.172500X-0.147500X0.172500X0.147500X0*%
G04 #@! TD*
G04 #@! TA.AperFunction,SMDPad,CuDef*
%ADD13RoundRect,0.147500X0.172500X-0.147500X0.172500X0.147500X-0.172500X0.147500X-0.172500X-0.147500X0*%
G04 #@! TD*
G04 #@! TA.AperFunction,SMDPad,CuDef*
%ADD14R,1.549400X0.660400*%
G04 #@! TD*
G04 #@! TA.AperFunction,SMDPad,CuDef*
%ADD15R,1.905000X1.295400*%
G04 #@! TD*
G04 #@! TA.AperFunction,SMDPad,CuDef*
%ADD16R,0.990600X0.889000*%
G04 #@! TD*
G04 #@! TA.AperFunction,SMDPad,CuDef*
%ADD17R,0.558800X1.701800*%
G04 #@! TD*
G04 #@! TA.AperFunction,SMDPad,CuDef*
%ADD18R,1.060000X0.650000*%
G04 #@! TD*
G04 #@! TA.AperFunction,SMDPad,CuDef*
%ADD19C,1.000000*%
G04 #@! TD*
G04 #@! TA.AperFunction,SMDPad,CuDef*
%ADD20RoundRect,0.218750X0.256250X-0.218750X0.256250X0.218750X-0.256250X0.218750X-0.256250X-0.218750X0*%
G04 #@! TD*
G04 #@! TA.AperFunction,SMDPad,CuDef*
%ADD21RoundRect,0.218750X0.218750X0.256250X-0.218750X0.256250X-0.218750X-0.256250X0.218750X-0.256250X0*%
G04 #@! TD*
G04 #@! TA.AperFunction,SMDPad,CuDef*
%ADD22R,0.279400X0.304800*%
G04 #@! TD*
G04 #@! TA.AperFunction,SMDPad,CuDef*
%ADD23R,0.304800X0.279400*%
G04 #@! TD*
G04 #@! TA.AperFunction,SMDPad,CuDef*
%ADD24R,0.889000X0.609600*%
G04 #@! TD*
G04 #@! TA.AperFunction,SMDPad,CuDef*
%ADD25R,0.609600X0.889000*%
G04 #@! TD*
G04 #@! TA.AperFunction,SMDPad,CuDef*
%ADD26R,1.500000X1.500000*%
G04 #@! TD*
G04 #@! TA.AperFunction,SMDPad,CuDef*
%ADD27R,0.889000X0.812800*%
G04 #@! TD*
G04 #@! TA.AperFunction,SMDPad,CuDef*
%ADD28R,1.371600X0.457200*%
G04 #@! TD*
G04 #@! TA.AperFunction,SMDPad,CuDef*
%ADD29R,2.108200X1.473200*%
G04 #@! TD*
G04 #@! TA.AperFunction,SMDPad,CuDef*
%ADD30R,1.905000X1.371600*%
G04 #@! TD*
G04 #@! TA.AperFunction,ComponentPad*
%ADD31O,2.108200X1.397000*%
G04 #@! TD*
G04 #@! TA.AperFunction,SMDPad,CuDef*
%ADD32R,2.790000X0.740000*%
G04 #@! TD*
G04 #@! TA.AperFunction,ViaPad*
%ADD33C,0.762000*%
G04 #@! TD*
G04 #@! TA.AperFunction,Conductor*
%ADD34C,0.250000*%
G04 #@! TD*
G04 #@! TA.AperFunction,Conductor*
%ADD35C,0.500000*%
G04 #@! TD*
G04 #@! TA.AperFunction,Conductor*
%ADD36C,1.000000*%
G04 #@! TD*
G04 #@! TA.AperFunction,Conductor*
%ADD37C,0.154000*%
G04 #@! TD*
G04 APERTURE END LIST*
D10*
G04 #@! TO.P,C3,1*
G04 #@! TO.N,+3V3*
X103855000Y-78070000D03*
G04 #@! TO.P,C3,2*
G04 #@! TO.N,GND*
X102885000Y-78070000D03*
G04 #@! TD*
D11*
G04 #@! TO.P,C15,1*
G04 #@! TO.N,GND*
X104635000Y-82620000D03*
G04 #@! TO.P,C15,2*
G04 #@! TO.N,NRST*
X105605000Y-82620000D03*
G04 #@! TD*
D12*
G04 #@! TO.P,C18,1*
G04 #@! TO.N,VBUS*
X112000000Y-89515000D03*
G04 #@! TO.P,C18,2*
G04 #@! TO.N,GND*
X112000000Y-90485000D03*
G04 #@! TD*
D13*
G04 #@! TO.P,C19,1*
G04 #@! TO.N,VBUS*
X112000000Y-87985000D03*
G04 #@! TO.P,C19,2*
G04 #@! TO.N,GND*
X112000000Y-87015000D03*
G04 #@! TD*
D11*
G04 #@! TO.P,C22,1*
G04 #@! TO.N,Net-(C22-Pad1)*
X116015000Y-86000000D03*
G04 #@! TO.P,C22,2*
G04 #@! TO.N,GND*
X116985000Y-86000000D03*
G04 #@! TD*
G04 #@! TO.P,C26,1*
G04 #@! TO.N,+3V3*
X116015000Y-87500000D03*
G04 #@! TO.P,C26,2*
G04 #@! TO.N,GND*
X116985000Y-87500000D03*
G04 #@! TD*
D14*
G04 #@! TO.P,J3,1,1*
G04 #@! TO.N,GND*
X119401500Y-92249999D03*
G04 #@! TO.P,J3,2,2*
G04 #@! TO.N,+BATT*
X119401500Y-91250001D03*
D15*
G04 #@! TO.P,J3,3*
G04 #@! TO.N,N/C*
X123276501Y-89950001D03*
G04 #@! TO.P,J3,4*
X123276501Y-93549999D03*
G04 #@! TD*
D13*
G04 #@! TO.P,R1,1*
G04 #@! TO.N,BLUELED*
X113000000Y-72985000D03*
G04 #@! TO.P,R1,2*
G04 #@! TO.N,Net-(D1-Pad2)*
X113000000Y-72015000D03*
G04 #@! TD*
D10*
G04 #@! TO.P,R3,1*
G04 #@! TO.N,+3V3*
X105485000Y-83750000D03*
G04 #@! TO.P,R3,2*
G04 #@! TO.N,NRST*
X104515000Y-83750000D03*
G04 #@! TD*
D16*
G04 #@! TO.P,SW1,1,1*
G04 #@! TO.N,unconnected-(SW1-Pad1)*
X102980001Y-79450002D03*
G04 #@! TO.P,SW1,2,2*
G04 #@! TO.N,GND*
X101379999Y-79450002D03*
G04 #@! TO.P,SW1,3,3*
G04 #@! TO.N,NRST*
X102980001Y-83549998D03*
G04 #@! TO.P,SW1,4,4*
G04 #@! TO.N,GND*
X101379999Y-83549998D03*
D17*
G04 #@! TO.P,SW1,5,5*
X100754999Y-81500000D03*
G04 #@! TD*
D18*
G04 #@! TO.P,U4,1,STAT*
G04 #@! TO.N,Net-(D3-Pad1)*
X116100000Y-91450000D03*
G04 #@! TO.P,U4,2,VSS*
G04 #@! TO.N,GND*
X116100000Y-90500000D03*
G04 #@! TO.P,U4,3,VBAT*
G04 #@! TO.N,+BATT*
X116100000Y-89550000D03*
G04 #@! TO.P,U4,4,VDD*
G04 #@! TO.N,VBUS*
X113900000Y-89550000D03*
G04 #@! TO.P,U4,5,PROG*
G04 #@! TO.N,Net-(R7-Pad1)*
X113900000Y-91450000D03*
G04 #@! TD*
D12*
G04 #@! TO.P,C24,1*
G04 #@! TO.N,+3V3*
X114610000Y-86045000D03*
G04 #@! TO.P,C24,2*
G04 #@! TO.N,GND*
X114610000Y-87015000D03*
G04 #@! TD*
D19*
G04 #@! TO.P,FID1,*
G04 #@! TO.N,*
X121360000Y-71460000D03*
G04 #@! TD*
D20*
G04 #@! TO.P,D1,1,K*
G04 #@! TO.N,GND*
X114500000Y-72787500D03*
G04 #@! TO.P,D1,2,A*
G04 #@! TO.N,Net-(D1-Pad2)*
X114500000Y-71212500D03*
G04 #@! TD*
D21*
G04 #@! TO.P,D3,1,K*
G04 #@! TO.N,Net-(D3-Pad1)*
X116287500Y-93500000D03*
G04 #@! TO.P,D3,2,A*
G04 #@! TO.N,Net-(D3-Pad2)*
X114712500Y-93500000D03*
G04 #@! TD*
D13*
G04 #@! TO.P,R7,1*
G04 #@! TO.N,Net-(R7-Pad1)*
X110250000Y-93485000D03*
G04 #@! TO.P,R7,2*
G04 #@! TO.N,GND*
X110250000Y-92515000D03*
G04 #@! TD*
D11*
G04 #@! TO.P,R6,1*
G04 #@! TO.N,VBUS*
X112015000Y-93500000D03*
G04 #@! TO.P,R6,2*
G04 #@! TO.N,Net-(D3-Pad2)*
X112985000Y-93500000D03*
G04 #@! TD*
D18*
G04 #@! TO.P,U5,1,VIN*
G04 #@! TO.N,+BATT*
X121400000Y-88050000D03*
G04 #@! TO.P,U5,2,GND*
G04 #@! TO.N,GND*
X121400000Y-87100000D03*
G04 #@! TO.P,U5,3,INH*
G04 #@! TO.N,+BATT*
X121400000Y-86150000D03*
G04 #@! TO.P,U5,4,BYP*
G04 #@! TO.N,Net-(C22-Pad1)*
X119200000Y-86150000D03*
G04 #@! TO.P,U5,5,VOUT*
G04 #@! TO.N,+3V3*
X119200000Y-88050000D03*
G04 #@! TD*
D22*
G04 #@! TO.P,U2,1,SCL/SPC*
G04 #@! TO.N,I2CSCL*
X105049999Y-80325500D03*
G04 #@! TO.P,U2,2,CS*
G04 #@! TO.N,ACCCS*
X105550000Y-80325500D03*
G04 #@! TO.P,U2,3,SDO/SA0*
G04 #@! TO.N,unconnected-(U2-Pad3)*
X106050000Y-80325500D03*
G04 #@! TO.P,U2,4,SDA/SDI/SDO*
G04 #@! TO.N,I2CSDA*
X106550001Y-80325500D03*
D23*
G04 #@! TO.P,U2,5,NC*
G04 #@! TO.N,unconnected-(U2-Pad5)*
X106625500Y-79750000D03*
G04 #@! TO.P,U2,6,GND*
G04 #@! TO.N,GND*
X106625500Y-79250000D03*
D22*
G04 #@! TO.P,U2,7,RES*
X106550001Y-78674500D03*
G04 #@! TO.P,U2,8,GND*
X106050000Y-78674500D03*
G04 #@! TO.P,U2,9,VDD*
G04 #@! TO.N,+3V3*
X105550000Y-78674500D03*
G04 #@! TO.P,U2,10,VDDIO*
X105049999Y-78674500D03*
D23*
G04 #@! TO.P,U2,11,INT2*
G04 #@! TO.N,unconnected-(U2-Pad11)*
X104974500Y-79250000D03*
G04 #@! TO.P,U2,12,INT1*
G04 #@! TO.N,ACCINT*
X104974500Y-79750000D03*
G04 #@! TD*
D13*
G04 #@! TO.P,C23,1*
G04 #@! TO.N,+BATT*
X117500000Y-90235000D03*
G04 #@! TO.P,C23,2*
G04 #@! TO.N,GND*
X117500000Y-89265000D03*
G04 #@! TD*
D24*
G04 #@! TO.P,U1,1,GND*
G04 #@! TO.N,GND*
X118835118Y-74415000D03*
G04 #@! TO.P,U1,2,NC*
G04 #@! TO.N,unconnected-(U1-Pad2)*
X117685117Y-74415000D03*
G04 #@! TO.P,U1,3,GND*
G04 #@! TO.N,GND*
X116535117Y-74415000D03*
G04 #@! TO.P,U1,4,DIO_0*
G04 #@! TO.N,TX*
X115385117Y-74415000D03*
G04 #@! TO.P,U1,5,DIO_1*
G04 #@! TO.N,RX*
X114235117Y-74415000D03*
G04 #@! TO.P,U1,6,DIO_2*
G04 #@! TO.N,BLUELED*
X113085116Y-74415000D03*
G04 #@! TO.P,U1,7,DIO_3*
G04 #@! TO.N,ACCCS*
X111935116Y-74415000D03*
G04 #@! TO.P,U1,8,DIO_4*
G04 #@! TO.N,unconnected-(U1-Pad8)*
X110785116Y-74415000D03*
G04 #@! TO.P,U1,9,JTAG_TMS*
G04 #@! TO.N,JTAG_TMS*
X109635116Y-74415000D03*
D25*
G04 #@! TO.P,U1,10,JTAG_TCK*
G04 #@! TO.N,JTAG_TCK*
X108535512Y-76015009D03*
G04 #@! TO.P,U1,11,DIO_5_JTAG_TDO*
G04 #@! TO.N,unconnected-(U1-Pad11)*
X108535512Y-77165010D03*
G04 #@! TO.P,U1,12,DIO_6_JTAG_TDI*
G04 #@! TO.N,unconnected-(U1-Pad12)*
X108535512Y-78315010D03*
G04 #@! TO.P,U1,13,RESET_N*
G04 #@! TO.N,NRST*
X108535512Y-79465010D03*
G04 #@! TO.P,U1,14,DIO_7*
G04 #@! TO.N,ACCINT*
X108535512Y-80615010D03*
G04 #@! TO.P,U1,15,DIO_8*
G04 #@! TO.N,I2CSDA*
X108535512Y-81765011D03*
G04 #@! TO.P,U1,16,DIO_9*
G04 #@! TO.N,I2CSCL*
X108535512Y-82915011D03*
D24*
G04 #@! TO.P,U1,17,DIO_10*
G04 #@! TO.N,unconnected-(U1-Pad17)*
X109635116Y-84515000D03*
G04 #@! TO.P,U1,18,DIO_11*
G04 #@! TO.N,unconnected-(U1-Pad18)*
X110785116Y-84515000D03*
G04 #@! TO.P,U1,19,DIO_12*
G04 #@! TO.N,unconnected-(U1-Pad19)*
X111935116Y-84515000D03*
G04 #@! TO.P,U1,20,DIO_13*
G04 #@! TO.N,unconnected-(U1-Pad20)*
X113085116Y-84515000D03*
G04 #@! TO.P,U1,21,DIO_14*
G04 #@! TO.N,unconnected-(U1-Pad21)*
X114235117Y-84515000D03*
G04 #@! TO.P,U1,22,VDD*
G04 #@! TO.N,+3V3*
X115385117Y-84515000D03*
G04 #@! TO.P,U1,23,VDD*
X116535117Y-84515000D03*
G04 #@! TO.P,U1,24,NC*
G04 #@! TO.N,unconnected-(U1-Pad24)*
X117685117Y-84515000D03*
G04 #@! TO.P,U1,25,GND*
G04 #@! TO.N,GND*
X118835118Y-84515000D03*
D26*
G04 #@! TO.P,U1,26,EGP*
X113910111Y-78029900D03*
G04 #@! TO.P,U1,27,EGP*
X112210112Y-78030000D03*
G04 #@! TO.P,U1,28,EGP*
X112210000Y-79730000D03*
G04 #@! TO.P,U1,29,EGP*
X113910022Y-79730000D03*
G04 #@! TD*
D13*
G04 #@! TO.P,R4,1*
G04 #@! TO.N,+3V3*
X107200000Y-85085000D03*
G04 #@! TO.P,R4,2*
G04 #@! TO.N,I2CSCL*
X107200000Y-84115000D03*
G04 #@! TD*
G04 #@! TO.P,R8,1*
G04 #@! TO.N,+3V3*
X107200000Y-83185000D03*
G04 #@! TO.P,R8,2*
G04 #@! TO.N,I2CSDA*
X107200000Y-82215000D03*
G04 #@! TD*
D19*
G04 #@! TO.P,FID2,*
G04 #@! TO.N,*
X107400000Y-93470000D03*
G04 #@! TD*
G04 #@! TO.P,TP1,1,1*
G04 #@! TO.N,+3V3*
X108200000Y-86000000D03*
G04 #@! TD*
G04 #@! TO.P,TP2,1,1*
G04 #@! TO.N,GND*
X119500000Y-71350000D03*
G04 #@! TD*
G04 #@! TO.P,TP3,1,1*
G04 #@! TO.N,VBUS*
X107300000Y-90670000D03*
G04 #@! TD*
G04 #@! TO.P,TP4,1,1*
G04 #@! TO.N,TX*
X117700000Y-71310000D03*
G04 #@! TD*
G04 #@! TO.P,TP5,1,1*
G04 #@! TO.N,RX*
X116380000Y-72580000D03*
G04 #@! TD*
D13*
G04 #@! TO.P,R5,1*
G04 #@! TO.N,/SHIELD*
X106900000Y-87755000D03*
G04 #@! TO.P,R5,2*
G04 #@! TO.N,GND*
X106900000Y-86785000D03*
G04 #@! TD*
D27*
G04 #@! TO.P,Z1,1,ANODE*
G04 #@! TO.N,GND*
X110154999Y-90064999D03*
G04 #@! TO.P,Z1,2,NC*
G04 #@! TO.N,unconnected-(Z1-Pad2)*
X110154999Y-88015001D03*
G04 #@! TO.P,Z1,3,CATHODE*
G04 #@! TO.N,VBUS*
X108265000Y-89040000D03*
G04 #@! TD*
D28*
G04 #@! TO.P,J1,1,VBUS*
G04 #@! TO.N,VBUS*
X104136394Y-90970000D03*
G04 #@! TO.P,J1,2,D-*
G04 #@! TO.N,unconnected-(J1-Pad2)*
X104136394Y-90319999D03*
G04 #@! TO.P,J1,3,D+*
G04 #@! TO.N,unconnected-(J1-Pad3)*
X104136394Y-89670000D03*
G04 #@! TO.P,J1,4,ID*
G04 #@! TO.N,unconnected-(J1-Pad4)*
X104136394Y-89020001D03*
G04 #@! TO.P,J1,5,GND*
G04 #@! TO.N,GND*
X104136394Y-88370000D03*
D29*
G04 #@! TO.P,J1,6,Shield*
G04 #@! TO.N,/SHIELD*
X103768100Y-87207501D03*
G04 #@! TO.P,J1,7*
G04 #@! TO.N,N/C*
X103768100Y-92132499D03*
D30*
G04 #@! TO.P,J1,8*
X101472300Y-88732500D03*
G04 #@! TO.P,J1,9*
X101472300Y-90607500D03*
D31*
G04 #@! TO.P,J1,10*
X101468200Y-85720300D03*
G04 #@! TO.P,J1,11*
X101468200Y-93619700D03*
G04 #@! TD*
D32*
G04 #@! TO.P,J2,1*
G04 #@! TO.N,+3V3*
X101750000Y-71364000D03*
G04 #@! TO.P,J2,2*
G04 #@! TO.N,JTAG_TMS*
X105820000Y-71364000D03*
G04 #@! TO.P,J2,3*
G04 #@! TO.N,GND*
X101750000Y-72634000D03*
G04 #@! TO.P,J2,4*
G04 #@! TO.N,JTAG_TCK*
X105820000Y-72634000D03*
G04 #@! TO.P,J2,5*
G04 #@! TO.N,GND*
X101750000Y-73904000D03*
G04 #@! TO.P,J2,6*
G04 #@! TO.N,unconnected-(J2-Pad6)*
X105820000Y-73904000D03*
G04 #@! TO.P,J2,7*
G04 #@! TO.N,unconnected-(J2-Pad7)*
X101750000Y-75174000D03*
G04 #@! TO.P,J2,8*
G04 #@! TO.N,unconnected-(J2-Pad8)*
X105820000Y-75174000D03*
G04 #@! TO.P,J2,9*
G04 #@! TO.N,GND*
X101750000Y-76444000D03*
G04 #@! TO.P,J2,10*
G04 #@! TO.N,NRST*
X105820000Y-76444000D03*
G04 #@! TD*
D33*
G04 #@! TO.N,GND*
X110230000Y-80000000D03*
X113910000Y-75930000D03*
X105850000Y-77820000D03*
X117680000Y-73400000D03*
X116660000Y-80400000D03*
X117650000Y-92100000D03*
X118410000Y-94030000D03*
X116660000Y-78180000D03*
X118720000Y-89340000D03*
X113910111Y-78029900D03*
X116090000Y-71150000D03*
X117890000Y-85550000D03*
X122690000Y-87000000D03*
X112210000Y-79630000D03*
X118920000Y-82630000D03*
X111222500Y-91542500D03*
X111970000Y-71070000D03*
X102892500Y-81337500D03*
X101400000Y-78100000D03*
X110210000Y-76130000D03*
X121610000Y-91630000D03*
X106900000Y-88870000D03*
X119080000Y-77290000D03*
X110230000Y-82600000D03*
X113910022Y-79730000D03*
X123810000Y-91930000D03*
X114650000Y-82630000D03*
X117900000Y-87330000D03*
X118790000Y-72480000D03*
X112440000Y-82630000D03*
X110200000Y-77800000D03*
X124060000Y-88360000D03*
X116740000Y-82630000D03*
X119020000Y-78910000D03*
X105720000Y-94281500D03*
X109000000Y-92570000D03*
X114390000Y-88350000D03*
X112210000Y-78030000D03*
X113560000Y-87010000D03*
X121010000Y-93930000D03*
X118790000Y-73520000D03*
X119020000Y-80550000D03*
X108837500Y-73214000D03*
G04 #@! TO.N,+3V3*
X119977500Y-88634000D03*
G04 #@! TO.N,NRST*
X105400000Y-84800000D03*
X107200000Y-77760000D03*
G04 #@! TO.N,JTAG_TMS*
X108017500Y-71186500D03*
G04 #@! TO.N,JTAG_TCK*
X108015000Y-73816500D03*
G04 #@! TO.N,ACCINT*
X107660000Y-80550000D03*
X105800000Y-79520000D03*
G04 #@! TO.N,ACCCS*
X106682393Y-81327607D03*
X111900000Y-73100000D03*
G04 #@! TD*
D34*
G04 #@! TO.N,GND*
X102892500Y-81337500D02*
X103265001Y-81710000D01*
X117799999Y-92249999D02*
X117650000Y-92100000D01*
X106550001Y-78674500D02*
X106550001Y-79174501D01*
X101379999Y-78120001D02*
X101400000Y-78100000D01*
X112000000Y-90485000D02*
X112000000Y-90765000D01*
X116535117Y-74415000D02*
X117550117Y-73400000D01*
X106050000Y-78674500D02*
X106050000Y-78020000D01*
X103552500Y-77402500D02*
X103552500Y-74471500D01*
X106050000Y-78674500D02*
X106550001Y-78674500D01*
X117550117Y-73400000D02*
X117680000Y-73400000D01*
D35*
X112210000Y-79730000D02*
X112210000Y-79630000D01*
D34*
X116985000Y-86000000D02*
X117440000Y-86000000D01*
X116100000Y-90500000D02*
X116410002Y-90500000D01*
X118800000Y-84550000D02*
X118800000Y-84640000D01*
X121350000Y-87000000D02*
X122690000Y-87000000D01*
X101379999Y-79450002D02*
X101379999Y-78120001D01*
X112005000Y-87010000D02*
X112000000Y-87015000D01*
X118645000Y-89265000D02*
X118720000Y-89340000D01*
X116985000Y-87500000D02*
X117730000Y-87500000D01*
X117730000Y-87500000D02*
X117900000Y-87330000D01*
D35*
X117650000Y-92100000D02*
X117650000Y-91587095D01*
D34*
X103372500Y-72634000D02*
X101750000Y-72634000D01*
X103552500Y-74471500D02*
X103167500Y-74086500D01*
X103552500Y-72814000D02*
X103372500Y-72634000D01*
X106550001Y-79174501D02*
X106625500Y-79250000D01*
D35*
X117650000Y-91587095D02*
X116562905Y-90500000D01*
D34*
X118800000Y-74450000D02*
X118800000Y-73530000D01*
X102885000Y-78070000D02*
X103552500Y-77402500D01*
D35*
X112210112Y-78030000D02*
X112210000Y-78030000D01*
D34*
X118800000Y-73530000D02*
X118790000Y-73520000D01*
X101620000Y-79480004D02*
X101799998Y-79660002D01*
X101039999Y-79660002D02*
X101799998Y-79660002D01*
X117500000Y-89265000D02*
X118645000Y-89265000D01*
X103552500Y-74471500D02*
X103552500Y-72814000D01*
X114610000Y-87015000D02*
X113565000Y-87015000D01*
X106625500Y-79250000D02*
X106625500Y-79750000D01*
X103265001Y-81710000D02*
X103725000Y-81710000D01*
X106050000Y-78020000D02*
X105850000Y-77820000D01*
X102885000Y-78070000D02*
X101430000Y-78070000D01*
X113565000Y-87015000D02*
X113560000Y-87010000D01*
X113560000Y-87010000D02*
X112005000Y-87010000D01*
X112000000Y-90765000D02*
X111222500Y-91542500D01*
D35*
X116562905Y-90500000D02*
X116100000Y-90500000D01*
D34*
X103725000Y-81710000D02*
X104635000Y-82620000D01*
X101430000Y-78070000D02*
X101400000Y-78100000D01*
X118800000Y-84640000D02*
X117890000Y-85550000D01*
X117440000Y-86000000D02*
X117890000Y-85550000D01*
G04 #@! TO.N,+3V3*
X106635000Y-83750000D02*
X107200000Y-83185000D01*
X103855000Y-78755000D02*
X104220000Y-79120000D01*
X114610000Y-85830000D02*
X115090000Y-85350000D01*
X115090000Y-85560000D02*
X114610000Y-86040000D01*
X119150000Y-87950000D02*
X118170000Y-87950000D01*
X104220000Y-79120000D02*
X104220000Y-79069000D01*
X114610000Y-85650000D02*
X114770000Y-85490000D01*
X104220000Y-80490000D02*
X104220000Y-81400011D01*
X115260000Y-84640000D02*
X115350000Y-84550000D01*
X116500000Y-84990000D02*
X116270000Y-85220000D01*
X116015000Y-87500000D02*
X115980000Y-87500000D01*
X116500000Y-84550000D02*
X116500000Y-84990000D01*
X103855000Y-78070000D02*
X103855000Y-78755000D01*
X115260000Y-86780000D02*
X115260000Y-85220000D01*
X114655000Y-85295000D02*
X114730000Y-85220000D01*
X114610000Y-86045000D02*
X114610000Y-85650000D01*
X118074990Y-88045010D02*
X116560010Y-88045010D01*
X104200000Y-72536500D02*
X103177500Y-71514000D01*
D36*
X108143999Y-86028999D02*
X107200000Y-85085000D01*
D34*
X119977500Y-88634000D02*
X119784000Y-88634000D01*
X115090000Y-85350000D02*
X115035000Y-85295000D01*
X115090000Y-86130000D02*
X115090000Y-85560000D01*
X115035000Y-85295000D02*
X114655000Y-85295000D01*
X115260000Y-85220000D02*
X115260000Y-84640000D01*
X104614500Y-78674500D02*
X105049999Y-78674500D01*
X106230000Y-82398190D02*
X106230000Y-83750000D01*
X106150000Y-83750000D02*
X106635000Y-83750000D01*
D36*
X114610000Y-86045000D02*
X114593999Y-86028999D01*
X114593999Y-86028999D02*
X108143999Y-86028999D01*
D34*
X106150000Y-84035000D02*
X106150000Y-83750000D01*
X116270000Y-85220000D02*
X115260000Y-85220000D01*
X118170000Y-87950000D02*
X118074990Y-88045010D01*
X105485000Y-83750000D02*
X106150000Y-83750000D01*
X106150000Y-83750000D02*
X106230000Y-83750000D01*
X104220000Y-79069000D02*
X104614500Y-78674500D01*
X115980000Y-87500000D02*
X115260000Y-86780000D01*
X104220000Y-81400011D02*
X104865010Y-82045021D01*
X114610000Y-86045000D02*
X114610000Y-85830000D01*
X116560010Y-88045010D02*
X116015000Y-87500000D01*
X105876831Y-82045021D02*
X106230000Y-82398190D01*
X104220000Y-79120000D02*
X104220000Y-80490000D01*
D36*
X114610000Y-86045000D02*
X114345000Y-85780000D01*
D34*
X119784000Y-88634000D02*
X119200000Y-88050000D01*
X114730000Y-85220000D02*
X115260000Y-85220000D01*
X107200000Y-85085000D02*
X106150000Y-84035000D01*
X105049999Y-78674500D02*
X105550000Y-78674500D01*
X104200000Y-77725000D02*
X104200000Y-72536500D01*
X104865010Y-82045021D02*
X105876831Y-82045021D01*
X114610000Y-86040000D02*
X114610000Y-86045000D01*
X103855000Y-78070000D02*
X104200000Y-77725000D01*
G04 #@! TO.N,NRST*
X105605000Y-82620000D02*
X105605000Y-82660000D01*
X104515000Y-83915000D02*
X105400000Y-84800000D01*
X107200000Y-78129498D02*
X108535512Y-79465010D01*
X105605000Y-82660000D02*
X104515000Y-83750000D01*
X104515000Y-83750000D02*
X103180003Y-83750000D01*
X107136000Y-77760000D02*
X105820000Y-76444000D01*
X103180003Y-83750000D02*
X102980001Y-83549998D01*
X104515000Y-83750000D02*
X104515000Y-83915000D01*
X107200000Y-77760000D02*
X107200000Y-78129498D01*
G04 #@! TO.N,VBUS*
X112015000Y-93285000D02*
X112970000Y-92330000D01*
D35*
X107300000Y-90670000D02*
X108300000Y-89670000D01*
D34*
X112000000Y-88980000D02*
X112000000Y-89515000D01*
D35*
X108300000Y-89670000D02*
X108300000Y-89075000D01*
D34*
X114280002Y-92330000D02*
X114900000Y-91710002D01*
D35*
X111525000Y-89040000D02*
X111940000Y-89040000D01*
X111940000Y-89040000D02*
X112000000Y-88980000D01*
D34*
X114900000Y-91710002D02*
X114900000Y-90550000D01*
X112000000Y-87985000D02*
X112000000Y-88980000D01*
X111525000Y-89040000D02*
X112000000Y-89515000D01*
X108265000Y-89040000D02*
X111525000Y-89040000D01*
D37*
X104136394Y-90970000D02*
X107000000Y-90970000D01*
X107000000Y-90970000D02*
X107300000Y-90670000D01*
D34*
X114900000Y-90550000D02*
X113900000Y-89550000D01*
X113900000Y-89550000D02*
X112035000Y-89550000D01*
X112970000Y-92330000D02*
X114280002Y-92330000D01*
X112015000Y-93500000D02*
X112015000Y-93285000D01*
D35*
X108300000Y-89075000D02*
X108265000Y-89040000D01*
D34*
X112035000Y-89550000D02*
X112000000Y-89515000D01*
D37*
G04 #@! TO.N,+BATT*
X123552009Y-87036167D02*
X123552010Y-87109904D01*
D36*
X117500000Y-90235000D02*
X118195000Y-90930000D01*
D37*
X122665842Y-86150000D02*
X123552009Y-87036167D01*
D34*
X116815000Y-89550000D02*
X117500000Y-90235000D01*
D37*
X121400000Y-86150000D02*
X122665842Y-86150000D01*
X123552010Y-87460000D02*
X122962010Y-88050000D01*
X122962010Y-88050000D02*
X121400000Y-88050000D01*
D35*
X121350000Y-89275000D02*
X121350000Y-88100000D01*
D37*
X123552010Y-87109904D02*
X123552010Y-87460000D01*
D36*
X118195000Y-90930000D02*
X119695000Y-90930000D01*
D34*
X116100000Y-89550000D02*
X116815000Y-89550000D01*
D36*
X119695000Y-90930000D02*
X121350000Y-89275000D01*
D35*
X121350000Y-88100000D02*
X121400000Y-88050000D01*
D34*
X119440000Y-91211501D02*
X119401500Y-91250001D01*
G04 #@! TO.N,Net-(C22-Pad1)*
X118476001Y-86723999D02*
X119150000Y-86050000D01*
X116553999Y-86723999D02*
X118476001Y-86723999D01*
X116015000Y-86000000D02*
X116015000Y-86185000D01*
X116015000Y-86185000D02*
X116553999Y-86723999D01*
D35*
G04 #@! TO.N,Net-(D1-Pad2)*
X113802500Y-71212500D02*
X113000000Y-72015000D01*
X114500000Y-71212500D02*
X113802500Y-71212500D01*
D34*
G04 #@! TO.N,Net-(D3-Pad1)*
X116100000Y-93312500D02*
X116287500Y-93500000D01*
X116100000Y-91450000D02*
X116100000Y-93312500D01*
G04 #@! TO.N,Net-(D3-Pad2)*
X114712500Y-93500000D02*
X112985000Y-93500000D01*
G04 #@! TO.N,Net-(R7-Pad1)*
X110555000Y-93485000D02*
X112590000Y-91450000D01*
X112590000Y-91450000D02*
X113900000Y-91450000D01*
X110250000Y-93485000D02*
X110555000Y-93485000D01*
D37*
G04 #@! TO.N,JTAG_TMS*
X109635116Y-74415000D02*
X109635116Y-72804116D01*
X105820000Y-71364000D02*
X107840000Y-71364000D01*
X109635116Y-72804116D02*
X108017500Y-71186500D01*
X107840000Y-71364000D02*
X108017500Y-71186500D01*
G04 #@! TO.N,JTAG_TCK*
X108015000Y-73816500D02*
X106832500Y-72634000D01*
X108535512Y-76015009D02*
X108535512Y-74324512D01*
X108523012Y-74324512D02*
X108015000Y-73816500D01*
X106845000Y-72634000D02*
X105820000Y-72634000D01*
X106832500Y-72634000D02*
X105820000Y-72634000D01*
X108535512Y-74324512D02*
X108523012Y-74324512D01*
D34*
G04 #@! TO.N,ACCINT*
X104974500Y-79750000D02*
X105600000Y-79750000D01*
X105760000Y-79590000D02*
X105760000Y-79560000D01*
X105760000Y-79560000D02*
X105800000Y-79520000D01*
D35*
X108500001Y-80650000D02*
X107760000Y-80650000D01*
D34*
X105600000Y-79750000D02*
X105760000Y-79590000D01*
D35*
X107760000Y-80650000D02*
X107660000Y-80550000D01*
D34*
G04 #@! TO.N,I2CSDA*
X106550001Y-80325500D02*
X106550001Y-80338200D01*
X108011801Y-81800000D02*
X108011801Y-81988199D01*
X107785000Y-82215000D02*
X108011801Y-81988199D01*
X108011801Y-81800000D02*
X108500001Y-81800000D01*
X107200000Y-82215000D02*
X107785000Y-82215000D01*
X106550001Y-80338200D02*
X108011801Y-81800000D01*
D37*
G04 #@! TO.N,I2CSCL*
X106893082Y-82712990D02*
X108333491Y-82712990D01*
D34*
X107200000Y-84115000D02*
X107335523Y-84115000D01*
D37*
X108333491Y-82712990D02*
X108535512Y-82915011D01*
X106702990Y-82307996D02*
X106702990Y-82522898D01*
X105049999Y-80655005D02*
X106702990Y-82307996D01*
D34*
X107335523Y-84115000D02*
X108535512Y-82915011D01*
D37*
X105049999Y-80325500D02*
X105049999Y-80655005D01*
X106702990Y-82522898D02*
X106893082Y-82712990D01*
D34*
G04 #@! TO.N,ACCCS*
X105550000Y-80727900D02*
X106149707Y-81327607D01*
X106149707Y-81327607D02*
X106682393Y-81327607D01*
D35*
X111900000Y-74379884D02*
X111935116Y-74415000D01*
D34*
X105550000Y-80325500D02*
X105550000Y-80727900D01*
D35*
X111900000Y-73100000D02*
X111900000Y-74379884D01*
D37*
G04 #@! TO.N,TX*
X116575943Y-73386019D02*
X117700000Y-72261962D01*
X115385117Y-74415000D02*
X115385117Y-73770902D01*
X117700000Y-72261962D02*
X117700000Y-71310000D01*
X115385117Y-73770902D02*
X115770000Y-73386019D01*
X115770000Y-73386019D02*
X116575943Y-73386019D01*
G04 #@! TO.N,RX*
X115827991Y-73132009D02*
X116380000Y-72580000D01*
X115190183Y-73132009D02*
X115827991Y-73132009D01*
X114377309Y-74272808D02*
X114377309Y-73944883D01*
X116380000Y-72889000D02*
X116380000Y-72580000D01*
X114235117Y-74415000D02*
X114377309Y-74272808D01*
X114377309Y-73944883D02*
X115190183Y-73132009D01*
X116390000Y-72777106D02*
X116390000Y-72740000D01*
D35*
G04 #@! TO.N,BLUELED*
X113000000Y-74400001D02*
X113049999Y-74450000D01*
X113000000Y-72985000D02*
X113000000Y-74400001D01*
D37*
G04 #@! TO.N,/SHIELD*
X103768100Y-87207501D02*
X106352501Y-87207501D01*
X106900000Y-87755000D02*
X106352501Y-87207501D01*
G04 #@! TD*
G04 #@! TA.AperFunction,Conductor*
G04 #@! TO.N,GND*
G36*
X120329191Y-70219407D02*
G01*
X120365155Y-70268907D01*
X120370000Y-70299500D01*
X120370000Y-70984758D01*
X120351093Y-71042949D01*
X120301593Y-71078913D01*
X120240407Y-71078913D01*
X120190907Y-71042949D01*
X120181718Y-71027534D01*
X120177720Y-71019190D01*
X120120603Y-70927783D01*
X120110735Y-70919502D01*
X120102768Y-70924009D01*
X119687863Y-71338914D01*
X119681809Y-71350797D01*
X119682605Y-71355828D01*
X120100514Y-71773737D01*
X120112384Y-71779785D01*
X120118667Y-71774187D01*
X120168220Y-71699603D01*
X120173252Y-71689814D01*
X120178453Y-71676121D01*
X120216792Y-71628437D01*
X120275837Y-71612395D01*
X120333034Y-71634123D01*
X120366537Y-71685321D01*
X120370000Y-71711277D01*
X120370000Y-73248992D01*
X120351093Y-73307183D01*
X120341004Y-73318996D01*
X119760000Y-73900000D01*
X119760000Y-74861000D01*
X119741093Y-74919191D01*
X119691593Y-74955155D01*
X119661000Y-74960000D01*
X119602129Y-74960000D01*
X119543938Y-74941093D01*
X119507974Y-74891593D01*
X119507974Y-74830407D01*
X119510664Y-74823116D01*
X119517015Y-74807782D01*
X119528670Y-74749188D01*
X119529618Y-74739566D01*
X119529618Y-74555680D01*
X119525496Y-74542995D01*
X119521375Y-74540000D01*
X118809118Y-74540000D01*
X118750927Y-74521093D01*
X118714963Y-74471593D01*
X118710118Y-74441000D01*
X118710118Y-74274320D01*
X118960118Y-74274320D01*
X118964240Y-74287005D01*
X118968361Y-74290000D01*
X119513938Y-74290000D01*
X119526623Y-74285878D01*
X119529618Y-74281757D01*
X119529618Y-74090434D01*
X119528670Y-74080812D01*
X119517015Y-74022217D01*
X119509696Y-74004549D01*
X119465277Y-73938070D01*
X119451748Y-73924541D01*
X119385269Y-73880122D01*
X119367601Y-73872803D01*
X119309006Y-73861148D01*
X119299384Y-73860200D01*
X118975798Y-73860200D01*
X118963113Y-73864322D01*
X118960118Y-73868443D01*
X118960118Y-74274320D01*
X118710118Y-74274320D01*
X118710118Y-73875880D01*
X118705996Y-73863195D01*
X118701875Y-73860200D01*
X118370852Y-73860200D01*
X118361230Y-73861148D01*
X118302638Y-73872802D01*
X118284961Y-73880125D01*
X118253843Y-73900917D01*
X118194955Y-73917526D01*
X118179532Y-73915701D01*
X118149365Y-73909700D01*
X117220869Y-73909700D01*
X117216108Y-73910647D01*
X117216098Y-73910648D01*
X117190708Y-73915699D01*
X117129947Y-73908509D01*
X117116391Y-73900917D01*
X117085269Y-73880122D01*
X117067600Y-73872803D01*
X117009005Y-73861148D01*
X116999383Y-73860200D01*
X116675797Y-73860200D01*
X116663112Y-73864322D01*
X116660117Y-73868443D01*
X116660117Y-74954120D01*
X116664239Y-74966805D01*
X116668360Y-74969800D01*
X117001000Y-74969800D01*
X117059191Y-74988707D01*
X117095155Y-75038207D01*
X117100000Y-75068800D01*
X117100000Y-76580000D01*
X119661000Y-76580000D01*
X119719191Y-76598907D01*
X119755155Y-76648407D01*
X119760000Y-76679000D01*
X119760000Y-85380000D01*
X124700500Y-85380000D01*
X124758691Y-85398907D01*
X124794655Y-85448407D01*
X124799500Y-85479000D01*
X124799500Y-94700500D01*
X124780593Y-94758691D01*
X124731093Y-94794655D01*
X124700500Y-94799500D01*
X100299500Y-94799500D01*
X100241309Y-94780593D01*
X100205345Y-94731093D01*
X100200500Y-94700500D01*
X100200500Y-94198463D01*
X100219407Y-94140272D01*
X100268907Y-94104308D01*
X100330093Y-94104308D01*
X100379593Y-94140272D01*
X100440833Y-94224562D01*
X100581270Y-94351013D01*
X100585760Y-94353605D01*
X100585761Y-94353606D01*
X100681022Y-94408604D01*
X100744930Y-94445501D01*
X100749859Y-94447102D01*
X100749860Y-94447103D01*
X100828220Y-94472563D01*
X100924658Y-94503898D01*
X100981700Y-94509894D01*
X101062904Y-94518429D01*
X101062911Y-94518429D01*
X101065486Y-94518700D01*
X101870914Y-94518700D01*
X101873489Y-94518429D01*
X101873496Y-94518429D01*
X101954700Y-94509894D01*
X102011742Y-94503898D01*
X102108180Y-94472563D01*
X102186540Y-94447103D01*
X102186541Y-94447102D01*
X102191470Y-94445501D01*
X102255379Y-94408604D01*
X102350639Y-94353606D01*
X102350640Y-94353605D01*
X102355130Y-94351013D01*
X102495567Y-94224562D01*
X102606645Y-94071676D01*
X102608753Y-94066942D01*
X102681400Y-93903775D01*
X102681401Y-93903771D01*
X102683509Y-93899037D01*
X102722800Y-93714189D01*
X102722800Y-93525211D01*
X102708081Y-93455963D01*
X106394757Y-93455963D01*
X106411175Y-93651483D01*
X106412508Y-93656131D01*
X106412508Y-93656132D01*
X106425621Y-93701860D01*
X106465258Y-93840091D01*
X106467473Y-93844401D01*
X106552731Y-94010296D01*
X106552734Y-94010300D01*
X106554944Y-94014601D01*
X106676818Y-94168369D01*
X106680505Y-94171507D01*
X106680507Y-94171509D01*
X106822550Y-94292397D01*
X106822555Y-94292400D01*
X106826238Y-94295535D01*
X106830460Y-94297895D01*
X106830465Y-94297898D01*
X106930144Y-94353606D01*
X106997513Y-94391257D01*
X107098549Y-94424086D01*
X107179513Y-94450393D01*
X107179516Y-94450394D01*
X107184118Y-94451889D01*
X107378946Y-94475121D01*
X107383768Y-94474750D01*
X107383771Y-94474750D01*
X107569748Y-94460440D01*
X107569753Y-94460439D01*
X107574576Y-94460068D01*
X107763556Y-94407303D01*
X107767869Y-94405124D01*
X107767875Y-94405122D01*
X107934368Y-94321020D01*
X107934370Y-94321018D01*
X107938689Y-94318837D01*
X107965490Y-94297898D01*
X108068464Y-94217447D01*
X122123501Y-94217447D01*
X122135134Y-94275930D01*
X122179449Y-94342251D01*
X122245770Y-94386566D01*
X122255333Y-94388468D01*
X122255335Y-94388469D01*
X122276864Y-94392751D01*
X122304253Y-94398199D01*
X124248749Y-94398199D01*
X124276138Y-94392751D01*
X124297667Y-94388469D01*
X124297669Y-94388468D01*
X124307232Y-94386566D01*
X124373553Y-94342251D01*
X124417868Y-94275930D01*
X124429501Y-94217447D01*
X124429501Y-92882551D01*
X124423008Y-92849907D01*
X124419771Y-92833633D01*
X124419770Y-92833631D01*
X124417868Y-92824068D01*
X124373553Y-92757747D01*
X124307232Y-92713432D01*
X124297669Y-92711530D01*
X124297667Y-92711529D01*
X124274996Y-92707020D01*
X124248749Y-92701799D01*
X122304253Y-92701799D01*
X122278006Y-92707020D01*
X122255335Y-92711529D01*
X122255333Y-92711530D01*
X122245770Y-92713432D01*
X122179449Y-92757747D01*
X122135134Y-92824068D01*
X122133232Y-92833631D01*
X122133231Y-92833633D01*
X122129994Y-92849907D01*
X122123501Y-92882551D01*
X122123501Y-94217447D01*
X108068464Y-94217447D01*
X108089487Y-94201022D01*
X108089491Y-94201018D01*
X108093303Y-94198040D01*
X108118915Y-94168369D01*
X108218345Y-94053177D01*
X108218347Y-94053175D01*
X108221509Y-94049511D01*
X108237990Y-94020500D01*
X108316036Y-93883115D01*
X108316037Y-93883112D01*
X108318425Y-93878909D01*
X108329903Y-93844407D01*
X108378831Y-93697323D01*
X108378831Y-93697321D01*
X108380358Y-93692732D01*
X108383347Y-93669076D01*
X108404601Y-93500824D01*
X108404949Y-93498071D01*
X108405341Y-93470000D01*
X108404438Y-93460783D01*
X108389466Y-93308096D01*
X108386194Y-93274728D01*
X108329484Y-93086894D01*
X108274556Y-92983589D01*
X108239643Y-92917927D01*
X108239641Y-92917923D01*
X108237370Y-92913653D01*
X108231005Y-92905848D01*
X108116422Y-92765355D01*
X108116421Y-92765354D01*
X108113361Y-92761602D01*
X107989655Y-92659264D01*
X107965907Y-92639618D01*
X107965906Y-92639617D01*
X107962180Y-92636535D01*
X107789585Y-92543213D01*
X107602152Y-92485193D01*
X107597342Y-92484687D01*
X107597340Y-92484687D01*
X107411835Y-92465189D01*
X107411833Y-92465189D01*
X107407019Y-92464683D01*
X107342891Y-92470519D01*
X107216438Y-92482027D01*
X107216435Y-92482028D01*
X107211618Y-92482466D01*
X107206976Y-92483832D01*
X107206972Y-92483833D01*
X107028040Y-92536496D01*
X107028037Y-92536497D01*
X107023393Y-92537864D01*
X106849512Y-92628767D01*
X106845743Y-92631797D01*
X106845742Y-92631798D01*
X106833395Y-92641725D01*
X106696600Y-92751711D01*
X106684730Y-92765857D01*
X106573589Y-92898310D01*
X106573586Y-92898314D01*
X106570480Y-92902016D01*
X106475956Y-93073954D01*
X106474492Y-93078568D01*
X106474491Y-93078571D01*
X106433780Y-93206908D01*
X106416628Y-93260978D01*
X106416088Y-93265790D01*
X106416088Y-93265791D01*
X106407155Y-93345435D01*
X106394757Y-93455963D01*
X102708081Y-93455963D01*
X102683509Y-93340363D01*
X102664691Y-93298096D01*
X102624963Y-93208866D01*
X102618567Y-93148016D01*
X102649160Y-93095028D01*
X102705056Y-93070141D01*
X102715404Y-93069599D01*
X104841948Y-93069599D01*
X104868195Y-93064378D01*
X104890866Y-93059869D01*
X104890868Y-93059868D01*
X104900431Y-93057966D01*
X104966752Y-93013651D01*
X105011067Y-92947330D01*
X105022700Y-92888847D01*
X105022700Y-92374320D01*
X109680000Y-92374320D01*
X109684122Y-92387005D01*
X109688243Y-92390000D01*
X110109320Y-92390000D01*
X110122005Y-92385878D01*
X110125000Y-92381757D01*
X110125000Y-92374320D01*
X110375000Y-92374320D01*
X110379122Y-92387005D01*
X110383243Y-92390000D01*
X110804320Y-92390000D01*
X110817005Y-92385878D01*
X110820000Y-92381757D01*
X110820000Y-92340109D01*
X110819391Y-92332370D01*
X110806476Y-92250830D01*
X110801721Y-92236194D01*
X110751629Y-92137882D01*
X110742587Y-92125437D01*
X110664563Y-92047413D01*
X110652118Y-92038371D01*
X110553806Y-91988279D01*
X110539170Y-91983524D01*
X110457630Y-91970609D01*
X110449891Y-91970000D01*
X110390680Y-91970000D01*
X110377995Y-91974122D01*
X110375000Y-91978243D01*
X110375000Y-92374320D01*
X110125000Y-92374320D01*
X110125000Y-91985680D01*
X110120878Y-91972995D01*
X110116757Y-91970000D01*
X110050109Y-91970000D01*
X110042370Y-91970609D01*
X109960830Y-91983524D01*
X109946194Y-91988279D01*
X109847882Y-92038371D01*
X109835437Y-92047413D01*
X109757413Y-92125437D01*
X109748371Y-92137882D01*
X109698279Y-92236194D01*
X109693524Y-92250830D01*
X109680609Y-92332370D01*
X109680000Y-92340109D01*
X109680000Y-92374320D01*
X105022700Y-92374320D01*
X105022700Y-91376151D01*
X105020644Y-91365813D01*
X105027836Y-91305051D01*
X105069370Y-91260122D01*
X105117742Y-91247500D01*
X106870343Y-91247500D01*
X106917582Y-91259497D01*
X106945436Y-91274621D01*
X107034989Y-91323244D01*
X107034991Y-91323245D01*
X107040235Y-91326092D01*
X107126069Y-91348610D01*
X107198464Y-91367603D01*
X107198468Y-91367604D01*
X107204233Y-91369116D01*
X107210194Y-91369210D01*
X107210197Y-91369210D01*
X107288996Y-91370447D01*
X107373760Y-91371779D01*
X107379575Y-91370447D01*
X107379577Y-91370447D01*
X107533206Y-91335262D01*
X107533209Y-91335261D01*
X107539029Y-91333928D01*
X107554610Y-91326092D01*
X107646324Y-91279964D01*
X107690498Y-91257747D01*
X107695035Y-91253872D01*
X107695038Y-91253870D01*
X107814888Y-91151508D01*
X107814891Y-91151505D01*
X107819423Y-91147634D01*
X107830718Y-91131915D01*
X107914877Y-91014796D01*
X107914878Y-91014794D01*
X107918361Y-91009947D01*
X107926960Y-90988558D01*
X107979377Y-90858167D01*
X107979378Y-90858165D01*
X107981601Y-90852634D01*
X107982721Y-90844766D01*
X108005034Y-90687985D01*
X108005034Y-90687979D01*
X108005490Y-90684778D01*
X108005645Y-90670000D01*
X108004034Y-90656687D01*
X108015814Y-90596646D01*
X108032313Y-90574790D01*
X108115938Y-90491165D01*
X109460499Y-90491165D01*
X109461447Y-90500787D01*
X109473102Y-90559382D01*
X109480421Y-90577050D01*
X109524840Y-90643529D01*
X109538369Y-90657058D01*
X109604848Y-90701477D01*
X109622516Y-90708796D01*
X109681111Y-90720451D01*
X109690733Y-90721399D01*
X110014319Y-90721399D01*
X110027004Y-90717277D01*
X110029999Y-90713156D01*
X110029999Y-90705719D01*
X110279999Y-90705719D01*
X110284121Y-90718404D01*
X110288242Y-90721399D01*
X110619265Y-90721399D01*
X110628887Y-90720451D01*
X110687482Y-90708796D01*
X110705150Y-90701477D01*
X110767389Y-90659891D01*
X111430000Y-90659891D01*
X111430609Y-90667630D01*
X111443524Y-90749170D01*
X111448279Y-90763806D01*
X111498371Y-90862118D01*
X111507413Y-90874563D01*
X111585437Y-90952587D01*
X111597882Y-90961629D01*
X111696194Y-91011721D01*
X111710830Y-91016476D01*
X111792370Y-91029391D01*
X111800109Y-91030000D01*
X111859320Y-91030000D01*
X111872005Y-91025878D01*
X111875000Y-91021757D01*
X111875000Y-91014320D01*
X112125000Y-91014320D01*
X112129122Y-91027005D01*
X112133243Y-91030000D01*
X112199891Y-91030000D01*
X112207630Y-91029391D01*
X112289165Y-91016477D01*
X112309852Y-91009755D01*
X112371027Y-91009755D01*
X112388915Y-90973080D01*
X112401938Y-90961760D01*
X112414562Y-90952588D01*
X112492587Y-90874563D01*
X112501629Y-90862118D01*
X112551721Y-90763806D01*
X112556476Y-90749170D01*
X112569391Y-90667630D01*
X112570000Y-90659891D01*
X112570000Y-90625680D01*
X112565878Y-90612995D01*
X112561757Y-90610000D01*
X112140680Y-90610000D01*
X112127995Y-90614122D01*
X112125000Y-90618243D01*
X112125000Y-91014320D01*
X111875000Y-91014320D01*
X111875000Y-90625680D01*
X111870878Y-90612995D01*
X111866757Y-90610000D01*
X111445680Y-90610000D01*
X111432995Y-90614122D01*
X111430000Y-90618243D01*
X111430000Y-90659891D01*
X110767389Y-90659891D01*
X110771629Y-90657058D01*
X110785158Y-90643529D01*
X110829577Y-90577050D01*
X110836896Y-90559382D01*
X110848551Y-90500787D01*
X110849499Y-90491165D01*
X110849499Y-90205679D01*
X110845377Y-90192994D01*
X110841256Y-90189999D01*
X110295679Y-90189999D01*
X110282994Y-90194121D01*
X110279999Y-90198242D01*
X110279999Y-90705719D01*
X110029999Y-90705719D01*
X110029999Y-90205679D01*
X110025877Y-90192994D01*
X110021756Y-90189999D01*
X109476179Y-90189999D01*
X109463494Y-90194121D01*
X109460499Y-90198242D01*
X109460499Y-90491165D01*
X108115938Y-90491165D01*
X108595484Y-90011619D01*
X108604197Y-90003877D01*
X108626299Y-89986453D01*
X108632110Y-89981872D01*
X108636386Y-89975686D01*
X108665703Y-89933267D01*
X108667511Y-89930737D01*
X108698239Y-89889135D01*
X108698240Y-89889134D01*
X108702635Y-89883183D01*
X108705029Y-89876366D01*
X108709131Y-89870431D01*
X108726948Y-89814096D01*
X108727928Y-89811159D01*
X108745068Y-89762352D01*
X108745068Y-89762350D01*
X108747520Y-89755369D01*
X108747758Y-89749327D01*
X108748280Y-89746647D01*
X108749980Y-89741270D01*
X108750500Y-89734663D01*
X108750500Y-89713060D01*
X108769407Y-89654869D01*
X108794497Y-89630746D01*
X108854052Y-89590952D01*
X108898367Y-89524631D01*
X108900913Y-89511835D01*
X108905156Y-89490500D01*
X108910000Y-89466148D01*
X108910000Y-89461288D01*
X108910477Y-89456446D01*
X108912551Y-89456650D01*
X108928907Y-89406309D01*
X108978407Y-89370345D01*
X109009000Y-89365500D01*
X109420453Y-89365500D01*
X109478644Y-89384407D01*
X109514608Y-89433907D01*
X109514608Y-89495093D01*
X109502768Y-89519502D01*
X109480421Y-89552946D01*
X109473102Y-89570616D01*
X109461447Y-89629211D01*
X109460499Y-89638833D01*
X109460499Y-89924319D01*
X109464621Y-89937004D01*
X109468742Y-89939999D01*
X110833819Y-89939999D01*
X110846504Y-89935877D01*
X110849499Y-89931756D01*
X110849499Y-89638833D01*
X110848551Y-89629211D01*
X110836896Y-89570616D01*
X110829577Y-89552946D01*
X110807230Y-89519502D01*
X110790621Y-89460614D01*
X110811798Y-89403210D01*
X110862672Y-89369217D01*
X110889545Y-89365500D01*
X111172682Y-89365500D01*
X111228968Y-89383058D01*
X111324569Y-89449131D01*
X111331625Y-89451363D01*
X111331626Y-89451363D01*
X111410352Y-89476261D01*
X111460133Y-89511835D01*
X111479500Y-89570653D01*
X111479500Y-89695486D01*
X111480028Y-89699069D01*
X111480028Y-89699076D01*
X111487866Y-89752315D01*
X111489569Y-89763884D01*
X111540628Y-89867880D01*
X111546420Y-89873662D01*
X111567758Y-89894963D01*
X111595583Y-89949455D01*
X111586064Y-90009896D01*
X111567819Y-90035031D01*
X111507413Y-90095437D01*
X111498371Y-90107882D01*
X111448279Y-90206194D01*
X111443524Y-90220830D01*
X111430609Y-90302370D01*
X111430000Y-90310109D01*
X111430000Y-90344320D01*
X111434122Y-90357005D01*
X111438243Y-90360000D01*
X112554320Y-90360000D01*
X112567005Y-90355878D01*
X112570000Y-90351757D01*
X112570000Y-90310109D01*
X112569391Y-90302370D01*
X112556476Y-90220830D01*
X112551721Y-90206194D01*
X112501629Y-90107882D01*
X112492587Y-90095437D01*
X112441654Y-90044504D01*
X112413877Y-89989987D01*
X112423448Y-89929555D01*
X112466713Y-89886290D01*
X112511658Y-89875500D01*
X113084845Y-89875500D01*
X113143036Y-89894407D01*
X113176309Y-89936614D01*
X113179231Y-89943667D01*
X113181133Y-89953231D01*
X113225448Y-90019552D01*
X113291769Y-90063867D01*
X113301332Y-90065769D01*
X113301334Y-90065770D01*
X113324005Y-90070279D01*
X113350252Y-90075500D01*
X113924166Y-90075500D01*
X113982357Y-90094407D01*
X113994170Y-90104496D01*
X114545504Y-90655830D01*
X114573281Y-90710347D01*
X114574500Y-90725834D01*
X114574500Y-90828683D01*
X114555593Y-90886874D01*
X114506093Y-90922838D01*
X114459393Y-90925591D01*
X114459360Y-90925925D01*
X114457248Y-90925717D01*
X114456182Y-90925780D01*
X114449748Y-90924500D01*
X113350252Y-90924500D01*
X113324005Y-90929721D01*
X113301334Y-90934230D01*
X113301332Y-90934231D01*
X113291769Y-90936133D01*
X113225448Y-90980448D01*
X113181133Y-91046769D01*
X113179231Y-91056333D01*
X113176309Y-91063386D01*
X113136572Y-91109912D01*
X113084845Y-91124500D01*
X112608534Y-91124500D01*
X112599905Y-91124123D01*
X112569822Y-91121491D01*
X112561193Y-91120736D01*
X112552826Y-91122978D01*
X112523651Y-91130796D01*
X112515222Y-91132665D01*
X112477319Y-91139348D01*
X112430088Y-91132709D01*
X112420538Y-91162101D01*
X112389947Y-91189645D01*
X112385048Y-91192474D01*
X112377545Y-91196806D01*
X112363095Y-91214027D01*
X112352569Y-91226571D01*
X112346735Y-91232939D01*
X110945634Y-92634040D01*
X110891117Y-92661817D01*
X110830685Y-92652246D01*
X110817438Y-92644128D01*
X110811756Y-92640000D01*
X109695680Y-92640000D01*
X109682995Y-92644122D01*
X109680000Y-92648243D01*
X109680000Y-92689891D01*
X109680609Y-92697630D01*
X109693524Y-92779170D01*
X109698279Y-92793806D01*
X109748371Y-92892118D01*
X109757413Y-92904563D01*
X109817843Y-92964993D01*
X109845620Y-93019510D01*
X109836049Y-93079942D01*
X109817904Y-93104939D01*
X109790270Y-93132621D01*
X109739392Y-93236706D01*
X109729500Y-93304514D01*
X109729500Y-93665486D01*
X109730028Y-93669069D01*
X109730028Y-93669076D01*
X109738448Y-93726271D01*
X109739569Y-93733884D01*
X109790628Y-93837880D01*
X109796419Y-93843661D01*
X109866830Y-93913950D01*
X109866833Y-93913952D01*
X109872621Y-93919730D01*
X109976706Y-93970608D01*
X110026229Y-93977833D01*
X110040969Y-93979983D01*
X110040971Y-93979983D01*
X110044514Y-93980500D01*
X110455486Y-93980500D01*
X110459069Y-93979972D01*
X110459076Y-93979972D01*
X110516271Y-93971552D01*
X110516273Y-93971551D01*
X110523884Y-93970431D01*
X110538362Y-93963323D01*
X110569241Y-93948162D01*
X110627880Y-93919372D01*
X110648180Y-93899037D01*
X110703950Y-93843170D01*
X110703952Y-93843167D01*
X110709730Y-93837379D01*
X110744193Y-93766876D01*
X110765936Y-93739071D01*
X110767455Y-93738194D01*
X110773022Y-93731560D01*
X110773024Y-93731558D01*
X110792431Y-93708429D01*
X110798265Y-93702061D01*
X111362995Y-93137331D01*
X111417512Y-93109554D01*
X111477944Y-93119125D01*
X111521209Y-93162390D01*
X111530780Y-93222822D01*
X111530317Y-93224814D01*
X111529392Y-93226706D01*
X111528575Y-93232307D01*
X111528574Y-93232311D01*
X111520017Y-93290969D01*
X111519500Y-93294514D01*
X111519500Y-93705486D01*
X111520028Y-93709069D01*
X111520028Y-93709076D01*
X111524315Y-93738194D01*
X111529569Y-93773884D01*
X111532960Y-93780790D01*
X111532960Y-93780791D01*
X111551838Y-93819241D01*
X111580628Y-93877880D01*
X111586419Y-93883661D01*
X111656830Y-93953950D01*
X111656833Y-93953952D01*
X111662621Y-93959730D01*
X111766706Y-94010608D01*
X111816229Y-94017833D01*
X111830969Y-94019983D01*
X111830971Y-94019983D01*
X111834514Y-94020500D01*
X112195486Y-94020500D01*
X112199069Y-94019972D01*
X112199076Y-94019972D01*
X112256271Y-94011552D01*
X112256273Y-94011551D01*
X112263884Y-94010431D01*
X112287550Y-93998812D01*
X112343072Y-93971552D01*
X112367880Y-93959372D01*
X112429898Y-93897245D01*
X112484391Y-93869420D01*
X112544831Y-93878939D01*
X112569905Y-93897123D01*
X112632621Y-93959730D01*
X112736706Y-94010608D01*
X112786229Y-94017833D01*
X112800969Y-94019983D01*
X112800971Y-94019983D01*
X112804514Y-94020500D01*
X113165486Y-94020500D01*
X113169069Y-94019972D01*
X113169076Y-94019972D01*
X113226271Y-94011552D01*
X113226273Y-94011551D01*
X113233884Y-94010431D01*
X113257550Y-93998812D01*
X113313072Y-93971552D01*
X113337880Y-93959372D01*
X113343661Y-93953581D01*
X113413949Y-93883171D01*
X113413951Y-93883168D01*
X113419730Y-93877379D01*
X113423323Y-93870028D01*
X113425475Y-93867011D01*
X113474660Y-93830616D01*
X113506073Y-93825500D01*
X113999284Y-93825500D01*
X114057475Y-93844407D01*
X114089081Y-93887913D01*
X114090049Y-93887420D01*
X114093585Y-93894359D01*
X114093585Y-93894360D01*
X114133001Y-93971717D01*
X114150342Y-94005751D01*
X114244249Y-94099658D01*
X114251186Y-94103193D01*
X114251188Y-94103194D01*
X114323958Y-94140272D01*
X114362580Y-94159951D01*
X114370273Y-94161170D01*
X114370275Y-94161170D01*
X114456908Y-94174891D01*
X114456910Y-94174891D01*
X114460754Y-94175500D01*
X114964246Y-94175500D01*
X114968090Y-94174891D01*
X114968092Y-94174891D01*
X115054725Y-94161170D01*
X115054727Y-94161170D01*
X115062420Y-94159951D01*
X115101042Y-94140272D01*
X115173812Y-94103194D01*
X115173814Y-94103193D01*
X115180751Y-94099658D01*
X115274658Y-94005751D01*
X115292000Y-93971717D01*
X115331415Y-93894360D01*
X115331415Y-93894359D01*
X115334951Y-93887420D01*
X115336542Y-93877379D01*
X115349891Y-93793092D01*
X115349891Y-93793090D01*
X115350500Y-93789246D01*
X115350500Y-93210754D01*
X115342840Y-93162390D01*
X115336170Y-93120275D01*
X115336170Y-93120273D01*
X115334951Y-93112580D01*
X115326008Y-93095028D01*
X115278194Y-93001188D01*
X115278193Y-93001186D01*
X115274658Y-92994249D01*
X115180751Y-92900342D01*
X115173814Y-92896807D01*
X115173812Y-92896806D01*
X115069360Y-92843585D01*
X115069359Y-92843585D01*
X115062420Y-92840049D01*
X115054727Y-92838830D01*
X115054725Y-92838830D01*
X114968092Y-92825109D01*
X114968090Y-92825109D01*
X114964246Y-92824500D01*
X114460754Y-92824500D01*
X114456910Y-92825109D01*
X114456908Y-92825109D01*
X114454017Y-92825567D01*
X114453046Y-92825413D01*
X114453035Y-92825414D01*
X114453035Y-92825411D01*
X114393584Y-92815995D01*
X114386034Y-92808445D01*
X114371874Y-92832013D01*
X114351868Y-92845507D01*
X114251188Y-92896806D01*
X114251186Y-92896807D01*
X114244249Y-92900342D01*
X114150342Y-92994249D01*
X114146807Y-93001186D01*
X114146806Y-93001188D01*
X114098992Y-93095028D01*
X114090049Y-93112580D01*
X114089081Y-93112087D01*
X114057479Y-93155589D01*
X113999284Y-93174500D01*
X113506099Y-93174500D01*
X113447908Y-93155593D01*
X113425602Y-93133130D01*
X113422978Y-93129465D01*
X113419372Y-93122120D01*
X113409815Y-93112580D01*
X113343170Y-93046050D01*
X113343167Y-93046048D01*
X113337379Y-93040270D01*
X113233294Y-92989392D01*
X113183771Y-92982167D01*
X113169031Y-92980017D01*
X113169029Y-92980017D01*
X113165486Y-92979500D01*
X113019834Y-92979500D01*
X112961643Y-92960593D01*
X112925679Y-92911093D01*
X112925679Y-92849907D01*
X112949830Y-92810496D01*
X113075830Y-92684496D01*
X113130347Y-92656719D01*
X113145834Y-92655500D01*
X114261468Y-92655500D01*
X114270097Y-92655877D01*
X114308809Y-92659264D01*
X114308651Y-92661065D01*
X114357911Y-92672437D01*
X114359896Y-92674721D01*
X114368527Y-92657782D01*
X114393732Y-92641725D01*
X114393069Y-92640575D01*
X114393948Y-92640068D01*
X114394374Y-92639822D01*
X114401076Y-92637046D01*
X114403493Y-92635506D01*
X114403470Y-92635456D01*
X114403851Y-92635278D01*
X114404671Y-92634756D01*
X114406038Y-92634258D01*
X114411316Y-92631797D01*
X114419686Y-92629554D01*
X114449058Y-92608987D01*
X114451513Y-92607268D01*
X114458797Y-92602627D01*
X114463408Y-92599965D01*
X114492457Y-92583194D01*
X114517433Y-92553429D01*
X114523267Y-92547061D01*
X115117057Y-91953271D01*
X115123425Y-91947436D01*
X115153194Y-91922457D01*
X115172629Y-91888794D01*
X115177268Y-91881513D01*
X115187001Y-91867613D01*
X115199554Y-91849686D01*
X115201137Y-91843780D01*
X115241887Y-91800079D01*
X115301948Y-91788404D01*
X115357401Y-91814261D01*
X115379805Y-91846556D01*
X115381133Y-91853231D01*
X115425448Y-91919552D01*
X115491769Y-91963867D01*
X115501332Y-91965769D01*
X115501334Y-91965770D01*
X115522602Y-91970000D01*
X115550252Y-91975500D01*
X115675500Y-91975500D01*
X115733691Y-91994407D01*
X115769655Y-92043907D01*
X115774500Y-92074500D01*
X115774500Y-92904083D01*
X115755593Y-92962274D01*
X115745504Y-92974087D01*
X115725342Y-92994249D01*
X115721807Y-93001186D01*
X115721806Y-93001188D01*
X115673992Y-93095028D01*
X115665049Y-93112580D01*
X115663830Y-93120273D01*
X115663830Y-93120275D01*
X115657160Y-93162390D01*
X115649500Y-93210754D01*
X115649500Y-93789246D01*
X115650109Y-93793090D01*
X115650109Y-93793092D01*
X115663459Y-93877379D01*
X115665049Y-93887420D01*
X115668585Y-93894359D01*
X115668585Y-93894360D01*
X115708001Y-93971717D01*
X115725342Y-94005751D01*
X115819249Y-94099658D01*
X115826186Y-94103193D01*
X115826188Y-94103194D01*
X115898958Y-94140272D01*
X115937580Y-94159951D01*
X115945273Y-94161170D01*
X115945275Y-94161170D01*
X116031908Y-94174891D01*
X116031910Y-94174891D01*
X116035754Y-94175500D01*
X116539246Y-94175500D01*
X116543090Y-94174891D01*
X116543092Y-94174891D01*
X116629725Y-94161170D01*
X116629727Y-94161170D01*
X116637420Y-94159951D01*
X116676042Y-94140272D01*
X116748812Y-94103194D01*
X116748814Y-94103193D01*
X116755751Y-94099658D01*
X116849658Y-94005751D01*
X116867000Y-93971717D01*
X116906415Y-93894360D01*
X116906415Y-93894359D01*
X116909951Y-93887420D01*
X116911542Y-93877379D01*
X116924891Y-93793092D01*
X116924891Y-93793090D01*
X116925500Y-93789246D01*
X116925500Y-93210754D01*
X116917840Y-93162390D01*
X116911170Y-93120275D01*
X116911170Y-93120273D01*
X116909951Y-93112580D01*
X116901008Y-93095028D01*
X116853194Y-93001188D01*
X116853193Y-93001186D01*
X116849658Y-92994249D01*
X116755751Y-92900342D01*
X116748814Y-92896807D01*
X116748812Y-92896806D01*
X116644360Y-92843585D01*
X116644359Y-92843585D01*
X116637420Y-92840049D01*
X116629727Y-92838830D01*
X116629725Y-92838830D01*
X116543092Y-92825109D01*
X116543090Y-92825109D01*
X116539246Y-92824500D01*
X116524500Y-92824500D01*
X116466309Y-92805593D01*
X116430345Y-92756093D01*
X116425500Y-92725500D01*
X116425500Y-92599965D01*
X118376800Y-92599965D01*
X118377748Y-92609587D01*
X118389403Y-92668182D01*
X118396722Y-92685850D01*
X118441141Y-92752329D01*
X118454670Y-92765858D01*
X118521149Y-92810277D01*
X118538817Y-92817596D01*
X118597412Y-92829251D01*
X118607034Y-92830199D01*
X119260820Y-92830199D01*
X119273505Y-92826077D01*
X119276500Y-92821956D01*
X119276500Y-92814519D01*
X119526500Y-92814519D01*
X119530622Y-92827204D01*
X119534743Y-92830199D01*
X120195966Y-92830199D01*
X120205588Y-92829251D01*
X120264183Y-92817596D01*
X120281851Y-92810277D01*
X120348330Y-92765858D01*
X120361859Y-92752329D01*
X120406278Y-92685850D01*
X120413597Y-92668182D01*
X120425252Y-92609587D01*
X120426200Y-92599965D01*
X120426200Y-92390679D01*
X120422078Y-92377994D01*
X120417957Y-92374999D01*
X119542180Y-92374999D01*
X119529495Y-92379121D01*
X119526500Y-92383242D01*
X119526500Y-92814519D01*
X119276500Y-92814519D01*
X119276500Y-92390679D01*
X119272378Y-92377994D01*
X119268257Y-92374999D01*
X118392480Y-92374999D01*
X118379795Y-92379121D01*
X118376800Y-92383242D01*
X118376800Y-92599965D01*
X116425500Y-92599965D01*
X116425500Y-92074500D01*
X116444407Y-92016309D01*
X116493907Y-91980345D01*
X116524500Y-91975500D01*
X116649748Y-91975500D01*
X116677398Y-91970000D01*
X116698666Y-91965770D01*
X116698668Y-91965769D01*
X116708231Y-91963867D01*
X116774552Y-91919552D01*
X116818867Y-91853231D01*
X116822367Y-91835639D01*
X116828561Y-91804496D01*
X116830500Y-91794748D01*
X116830500Y-91105252D01*
X116818867Y-91046769D01*
X116822517Y-91046043D01*
X116819124Y-91002960D01*
X116833075Y-90971065D01*
X116860078Y-90930653D01*
X116867397Y-90912983D01*
X116879052Y-90854388D01*
X116880000Y-90844766D01*
X116880000Y-90844664D01*
X116880014Y-90844620D01*
X116880477Y-90839922D01*
X116881508Y-90840024D01*
X116898907Y-90786473D01*
X116948407Y-90750509D01*
X117009593Y-90750509D01*
X117049004Y-90774660D01*
X117680071Y-91405727D01*
X117684670Y-91410651D01*
X117722831Y-91454396D01*
X117727710Y-91457825D01*
X117775071Y-91491111D01*
X117779225Y-91494197D01*
X117829457Y-91533583D01*
X117834894Y-91536038D01*
X117834896Y-91536039D01*
X117836057Y-91536563D01*
X117837835Y-91537366D01*
X117854024Y-91546599D01*
X117861547Y-91551887D01*
X117921044Y-91575084D01*
X117925812Y-91577089D01*
X117983983Y-91603355D01*
X117993028Y-91605031D01*
X118010941Y-91610134D01*
X118019513Y-91613476D01*
X118025432Y-91614255D01*
X118025435Y-91614256D01*
X118082811Y-91621809D01*
X118087930Y-91622620D01*
X118109825Y-91626678D01*
X118150692Y-91634252D01*
X118212918Y-91630664D01*
X118218618Y-91630500D01*
X118334215Y-91630500D01*
X118392406Y-91649407D01*
X118428370Y-91698907D01*
X118428370Y-91760093D01*
X118416530Y-91784502D01*
X118396722Y-91814146D01*
X118389403Y-91831816D01*
X118377748Y-91890411D01*
X118376800Y-91900033D01*
X118376800Y-92109319D01*
X118380922Y-92122004D01*
X118385043Y-92124999D01*
X120410520Y-92124999D01*
X120423205Y-92120877D01*
X120426200Y-92116756D01*
X120426200Y-91900033D01*
X120425252Y-91890411D01*
X120413597Y-91831816D01*
X120406278Y-91814147D01*
X120369149Y-91758579D01*
X120352541Y-91699691D01*
X120359896Y-91666171D01*
X120365067Y-91658432D01*
X120376700Y-91599949D01*
X120376700Y-91279964D01*
X120395607Y-91221773D01*
X120405696Y-91209960D01*
X121875391Y-89740265D01*
X121877222Y-89737929D01*
X121877228Y-89737923D01*
X121946594Y-89649457D01*
X121997379Y-89615331D01*
X122058523Y-89617573D01*
X122106672Y-89655326D01*
X122123501Y-89710543D01*
X122123501Y-90617449D01*
X122125140Y-90625687D01*
X122132293Y-90661647D01*
X122135134Y-90675932D01*
X122179449Y-90742253D01*
X122245770Y-90786568D01*
X122255333Y-90788470D01*
X122255335Y-90788471D01*
X122278006Y-90792980D01*
X122304253Y-90798201D01*
X124248749Y-90798201D01*
X124274996Y-90792980D01*
X124297667Y-90788471D01*
X124297669Y-90788470D01*
X124307232Y-90786568D01*
X124373553Y-90742253D01*
X124417868Y-90675932D01*
X124420710Y-90661647D01*
X124427862Y-90625687D01*
X124429501Y-90617449D01*
X124429501Y-89282553D01*
X124417868Y-89224070D01*
X124373553Y-89157749D01*
X124307232Y-89113434D01*
X124297669Y-89111532D01*
X124297667Y-89111531D01*
X124274996Y-89107022D01*
X124248749Y-89101801D01*
X122304253Y-89101801D01*
X122278006Y-89107022D01*
X122255335Y-89111531D01*
X122255333Y-89111532D01*
X122245770Y-89113434D01*
X122190985Y-89150041D01*
X122180007Y-89157376D01*
X122121119Y-89173985D01*
X122063715Y-89152808D01*
X122030381Y-89104171D01*
X121996393Y-88993691D01*
X121994639Y-88987989D01*
X121907569Y-88842506D01*
X121829129Y-88763239D01*
X121801639Y-88708579D01*
X121800500Y-88693605D01*
X121800500Y-88674500D01*
X121819407Y-88616309D01*
X121868907Y-88580345D01*
X121899500Y-88575500D01*
X121949748Y-88575500D01*
X121976936Y-88570092D01*
X121998666Y-88565770D01*
X121998668Y-88565769D01*
X122008231Y-88563867D01*
X122074552Y-88519552D01*
X122118867Y-88453231D01*
X122121271Y-88441149D01*
X122128026Y-88407186D01*
X122157923Y-88353802D01*
X122213488Y-88328186D01*
X122225124Y-88327500D01*
X122912916Y-88327500D01*
X122916319Y-88327750D01*
X122920769Y-88329278D01*
X122966269Y-88327570D01*
X122969982Y-88327500D01*
X122987820Y-88327500D01*
X122991996Y-88326722D01*
X122996320Y-88326442D01*
X123006514Y-88326059D01*
X123014939Y-88325743D01*
X123014940Y-88325743D01*
X123024074Y-88325400D01*
X123032472Y-88321792D01*
X123032476Y-88321791D01*
X123033069Y-88321536D01*
X123054013Y-88315172D01*
X123063640Y-88313379D01*
X123084097Y-88300769D01*
X123096967Y-88294083D01*
X123112642Y-88287349D01*
X123112644Y-88287348D01*
X123119056Y-88284593D01*
X123123563Y-88280892D01*
X123126974Y-88277481D01*
X123142112Y-88265516D01*
X123143862Y-88263929D01*
X123151641Y-88259134D01*
X123167638Y-88238097D01*
X123176438Y-88228017D01*
X123713520Y-87690935D01*
X123716101Y-87688707D01*
X123720328Y-87686641D01*
X123751283Y-87653271D01*
X123753860Y-87650595D01*
X123766483Y-87637972D01*
X123768888Y-87634467D01*
X123771750Y-87631208D01*
X123784416Y-87617554D01*
X123784418Y-87617551D01*
X123790633Y-87610851D01*
X123794260Y-87601759D01*
X123804575Y-87582443D01*
X123804938Y-87581914D01*
X123804939Y-87581913D01*
X123810110Y-87574374D01*
X123812221Y-87565479D01*
X123812222Y-87565477D01*
X123815658Y-87550997D01*
X123820029Y-87537173D01*
X123826353Y-87521322D01*
X123826354Y-87521320D01*
X123828941Y-87514834D01*
X123829510Y-87509030D01*
X123829510Y-87504210D01*
X123831753Y-87485041D01*
X123831868Y-87482685D01*
X123833979Y-87473791D01*
X123832654Y-87464049D01*
X123830414Y-87447593D01*
X123829510Y-87434244D01*
X123829510Y-87158940D01*
X123829511Y-87158930D01*
X123829510Y-87085254D01*
X123829760Y-87081856D01*
X123831287Y-87077407D01*
X123829579Y-87031927D01*
X123829509Y-87028212D01*
X123829509Y-87010353D01*
X123828730Y-87006173D01*
X123828449Y-87001831D01*
X123827751Y-86983238D01*
X123827408Y-86974103D01*
X123823801Y-86965706D01*
X123823800Y-86965703D01*
X123823544Y-86965107D01*
X123817182Y-86944166D01*
X123817062Y-86943519D01*
X123817060Y-86943513D01*
X123815387Y-86934533D01*
X123810592Y-86926755D01*
X123810591Y-86926752D01*
X123802774Y-86914071D01*
X123796087Y-86901199D01*
X123792584Y-86893045D01*
X123786602Y-86879120D01*
X123782900Y-86874614D01*
X123779487Y-86871201D01*
X123767518Y-86856058D01*
X123765936Y-86854314D01*
X123761140Y-86846533D01*
X123740090Y-86830526D01*
X123730020Y-86821734D01*
X122896777Y-85988490D01*
X122894549Y-85985909D01*
X122892483Y-85981682D01*
X122859113Y-85950727D01*
X122856437Y-85948150D01*
X122843814Y-85935527D01*
X122840309Y-85933122D01*
X122837050Y-85930260D01*
X122823396Y-85917594D01*
X122823393Y-85917592D01*
X122816693Y-85911377D01*
X122807601Y-85907750D01*
X122788285Y-85897435D01*
X122787756Y-85897072D01*
X122787755Y-85897071D01*
X122780216Y-85891900D01*
X122771321Y-85889789D01*
X122771319Y-85889788D01*
X122756839Y-85886352D01*
X122743015Y-85881981D01*
X122727164Y-85875657D01*
X122727162Y-85875656D01*
X122720676Y-85873069D01*
X122714872Y-85872500D01*
X122710052Y-85872500D01*
X122690883Y-85870257D01*
X122688527Y-85870142D01*
X122679633Y-85868031D01*
X122670579Y-85869263D01*
X122670576Y-85869263D01*
X122653435Y-85871596D01*
X122640086Y-85872500D01*
X122225124Y-85872500D01*
X122166933Y-85853593D01*
X122130969Y-85804093D01*
X122128026Y-85792814D01*
X122120770Y-85756334D01*
X122120769Y-85756332D01*
X122118867Y-85746769D01*
X122074552Y-85680448D01*
X122008231Y-85636133D01*
X121998668Y-85634231D01*
X121998666Y-85634230D01*
X121975995Y-85629721D01*
X121949748Y-85624500D01*
X120850252Y-85624500D01*
X120824005Y-85629721D01*
X120801334Y-85634230D01*
X120801332Y-85634231D01*
X120791769Y-85636133D01*
X120725448Y-85680448D01*
X120681133Y-85746769D01*
X120669500Y-85805252D01*
X120669500Y-86494748D01*
X120674688Y-86520830D01*
X120681133Y-86553231D01*
X120677483Y-86553957D01*
X120680876Y-86597040D01*
X120666925Y-86628935D01*
X120639922Y-86669347D01*
X120632603Y-86687017D01*
X120620948Y-86745612D01*
X120620000Y-86755234D01*
X120620000Y-86959320D01*
X120624122Y-86972005D01*
X120628243Y-86975000D01*
X122164320Y-86975000D01*
X122177005Y-86970878D01*
X122180000Y-86966757D01*
X122180000Y-86755234D01*
X122179052Y-86745612D01*
X122167397Y-86687017D01*
X122160078Y-86669347D01*
X122133075Y-86628935D01*
X122116466Y-86570047D01*
X122120102Y-86553477D01*
X122118867Y-86553231D01*
X122128026Y-86507186D01*
X122157923Y-86453802D01*
X122213488Y-86428186D01*
X122225124Y-86427500D01*
X122509889Y-86427500D01*
X122568080Y-86446407D01*
X122579893Y-86456496D01*
X123245514Y-87122116D01*
X123273291Y-87176633D01*
X123274510Y-87192120D01*
X123274510Y-87304047D01*
X123255603Y-87362238D01*
X123245514Y-87374051D01*
X122876061Y-87743504D01*
X122821544Y-87771281D01*
X122806057Y-87772500D01*
X122225124Y-87772500D01*
X122166933Y-87753593D01*
X122130969Y-87704093D01*
X122128026Y-87692814D01*
X122118867Y-87646769D01*
X122122517Y-87646043D01*
X122119124Y-87602960D01*
X122133075Y-87571065D01*
X122160078Y-87530653D01*
X122167397Y-87512983D01*
X122179052Y-87454388D01*
X122180000Y-87444766D01*
X122180000Y-87240680D01*
X122175878Y-87227995D01*
X122171757Y-87225000D01*
X120635680Y-87225000D01*
X120622995Y-87229122D01*
X120620000Y-87233243D01*
X120620000Y-87444766D01*
X120620948Y-87454388D01*
X120632603Y-87512983D01*
X120639922Y-87530653D01*
X120666925Y-87571065D01*
X120683534Y-87629953D01*
X120679898Y-87646523D01*
X120681133Y-87646769D01*
X120669500Y-87705252D01*
X120669500Y-88291765D01*
X120650593Y-88349956D01*
X120601093Y-88385920D01*
X120539907Y-88385920D01*
X120490407Y-88349956D01*
X120487229Y-88345061D01*
X120485439Y-88340741D01*
X120392231Y-88219269D01*
X120270759Y-88126061D01*
X120129302Y-88067467D01*
X120016577Y-88052627D01*
X119961353Y-88026286D01*
X119932158Y-87972516D01*
X119930500Y-87954474D01*
X119930500Y-87705252D01*
X119918867Y-87646769D01*
X119874552Y-87580448D01*
X119808231Y-87536133D01*
X119798668Y-87534231D01*
X119798666Y-87534230D01*
X119775995Y-87529721D01*
X119749748Y-87524500D01*
X118650252Y-87524500D01*
X118624005Y-87529721D01*
X118601334Y-87534230D01*
X118601332Y-87534231D01*
X118591769Y-87536133D01*
X118525448Y-87580448D01*
X118520029Y-87588558D01*
X118513137Y-87595450D01*
X118510181Y-87592494D01*
X118477460Y-87618345D01*
X118443097Y-87624500D01*
X118188522Y-87624500D01*
X118179893Y-87624123D01*
X118149822Y-87621492D01*
X118141193Y-87620737D01*
X118103657Y-87630795D01*
X118095231Y-87632663D01*
X118086038Y-87634284D01*
X118056955Y-87639412D01*
X118049450Y-87643745D01*
X118043973Y-87645738D01*
X118038682Y-87648205D01*
X118030316Y-87650447D01*
X117998484Y-87672736D01*
X117991206Y-87677372D01*
X117965044Y-87692476D01*
X117965042Y-87692477D01*
X117957545Y-87696806D01*
X117956647Y-87697876D01*
X117903701Y-87719269D01*
X117896794Y-87719510D01*
X117627541Y-87719510D01*
X117569350Y-87700603D01*
X117533386Y-87651102D01*
X117525878Y-87627994D01*
X117521757Y-87625000D01*
X116959000Y-87625000D01*
X116900809Y-87606093D01*
X116864845Y-87556593D01*
X116860000Y-87526000D01*
X116860000Y-87474000D01*
X116878907Y-87415809D01*
X116928407Y-87379845D01*
X116959000Y-87375000D01*
X117514320Y-87375000D01*
X117527005Y-87370878D01*
X117530000Y-87366757D01*
X117530000Y-87300109D01*
X117529391Y-87292370D01*
X117516476Y-87210830D01*
X117511720Y-87196193D01*
X117510320Y-87193445D01*
X117509837Y-87190398D01*
X117509312Y-87188781D01*
X117509568Y-87188698D01*
X117500748Y-87133014D01*
X117528524Y-87078497D01*
X117583040Y-87050718D01*
X117598529Y-87049499D01*
X118457467Y-87049499D01*
X118466096Y-87049876D01*
X118504808Y-87053263D01*
X118514306Y-87050718D01*
X118542350Y-87043203D01*
X118550785Y-87041333D01*
X118580518Y-87036091D01*
X118580520Y-87036090D01*
X118589046Y-87034587D01*
X118596545Y-87030257D01*
X118602030Y-87028261D01*
X118607317Y-87025795D01*
X118615685Y-87023553D01*
X118647512Y-87001267D01*
X118654796Y-86996626D01*
X118661028Y-86993028D01*
X118688456Y-86977193D01*
X118713432Y-86947428D01*
X118719266Y-86941060D01*
X118955830Y-86704496D01*
X119010347Y-86676719D01*
X119025834Y-86675500D01*
X119749748Y-86675500D01*
X119775995Y-86670279D01*
X119798666Y-86665770D01*
X119798668Y-86665769D01*
X119808231Y-86663867D01*
X119874552Y-86619552D01*
X119918867Y-86553231D01*
X119921809Y-86538444D01*
X119926793Y-86513382D01*
X119930500Y-86494748D01*
X119930500Y-85805252D01*
X119918867Y-85746769D01*
X119874552Y-85680448D01*
X119808231Y-85636133D01*
X119798668Y-85634231D01*
X119798666Y-85634230D01*
X119775995Y-85629721D01*
X119749748Y-85624500D01*
X118650252Y-85624500D01*
X118624005Y-85629721D01*
X118601334Y-85634230D01*
X118601332Y-85634231D01*
X118591769Y-85636133D01*
X118525448Y-85680448D01*
X118481133Y-85746769D01*
X118469500Y-85805252D01*
X118469500Y-86229166D01*
X118450593Y-86287357D01*
X118440504Y-86299170D01*
X118370171Y-86369503D01*
X118315654Y-86397280D01*
X118300167Y-86398499D01*
X117615074Y-86398499D01*
X117556883Y-86379592D01*
X117520919Y-86330092D01*
X117517293Y-86284012D01*
X117529391Y-86207630D01*
X117530000Y-86199891D01*
X117530000Y-86140680D01*
X117525878Y-86127995D01*
X117521757Y-86125000D01*
X116959000Y-86125000D01*
X116900809Y-86106093D01*
X116864845Y-86056593D01*
X116860000Y-86026000D01*
X116860000Y-85859320D01*
X117110000Y-85859320D01*
X117114122Y-85872005D01*
X117118243Y-85875000D01*
X117514320Y-85875000D01*
X117527005Y-85870878D01*
X117530000Y-85866757D01*
X117530000Y-85800109D01*
X117529391Y-85792370D01*
X117516476Y-85710830D01*
X117511721Y-85696194D01*
X117461629Y-85597882D01*
X117452587Y-85585437D01*
X117374563Y-85507413D01*
X117362118Y-85498371D01*
X117263806Y-85448279D01*
X117249170Y-85443524D01*
X117167630Y-85430609D01*
X117159891Y-85430000D01*
X117125680Y-85430000D01*
X117112995Y-85434122D01*
X117110000Y-85438243D01*
X117110000Y-85859320D01*
X116860000Y-85859320D01*
X116860000Y-85445680D01*
X116855878Y-85432995D01*
X116851757Y-85430000D01*
X116810109Y-85430000D01*
X116802372Y-85430609D01*
X116767465Y-85436138D01*
X116707033Y-85426567D01*
X116663768Y-85383303D01*
X116654196Y-85322871D01*
X116681973Y-85268353D01*
X116717057Y-85233269D01*
X116723425Y-85227434D01*
X116733047Y-85219360D01*
X116753194Y-85202455D01*
X116772629Y-85168792D01*
X116777268Y-85161511D01*
X116791254Y-85141537D01*
X116799554Y-85129684D01*
X116801796Y-85121319D01*
X116804258Y-85116039D01*
X116806257Y-85110548D01*
X116810588Y-85103045D01*
X116812092Y-85094514D01*
X116815054Y-85086377D01*
X116818462Y-85087617D01*
X116839462Y-85048101D01*
X116894449Y-85021267D01*
X116908249Y-85020300D01*
X116999365Y-85020300D01*
X117029529Y-85014300D01*
X117048288Y-85010569D01*
X117048290Y-85010568D01*
X117057848Y-85008667D01*
X117065953Y-85003251D01*
X117072230Y-85000651D01*
X117133227Y-84995849D01*
X117148004Y-85000651D01*
X117154281Y-85003251D01*
X117162386Y-85008667D01*
X117171944Y-85010568D01*
X117171946Y-85010569D01*
X117190705Y-85014300D01*
X117220869Y-85020300D01*
X118149365Y-85020300D01*
X118179528Y-85014300D01*
X118240289Y-85021492D01*
X118253843Y-85029083D01*
X118284961Y-85049875D01*
X118302638Y-85057198D01*
X118361230Y-85068852D01*
X118370852Y-85069800D01*
X118694438Y-85069800D01*
X118707123Y-85065678D01*
X118710118Y-85061557D01*
X118710118Y-85054120D01*
X118960118Y-85054120D01*
X118964240Y-85066805D01*
X118968361Y-85069800D01*
X119299384Y-85069800D01*
X119309006Y-85068852D01*
X119367601Y-85057197D01*
X119385269Y-85049878D01*
X119451748Y-85005459D01*
X119465277Y-84991930D01*
X119509696Y-84925451D01*
X119517015Y-84907783D01*
X119528670Y-84849188D01*
X119529618Y-84839566D01*
X119529618Y-84655680D01*
X119525496Y-84642995D01*
X119521375Y-84640000D01*
X118975798Y-84640000D01*
X118963113Y-84644122D01*
X118960118Y-84648243D01*
X118960118Y-85054120D01*
X118710118Y-85054120D01*
X118710118Y-84374320D01*
X118960118Y-84374320D01*
X118964240Y-84387005D01*
X118968361Y-84390000D01*
X119513938Y-84390000D01*
X119526623Y-84385878D01*
X119529618Y-84381757D01*
X119529618Y-84190434D01*
X119528670Y-84180812D01*
X119517015Y-84122217D01*
X119509696Y-84104549D01*
X119465277Y-84038070D01*
X119451748Y-84024541D01*
X119385269Y-83980122D01*
X119367601Y-83972803D01*
X119309006Y-83961148D01*
X119299384Y-83960200D01*
X118975798Y-83960200D01*
X118963113Y-83964322D01*
X118960118Y-83968443D01*
X118960118Y-84374320D01*
X118710118Y-84374320D01*
X118710118Y-83975880D01*
X118705996Y-83963195D01*
X118701875Y-83960200D01*
X118370852Y-83960200D01*
X118361230Y-83961148D01*
X118302638Y-83972802D01*
X118284961Y-83980125D01*
X118253843Y-84000917D01*
X118194955Y-84017526D01*
X118179532Y-84015701D01*
X118149365Y-84009700D01*
X117220869Y-84009700D01*
X117194469Y-84014951D01*
X117171946Y-84019431D01*
X117171944Y-84019432D01*
X117162386Y-84021333D01*
X117154281Y-84026749D01*
X117148004Y-84029349D01*
X117087007Y-84034151D01*
X117072230Y-84029349D01*
X117065953Y-84026749D01*
X117057848Y-84021333D01*
X117048290Y-84019432D01*
X117048288Y-84019431D01*
X117025765Y-84014951D01*
X116999365Y-84009700D01*
X116070869Y-84009700D01*
X116044469Y-84014951D01*
X116021946Y-84019431D01*
X116021944Y-84019432D01*
X116012386Y-84021333D01*
X116004281Y-84026749D01*
X115998004Y-84029349D01*
X115937007Y-84034151D01*
X115922230Y-84029349D01*
X115915953Y-84026749D01*
X115907848Y-84021333D01*
X115898290Y-84019432D01*
X115898288Y-84019431D01*
X115875765Y-84014951D01*
X115849365Y-84009700D01*
X114920869Y-84009700D01*
X114894469Y-84014951D01*
X114871946Y-84019431D01*
X114871944Y-84019432D01*
X114862386Y-84021333D01*
X114854281Y-84026749D01*
X114848004Y-84029349D01*
X114787007Y-84034151D01*
X114772230Y-84029349D01*
X114765953Y-84026749D01*
X114757848Y-84021333D01*
X114748290Y-84019432D01*
X114748288Y-84019431D01*
X114725765Y-84014951D01*
X114699365Y-84009700D01*
X113770869Y-84009700D01*
X113712386Y-84021333D01*
X113704279Y-84026750D01*
X113698002Y-84029350D01*
X113637005Y-84034151D01*
X113622229Y-84029349D01*
X113615952Y-84026749D01*
X113607847Y-84021333D01*
X113598289Y-84019432D01*
X113598287Y-84019431D01*
X113575764Y-84014951D01*
X113549364Y-84009700D01*
X112620868Y-84009700D01*
X112594468Y-84014951D01*
X112571945Y-84019431D01*
X112571943Y-84019432D01*
X112562385Y-84021333D01*
X112554280Y-84026749D01*
X112548003Y-84029349D01*
X112487006Y-84034151D01*
X112472229Y-84029349D01*
X112465952Y-84026749D01*
X112457847Y-84021333D01*
X112448289Y-84019432D01*
X112448287Y-84019431D01*
X112425764Y-84014951D01*
X112399364Y-84009700D01*
X111470868Y-84009700D01*
X111444468Y-84014951D01*
X111421945Y-84019431D01*
X111421943Y-84019432D01*
X111412385Y-84021333D01*
X111404280Y-84026749D01*
X111398003Y-84029349D01*
X111337006Y-84034151D01*
X111322229Y-84029349D01*
X111315952Y-84026749D01*
X111307847Y-84021333D01*
X111298289Y-84019432D01*
X111298287Y-84019431D01*
X111275764Y-84014951D01*
X111249364Y-84009700D01*
X110320868Y-84009700D01*
X110294468Y-84014951D01*
X110271945Y-84019431D01*
X110271943Y-84019432D01*
X110262385Y-84021333D01*
X110254280Y-84026749D01*
X110248003Y-84029349D01*
X110187006Y-84034151D01*
X110172229Y-84029349D01*
X110165952Y-84026749D01*
X110157847Y-84021333D01*
X110148289Y-84019432D01*
X110148287Y-84019431D01*
X110125764Y-84014951D01*
X110099364Y-84009700D01*
X109170868Y-84009700D01*
X109144621Y-84014921D01*
X109121950Y-84019430D01*
X109121948Y-84019431D01*
X109112385Y-84021333D01*
X109046064Y-84065648D01*
X109001749Y-84131969D01*
X108999847Y-84141532D01*
X108999846Y-84141534D01*
X108995904Y-84161353D01*
X108990116Y-84190452D01*
X108990116Y-84839548D01*
X108991064Y-84844312D01*
X108999831Y-84888388D01*
X109001749Y-84898031D01*
X109046064Y-84964352D01*
X109112385Y-85008667D01*
X109121948Y-85010569D01*
X109121950Y-85010570D01*
X109140704Y-85014300D01*
X109170868Y-85020300D01*
X110099364Y-85020300D01*
X110129528Y-85014300D01*
X110148287Y-85010569D01*
X110148289Y-85010568D01*
X110157847Y-85008667D01*
X110165952Y-85003251D01*
X110172229Y-85000651D01*
X110233226Y-84995849D01*
X110248003Y-85000651D01*
X110254280Y-85003251D01*
X110262385Y-85008667D01*
X110271943Y-85010568D01*
X110271945Y-85010569D01*
X110290704Y-85014300D01*
X110320868Y-85020300D01*
X111249364Y-85020300D01*
X111279528Y-85014300D01*
X111298287Y-85010569D01*
X111298289Y-85010568D01*
X111307847Y-85008667D01*
X111315952Y-85003251D01*
X111322229Y-85000651D01*
X111383226Y-84995849D01*
X111398003Y-85000651D01*
X111404280Y-85003251D01*
X111412385Y-85008667D01*
X111421943Y-85010568D01*
X111421945Y-85010569D01*
X111440704Y-85014300D01*
X111470868Y-85020300D01*
X112399364Y-85020300D01*
X112429528Y-85014300D01*
X112448287Y-85010569D01*
X112448289Y-85010568D01*
X112457847Y-85008667D01*
X112465952Y-85003251D01*
X112472229Y-85000651D01*
X112533226Y-84995849D01*
X112548003Y-85000651D01*
X112554280Y-85003251D01*
X112562385Y-85008667D01*
X112571943Y-85010568D01*
X112571945Y-85010569D01*
X112590704Y-85014300D01*
X112620868Y-85020300D01*
X113549364Y-85020300D01*
X113607847Y-85008667D01*
X113615954Y-85003250D01*
X113622231Y-85000650D01*
X113683228Y-84995849D01*
X113698004Y-85000651D01*
X113704281Y-85003251D01*
X113712386Y-85008667D01*
X113721944Y-85010568D01*
X113721946Y-85010569D01*
X113740705Y-85014300D01*
X113770869Y-85020300D01*
X113892045Y-85020300D01*
X113950236Y-85039207D01*
X113986200Y-85088707D01*
X113986200Y-85149893D01*
X113950236Y-85199393D01*
X113942885Y-85204248D01*
X113917635Y-85219360D01*
X113917631Y-85219363D01*
X113912505Y-85222431D01*
X113908263Y-85226629D01*
X113908259Y-85226632D01*
X113899104Y-85235692D01*
X113834622Y-85299503D01*
X113834253Y-85299868D01*
X113779592Y-85327360D01*
X113764617Y-85328499D01*
X108475163Y-85328499D01*
X108416972Y-85309592D01*
X108405159Y-85299503D01*
X107681245Y-84575588D01*
X107653468Y-84521071D01*
X107662306Y-84462110D01*
X107710608Y-84363294D01*
X107720500Y-84295486D01*
X107720500Y-84231357D01*
X107739407Y-84173166D01*
X107749496Y-84161353D01*
X108321842Y-83589007D01*
X108376359Y-83561230D01*
X108391846Y-83560011D01*
X108860060Y-83560011D01*
X108886307Y-83554790D01*
X108908978Y-83550281D01*
X108908980Y-83550280D01*
X108918543Y-83548378D01*
X108984864Y-83504063D01*
X109029179Y-83437742D01*
X109040812Y-83379259D01*
X109040812Y-82450763D01*
X109029179Y-82392280D01*
X109023763Y-82384175D01*
X109021163Y-82377898D01*
X109016361Y-82316901D01*
X109021163Y-82302124D01*
X109023763Y-82295847D01*
X109029179Y-82287742D01*
X109040812Y-82229259D01*
X109040812Y-81300763D01*
X109029179Y-81242280D01*
X109023762Y-81234173D01*
X109021162Y-81227896D01*
X109016361Y-81166899D01*
X109021163Y-81152123D01*
X109023763Y-81145846D01*
X109029179Y-81137741D01*
X109040812Y-81079258D01*
X109040812Y-80499766D01*
X111210000Y-80499766D01*
X111210948Y-80509388D01*
X111222603Y-80567983D01*
X111229922Y-80585651D01*
X111274341Y-80652130D01*
X111287870Y-80665659D01*
X111354349Y-80710078D01*
X111372017Y-80717397D01*
X111430612Y-80729052D01*
X111440234Y-80730000D01*
X112069320Y-80730000D01*
X112082005Y-80725878D01*
X112085000Y-80721757D01*
X112085000Y-80714320D01*
X112335000Y-80714320D01*
X112339122Y-80727005D01*
X112343243Y-80730000D01*
X112979766Y-80730000D01*
X112989385Y-80729053D01*
X113040696Y-80718846D01*
X113079326Y-80718846D01*
X113130637Y-80729053D01*
X113140256Y-80730000D01*
X113769342Y-80730000D01*
X113782027Y-80725878D01*
X113785022Y-80721757D01*
X113785022Y-80714320D01*
X114035022Y-80714320D01*
X114039144Y-80727005D01*
X114043265Y-80730000D01*
X114679788Y-80730000D01*
X114689410Y-80729052D01*
X114748005Y-80717397D01*
X114765673Y-80710078D01*
X114832152Y-80665659D01*
X114845681Y-80652130D01*
X114890100Y-80585651D01*
X114897419Y-80567983D01*
X114909074Y-80509388D01*
X114910022Y-80499766D01*
X114910022Y-79870680D01*
X114905900Y-79857995D01*
X114901779Y-79855000D01*
X114050702Y-79855000D01*
X114038017Y-79859122D01*
X114035022Y-79863243D01*
X114035022Y-80714320D01*
X113785022Y-80714320D01*
X113785022Y-79870680D01*
X113780900Y-79857995D01*
X113776779Y-79855000D01*
X112350680Y-79855000D01*
X112337995Y-79859122D01*
X112335000Y-79863243D01*
X112335000Y-80714320D01*
X112085000Y-80714320D01*
X112085000Y-79870680D01*
X112080878Y-79857995D01*
X112076757Y-79855000D01*
X111225680Y-79855000D01*
X111212995Y-79859122D01*
X111210000Y-79863243D01*
X111210000Y-80499766D01*
X109040812Y-80499766D01*
X109040812Y-80150762D01*
X109035561Y-80124362D01*
X109031081Y-80101839D01*
X109031080Y-80101837D01*
X109029179Y-80092279D01*
X109023763Y-80084174D01*
X109021163Y-80077897D01*
X109016361Y-80016900D01*
X109021163Y-80002123D01*
X109023763Y-79995846D01*
X109029179Y-79987741D01*
X109031507Y-79976040D01*
X109035561Y-79955658D01*
X109040812Y-79929258D01*
X109040812Y-79589320D01*
X111210000Y-79589320D01*
X111214122Y-79602005D01*
X111218243Y-79605000D01*
X112069320Y-79605000D01*
X112082005Y-79600878D01*
X112085000Y-79596757D01*
X112085000Y-79589320D01*
X112335000Y-79589320D01*
X112339122Y-79602005D01*
X112343243Y-79605000D01*
X113769342Y-79605000D01*
X113782027Y-79600878D01*
X113785022Y-79596757D01*
X113785022Y-79589320D01*
X114035022Y-79589320D01*
X114039144Y-79602005D01*
X114043265Y-79605000D01*
X114894342Y-79605000D01*
X114907027Y-79600878D01*
X114910022Y-79596757D01*
X114910022Y-78960234D01*
X114909074Y-78950613D01*
X114898905Y-78899488D01*
X114898905Y-78860860D01*
X114909163Y-78809288D01*
X114910111Y-78799666D01*
X114910111Y-78170580D01*
X114905989Y-78157895D01*
X114901868Y-78154900D01*
X114050791Y-78154900D01*
X114038106Y-78159022D01*
X114035111Y-78163143D01*
X114035111Y-79069338D01*
X114035022Y-79070469D01*
X114035022Y-79589320D01*
X113785022Y-79589320D01*
X113785022Y-78690562D01*
X113785111Y-78689431D01*
X113785111Y-78170580D01*
X113780989Y-78157895D01*
X113776868Y-78154900D01*
X113250436Y-78154900D01*
X113249804Y-78155000D01*
X112350792Y-78155000D01*
X112338107Y-78159122D01*
X112335112Y-78163243D01*
X112335112Y-79069293D01*
X112335000Y-79070716D01*
X112335000Y-79589320D01*
X112085000Y-79589320D01*
X112085000Y-78690707D01*
X112085112Y-78689284D01*
X112085112Y-78170680D01*
X112080990Y-78157995D01*
X112076869Y-78155000D01*
X111225792Y-78155000D01*
X111213107Y-78159122D01*
X111210112Y-78163243D01*
X111210112Y-78799766D01*
X111211059Y-78809385D01*
X111221208Y-78860403D01*
X111221208Y-78899033D01*
X111210947Y-78950615D01*
X111210000Y-78960234D01*
X111210000Y-79589320D01*
X109040812Y-79589320D01*
X109040812Y-79000762D01*
X109035023Y-78971661D01*
X109031081Y-78951839D01*
X109031080Y-78951837D01*
X109029179Y-78942279D01*
X109023763Y-78934174D01*
X109021163Y-78927897D01*
X109016361Y-78866900D01*
X109021163Y-78852123D01*
X109023763Y-78845846D01*
X109029179Y-78837741D01*
X109032300Y-78822054D01*
X109036733Y-78799766D01*
X109040812Y-78779258D01*
X109040812Y-77889320D01*
X111210112Y-77889320D01*
X111214234Y-77902005D01*
X111218355Y-77905000D01*
X112069432Y-77905000D01*
X112082117Y-77900878D01*
X112085112Y-77896757D01*
X112085112Y-77889320D01*
X112335112Y-77889320D01*
X112339234Y-77902005D01*
X112343355Y-77905000D01*
X112869787Y-77905000D01*
X112870419Y-77904900D01*
X113769431Y-77904900D01*
X113782116Y-77900778D01*
X113785111Y-77896657D01*
X113785111Y-77889220D01*
X114035111Y-77889220D01*
X114039233Y-77901905D01*
X114043354Y-77904900D01*
X114894431Y-77904900D01*
X114907116Y-77900778D01*
X114910111Y-77896657D01*
X114910111Y-77260134D01*
X114909163Y-77250512D01*
X114897508Y-77191917D01*
X114890189Y-77174249D01*
X114845770Y-77107770D01*
X114832241Y-77094241D01*
X114765762Y-77049822D01*
X114748094Y-77042503D01*
X114689499Y-77030848D01*
X114679877Y-77029900D01*
X114050791Y-77029900D01*
X114038106Y-77034022D01*
X114035111Y-77038143D01*
X114035111Y-77889220D01*
X113785111Y-77889220D01*
X113785111Y-77045580D01*
X113780989Y-77032895D01*
X113776868Y-77029900D01*
X113140345Y-77029900D01*
X113130721Y-77030848D01*
X113079173Y-77041101D01*
X113040547Y-77041101D01*
X112989502Y-77030948D01*
X112979878Y-77030000D01*
X112350792Y-77030000D01*
X112338107Y-77034122D01*
X112335112Y-77038243D01*
X112335112Y-77889320D01*
X112085112Y-77889320D01*
X112085112Y-77045680D01*
X112080990Y-77032995D01*
X112076869Y-77030000D01*
X111440346Y-77030000D01*
X111430724Y-77030948D01*
X111372129Y-77042603D01*
X111354461Y-77049922D01*
X111287982Y-77094341D01*
X111274453Y-77107870D01*
X111230034Y-77174349D01*
X111222715Y-77192017D01*
X111211060Y-77250612D01*
X111210112Y-77260234D01*
X111210112Y-77889320D01*
X109040812Y-77889320D01*
X109040812Y-77850762D01*
X109029179Y-77792279D01*
X109023763Y-77784174D01*
X109021163Y-77777897D01*
X109016361Y-77716900D01*
X109021163Y-77702123D01*
X109023763Y-77695846D01*
X109029179Y-77687741D01*
X109040812Y-77629258D01*
X109040812Y-76700762D01*
X109029179Y-76642279D01*
X109023762Y-76634172D01*
X109021162Y-76627895D01*
X109016361Y-76566898D01*
X109021163Y-76552122D01*
X109023763Y-76545845D01*
X109029179Y-76537740D01*
X109040812Y-76479257D01*
X109040812Y-75550761D01*
X109029179Y-75492278D01*
X108984864Y-75425957D01*
X108918543Y-75381642D01*
X108908980Y-75379740D01*
X108908978Y-75379739D01*
X108892698Y-75376501D01*
X108839314Y-75346604D01*
X108813698Y-75291039D01*
X108813012Y-75279403D01*
X108813012Y-74835115D01*
X108831919Y-74776924D01*
X108881419Y-74740960D01*
X108942605Y-74740960D01*
X108992105Y-74776924D01*
X109000550Y-74792005D01*
X109001749Y-74798031D01*
X109046064Y-74864352D01*
X109112385Y-74908667D01*
X109121948Y-74910569D01*
X109121950Y-74910570D01*
X109140709Y-74914301D01*
X109170868Y-74920300D01*
X110099364Y-74920300D01*
X110129523Y-74914301D01*
X110148287Y-74910569D01*
X110148289Y-74910568D01*
X110157847Y-74908667D01*
X110165952Y-74903251D01*
X110172229Y-74900651D01*
X110233226Y-74895849D01*
X110248003Y-74900651D01*
X110254280Y-74903251D01*
X110262385Y-74908667D01*
X110271943Y-74910568D01*
X110271945Y-74910569D01*
X110290709Y-74914301D01*
X110320868Y-74920300D01*
X111249364Y-74920300D01*
X111279523Y-74914301D01*
X111298287Y-74910569D01*
X111298289Y-74910568D01*
X111307847Y-74908667D01*
X111315952Y-74903251D01*
X111322229Y-74900651D01*
X111383226Y-74895849D01*
X111398003Y-74900651D01*
X111404280Y-74903251D01*
X111412385Y-74908667D01*
X111421943Y-74910568D01*
X111421945Y-74910569D01*
X111440709Y-74914301D01*
X111470868Y-74920300D01*
X112399364Y-74920300D01*
X112429523Y-74914301D01*
X112448287Y-74910569D01*
X112448289Y-74910568D01*
X112457847Y-74908667D01*
X112465952Y-74903251D01*
X112472229Y-74900651D01*
X112533226Y-74895849D01*
X112548003Y-74900651D01*
X112554280Y-74903251D01*
X112562385Y-74908667D01*
X112571943Y-74910568D01*
X112571945Y-74910569D01*
X112590709Y-74914301D01*
X112620868Y-74920300D01*
X113549364Y-74920300D01*
X113607847Y-74908667D01*
X113615954Y-74903250D01*
X113622231Y-74900650D01*
X113683228Y-74895849D01*
X113698004Y-74900651D01*
X113704281Y-74903251D01*
X113712386Y-74908667D01*
X113721944Y-74910568D01*
X113721946Y-74910569D01*
X113740710Y-74914301D01*
X113770869Y-74920300D01*
X114699365Y-74920300D01*
X114729524Y-74914301D01*
X114748288Y-74910569D01*
X114748290Y-74910568D01*
X114757848Y-74908667D01*
X114765953Y-74903251D01*
X114772230Y-74900651D01*
X114833227Y-74895849D01*
X114848004Y-74900651D01*
X114854281Y-74903251D01*
X114862386Y-74908667D01*
X114871944Y-74910568D01*
X114871946Y-74910569D01*
X114890710Y-74914301D01*
X114920869Y-74920300D01*
X115849365Y-74920300D01*
X115854126Y-74919353D01*
X115854136Y-74919352D01*
X115879526Y-74914301D01*
X115940287Y-74921491D01*
X115953843Y-74929083D01*
X115984965Y-74949878D01*
X116002634Y-74957197D01*
X116061229Y-74968852D01*
X116070851Y-74969800D01*
X116394437Y-74969800D01*
X116407122Y-74965678D01*
X116410117Y-74961557D01*
X116410117Y-73875880D01*
X116405995Y-73863195D01*
X116399784Y-73858682D01*
X116348443Y-73832523D01*
X116320665Y-73778007D01*
X116330236Y-73717575D01*
X116373500Y-73674310D01*
X116418446Y-73663519D01*
X116526849Y-73663519D01*
X116530252Y-73663769D01*
X116534702Y-73665297D01*
X116580202Y-73663589D01*
X116583915Y-73663519D01*
X116601753Y-73663519D01*
X116605929Y-73662741D01*
X116610253Y-73662461D01*
X116620447Y-73662078D01*
X116628872Y-73661762D01*
X116628873Y-73661762D01*
X116638007Y-73661419D01*
X116646405Y-73657811D01*
X116646409Y-73657810D01*
X116647002Y-73657555D01*
X116667946Y-73651191D01*
X116677573Y-73649398D01*
X116698030Y-73636788D01*
X116710900Y-73630102D01*
X116726575Y-73623368D01*
X116726577Y-73623367D01*
X116732989Y-73620612D01*
X116737496Y-73616911D01*
X116740907Y-73613500D01*
X116756045Y-73601535D01*
X116757795Y-73599948D01*
X116765574Y-73595153D01*
X116781571Y-73574116D01*
X116790371Y-73564036D01*
X117861507Y-72492899D01*
X117864090Y-72490670D01*
X117868318Y-72488603D01*
X117899285Y-72455220D01*
X117901862Y-72452544D01*
X117914473Y-72439933D01*
X117916875Y-72436432D01*
X117919739Y-72433170D01*
X117922593Y-72430094D01*
X117938623Y-72412813D01*
X117942247Y-72403730D01*
X117952566Y-72384405D01*
X117952930Y-72383874D01*
X117952930Y-72383873D01*
X117958101Y-72376336D01*
X117963652Y-72352945D01*
X117968025Y-72339119D01*
X117974342Y-72323285D01*
X117976931Y-72316796D01*
X117977500Y-72310992D01*
X117977500Y-72306174D01*
X117979745Y-72286992D01*
X117979860Y-72284645D01*
X117981970Y-72275752D01*
X117978404Y-72249548D01*
X117977500Y-72236199D01*
X117977500Y-72015604D01*
X117994780Y-71962419D01*
X119070132Y-71962419D01*
X119075876Y-71968822D01*
X119155065Y-72020641D01*
X119164894Y-72025607D01*
X119312221Y-72080397D01*
X119322900Y-72083059D01*
X119478708Y-72103848D01*
X119489702Y-72104079D01*
X119646255Y-72089832D01*
X119657023Y-72087622D01*
X119806524Y-72039046D01*
X119816547Y-72034499D01*
X119922852Y-71971129D01*
X119931112Y-71961694D01*
X119926424Y-71953201D01*
X119511086Y-71537863D01*
X119499203Y-71531809D01*
X119494172Y-71532605D01*
X119076130Y-71950647D01*
X119070132Y-71962419D01*
X117994780Y-71962419D01*
X117996407Y-71957413D01*
X118032017Y-71927160D01*
X118085165Y-71900429D01*
X118090498Y-71897747D01*
X118095035Y-71893872D01*
X118095038Y-71893870D01*
X118214888Y-71791508D01*
X118214891Y-71791505D01*
X118219423Y-71787634D01*
X118226205Y-71778196D01*
X118314877Y-71654796D01*
X118314878Y-71654794D01*
X118318361Y-71649947D01*
X118324723Y-71634123D01*
X118379377Y-71498167D01*
X118379378Y-71498165D01*
X118381601Y-71492634D01*
X118385641Y-71464246D01*
X118402617Y-71344966D01*
X118745868Y-71344966D01*
X118761207Y-71501413D01*
X118763494Y-71512172D01*
X118813113Y-71661331D01*
X118817726Y-71671313D01*
X118879076Y-71772614D01*
X118888653Y-71780881D01*
X118896973Y-71776250D01*
X119312137Y-71361086D01*
X119318191Y-71349203D01*
X119317395Y-71344172D01*
X118899193Y-70925970D01*
X118887519Y-70920022D01*
X118880999Y-70925914D01*
X118826962Y-71009763D01*
X118822074Y-71019609D01*
X118768309Y-71167327D01*
X118765722Y-71178020D01*
X118746022Y-71333972D01*
X118745868Y-71344966D01*
X118402617Y-71344966D01*
X118405034Y-71327985D01*
X118405034Y-71327979D01*
X118405490Y-71324778D01*
X118405645Y-71310000D01*
X118393147Y-71206719D01*
X118385993Y-71147602D01*
X118385992Y-71147599D01*
X118385276Y-71141680D01*
X118325345Y-70983077D01*
X118316006Y-70969488D01*
X118232692Y-70848267D01*
X118229312Y-70843349D01*
X118112162Y-70738972D01*
X119069324Y-70738972D01*
X119073895Y-70747118D01*
X119488914Y-71162137D01*
X119500797Y-71168191D01*
X119505828Y-71167395D01*
X119924216Y-70749007D01*
X119930113Y-70737432D01*
X119924074Y-70730795D01*
X119835533Y-70674605D01*
X119825647Y-70669783D01*
X119677556Y-70617050D01*
X119666857Y-70614540D01*
X119510765Y-70595927D01*
X119499764Y-70595851D01*
X119343433Y-70612283D01*
X119332687Y-70614646D01*
X119183887Y-70665300D01*
X119173930Y-70669985D01*
X119077598Y-70729250D01*
X119069324Y-70738972D01*
X118112162Y-70738972D01*
X118102721Y-70730560D01*
X117952881Y-70651224D01*
X117870661Y-70630572D01*
X117794231Y-70611373D01*
X117794228Y-70611373D01*
X117788441Y-70609919D01*
X117702841Y-70609471D01*
X117624861Y-70609062D01*
X117624859Y-70609062D01*
X117618895Y-70609031D01*
X117613099Y-70610423D01*
X117613095Y-70610423D01*
X117505703Y-70636207D01*
X117454032Y-70648612D01*
X117440013Y-70655848D01*
X117308675Y-70723636D01*
X117308673Y-70723638D01*
X117303369Y-70726375D01*
X117175604Y-70837831D01*
X117172173Y-70842713D01*
X117172172Y-70842714D01*
X117115037Y-70924009D01*
X117078113Y-70976547D01*
X117016524Y-71134513D01*
X116994394Y-71302611D01*
X116995049Y-71308544D01*
X116995049Y-71308548D01*
X117012238Y-71464246D01*
X117012999Y-71471135D01*
X117071266Y-71630356D01*
X117074591Y-71635305D01*
X117074592Y-71635306D01*
X117092947Y-71662621D01*
X117165830Y-71771083D01*
X117291233Y-71885191D01*
X117370739Y-71928359D01*
X117412856Y-71972741D01*
X117422500Y-72015362D01*
X117422500Y-72106010D01*
X117403593Y-72164201D01*
X117393504Y-72176014D01*
X117199077Y-72370441D01*
X117144560Y-72398218D01*
X117084128Y-72388647D01*
X117040863Y-72345382D01*
X117036464Y-72335431D01*
X117013913Y-72275752D01*
X117005345Y-72253077D01*
X116996006Y-72239488D01*
X116912692Y-72118267D01*
X116909312Y-72113349D01*
X116782721Y-72000560D01*
X116632881Y-71921224D01*
X116550094Y-71900429D01*
X116474231Y-71881373D01*
X116474228Y-71881373D01*
X116468441Y-71879919D01*
X116382841Y-71879471D01*
X116304861Y-71879062D01*
X116304859Y-71879062D01*
X116298895Y-71879031D01*
X116293099Y-71880423D01*
X116293095Y-71880423D01*
X116185703Y-71906207D01*
X116134032Y-71918612D01*
X116117471Y-71927160D01*
X115988675Y-71993636D01*
X115988673Y-71993638D01*
X115983369Y-71996375D01*
X115855604Y-72107831D01*
X115852173Y-72112713D01*
X115852172Y-72112714D01*
X115761544Y-72241665D01*
X115758113Y-72246547D01*
X115755945Y-72252108D01*
X115700821Y-72393493D01*
X115696524Y-72404513D01*
X115674394Y-72572611D01*
X115675049Y-72578544D01*
X115675049Y-72578548D01*
X115692999Y-72741135D01*
X115691097Y-72741345D01*
X115686682Y-72793880D01*
X115646699Y-72840194D01*
X115595420Y-72854509D01*
X115243438Y-72854509D01*
X115185247Y-72835602D01*
X115177620Y-72825105D01*
X115165641Y-72841593D01*
X115132850Y-72856432D01*
X115128119Y-72856610D01*
X115119724Y-72860217D01*
X115119722Y-72860217D01*
X115119123Y-72860474D01*
X115098181Y-72866836D01*
X115097543Y-72866955D01*
X115097540Y-72866956D01*
X115088553Y-72868630D01*
X115068087Y-72881246D01*
X115055223Y-72887927D01*
X115039561Y-72894655D01*
X115039557Y-72894658D01*
X115033136Y-72897416D01*
X115031507Y-72898754D01*
X114982483Y-72912500D01*
X113790681Y-72912500D01*
X113777996Y-72916622D01*
X113775001Y-72920743D01*
X113775001Y-73059935D01*
X113775220Y-73064578D01*
X113777535Y-73089072D01*
X113780100Y-73100768D01*
X113822354Y-73221091D01*
X113829199Y-73234019D01*
X113904153Y-73335497D01*
X113914503Y-73345847D01*
X114015981Y-73420801D01*
X114028909Y-73427646D01*
X114149228Y-73469898D01*
X114160931Y-73472466D01*
X114185426Y-73474782D01*
X114190062Y-73475000D01*
X114215740Y-73475000D01*
X114273931Y-73493907D01*
X114309895Y-73543407D01*
X114309895Y-73604593D01*
X114285745Y-73644002D01*
X114215796Y-73713951D01*
X114213219Y-73716175D01*
X114208991Y-73718242D01*
X114202776Y-73724941D01*
X114202777Y-73724941D01*
X114178036Y-73751612D01*
X114175459Y-73754288D01*
X114162836Y-73766911D01*
X114160431Y-73770416D01*
X114157569Y-73773675D01*
X114144903Y-73787329D01*
X114144901Y-73787332D01*
X114138686Y-73794032D01*
X114135299Y-73802521D01*
X114135059Y-73803123D01*
X114124744Y-73822440D01*
X114119209Y-73830509D01*
X114117098Y-73839406D01*
X114113397Y-73847757D01*
X114110593Y-73846514D01*
X114086654Y-73885811D01*
X114030188Y-73909374D01*
X114022161Y-73909700D01*
X113770869Y-73909700D01*
X113749503Y-73913950D01*
X113721946Y-73919431D01*
X113721944Y-73919432D01*
X113712386Y-73921333D01*
X113704281Y-73926749D01*
X113698004Y-73929349D01*
X113637007Y-73934151D01*
X113622231Y-73929350D01*
X113615954Y-73926750D01*
X113607847Y-73921333D01*
X113549364Y-73909700D01*
X113544506Y-73909700D01*
X113539796Y-73909236D01*
X113483739Y-73884716D01*
X113452800Y-73831929D01*
X113450500Y-73810713D01*
X113450500Y-73379163D01*
X113460557Y-73335687D01*
X113471885Y-73312512D01*
X113510608Y-73233294D01*
X113520500Y-73165486D01*
X113520500Y-72804514D01*
X113519817Y-72799869D01*
X113511552Y-72743729D01*
X113511551Y-72743727D01*
X113510431Y-72736116D01*
X113506653Y-72728420D01*
X113472264Y-72658378D01*
X113466589Y-72646820D01*
X113775000Y-72646820D01*
X113779122Y-72659505D01*
X113783243Y-72662500D01*
X114359320Y-72662500D01*
X114372005Y-72658378D01*
X114375000Y-72654257D01*
X114375000Y-72646820D01*
X114625000Y-72646820D01*
X114629122Y-72659505D01*
X114633243Y-72662500D01*
X115107450Y-72662500D01*
X115165641Y-72681407D01*
X115173268Y-72691904D01*
X115185247Y-72675416D01*
X115212846Y-72661354D01*
X115222004Y-72658378D01*
X115224999Y-72654257D01*
X115224999Y-72515065D01*
X115224780Y-72510422D01*
X115222465Y-72485928D01*
X115219900Y-72474232D01*
X115177646Y-72353909D01*
X115170801Y-72340981D01*
X115095847Y-72239503D01*
X115085497Y-72229153D01*
X114984019Y-72154199D01*
X114971091Y-72147354D01*
X114850772Y-72105102D01*
X114839069Y-72102534D01*
X114814574Y-72100218D01*
X114809938Y-72100000D01*
X114640680Y-72100000D01*
X114627995Y-72104122D01*
X114625000Y-72108243D01*
X114625000Y-72646820D01*
X114375000Y-72646820D01*
X114375000Y-72115681D01*
X114370878Y-72102996D01*
X114366757Y-72100001D01*
X114190065Y-72100001D01*
X114185422Y-72100220D01*
X114160928Y-72102535D01*
X114149232Y-72105100D01*
X114028909Y-72147354D01*
X114015981Y-72154199D01*
X113914503Y-72229153D01*
X113904153Y-72239503D01*
X113829199Y-72340981D01*
X113822354Y-72353909D01*
X113780102Y-72474228D01*
X113777534Y-72485931D01*
X113775218Y-72510426D01*
X113775000Y-72515062D01*
X113775000Y-72646820D01*
X113466589Y-72646820D01*
X113459372Y-72632120D01*
X113416756Y-72589578D01*
X113397245Y-72570101D01*
X113369420Y-72515609D01*
X113378939Y-72455169D01*
X113397124Y-72430094D01*
X113433662Y-72393493D01*
X113459730Y-72367379D01*
X113510608Y-72263294D01*
X113520500Y-72195486D01*
X113520500Y-72172611D01*
X113539407Y-72114420D01*
X113549496Y-72102607D01*
X113867681Y-71784422D01*
X113922198Y-71756645D01*
X113982630Y-71766216D01*
X113990835Y-71771244D01*
X113994249Y-71774658D01*
X114001189Y-71778194D01*
X114001192Y-71778196D01*
X114083904Y-71820340D01*
X114112580Y-71834951D01*
X114120273Y-71836170D01*
X114120275Y-71836170D01*
X114206908Y-71849891D01*
X114206910Y-71849891D01*
X114210754Y-71850500D01*
X114789246Y-71850500D01*
X114793090Y-71849891D01*
X114793092Y-71849891D01*
X114879725Y-71836170D01*
X114879727Y-71836170D01*
X114887420Y-71834951D01*
X114916096Y-71820340D01*
X114998812Y-71778194D01*
X114998814Y-71778193D01*
X115005751Y-71774658D01*
X115099658Y-71680751D01*
X115105151Y-71669972D01*
X115156415Y-71569360D01*
X115156415Y-71569359D01*
X115159951Y-71562420D01*
X115163841Y-71537863D01*
X115174891Y-71468092D01*
X115174891Y-71468090D01*
X115175500Y-71464246D01*
X115175500Y-70960754D01*
X115169049Y-70920022D01*
X115161170Y-70870275D01*
X115161170Y-70870273D01*
X115159951Y-70862580D01*
X115148748Y-70840593D01*
X115103194Y-70751188D01*
X115103193Y-70751186D01*
X115099658Y-70744249D01*
X115005751Y-70650342D01*
X114998814Y-70646807D01*
X114998812Y-70646806D01*
X114894360Y-70593585D01*
X114894359Y-70593585D01*
X114887420Y-70590049D01*
X114879727Y-70588830D01*
X114879725Y-70588830D01*
X114793092Y-70575109D01*
X114793090Y-70575109D01*
X114789246Y-70574500D01*
X114210754Y-70574500D01*
X114206910Y-70575109D01*
X114206908Y-70575109D01*
X114120275Y-70588830D01*
X114120273Y-70588830D01*
X114112580Y-70590049D01*
X114105641Y-70593585D01*
X114105640Y-70593585D01*
X114001188Y-70646806D01*
X114001186Y-70646807D01*
X113994249Y-70650342D01*
X113911587Y-70733004D01*
X113857070Y-70760781D01*
X113841583Y-70762000D01*
X113835126Y-70762000D01*
X113823490Y-70761314D01*
X113818986Y-70760781D01*
X113788189Y-70757136D01*
X113780913Y-70758465D01*
X113780909Y-70758465D01*
X113730073Y-70767750D01*
X113727005Y-70768261D01*
X113703672Y-70771769D01*
X113668538Y-70777051D01*
X113662025Y-70780179D01*
X113654927Y-70781475D01*
X113639326Y-70789579D01*
X113602502Y-70808707D01*
X113599736Y-70810090D01*
X113546421Y-70835691D01*
X113541981Y-70839795D01*
X113539718Y-70841320D01*
X113534711Y-70843921D01*
X113529672Y-70848225D01*
X113492040Y-70885857D01*
X113489237Y-70888551D01*
X113452376Y-70922624D01*
X113452374Y-70922627D01*
X113446944Y-70927646D01*
X113443422Y-70933710D01*
X113436862Y-70941035D01*
X112887393Y-71490504D01*
X112832876Y-71518281D01*
X112817389Y-71519500D01*
X112794514Y-71519500D01*
X112790931Y-71520028D01*
X112790924Y-71520028D01*
X112733729Y-71528448D01*
X112733727Y-71528449D01*
X112726116Y-71529569D01*
X112622120Y-71580628D01*
X112616339Y-71586419D01*
X112546050Y-71656830D01*
X112546048Y-71656833D01*
X112540270Y-71662621D01*
X112489392Y-71766706D01*
X112479500Y-71834514D01*
X112479500Y-72195486D01*
X112480028Y-72199069D01*
X112480028Y-72199076D01*
X112488448Y-72256271D01*
X112489569Y-72263884D01*
X112540628Y-72367880D01*
X112546419Y-72373661D01*
X112602755Y-72429899D01*
X112630580Y-72484391D01*
X112621061Y-72544831D01*
X112602877Y-72569905D01*
X112540270Y-72632621D01*
X112516666Y-72680909D01*
X112506972Y-72700741D01*
X112464430Y-72744717D01*
X112404165Y-72755289D01*
X112349196Y-72728420D01*
X112339487Y-72717532D01*
X112318685Y-72690422D01*
X112314731Y-72685269D01*
X112193259Y-72592061D01*
X112051802Y-72533467D01*
X111912024Y-72515065D01*
X111906434Y-72514329D01*
X111900000Y-72513482D01*
X111893566Y-72514329D01*
X111887976Y-72515065D01*
X111748198Y-72533467D01*
X111606741Y-72592061D01*
X111485269Y-72685269D01*
X111392061Y-72806741D01*
X111333467Y-72948198D01*
X111313482Y-73100000D01*
X111333467Y-73251802D01*
X111392061Y-73393259D01*
X111429037Y-73441447D01*
X111429042Y-73441454D01*
X111449500Y-73501721D01*
X111449500Y-73833902D01*
X111430593Y-73892093D01*
X111381093Y-73928057D01*
X111319907Y-73928057D01*
X111315448Y-73926412D01*
X111307847Y-73921333D01*
X111249364Y-73909700D01*
X110320868Y-73909700D01*
X110299502Y-73913950D01*
X110271945Y-73919431D01*
X110271943Y-73919432D01*
X110262385Y-73921333D01*
X110254280Y-73926749D01*
X110248003Y-73929349D01*
X110187006Y-73934151D01*
X110172229Y-73929349D01*
X110165952Y-73926749D01*
X110157847Y-73921333D01*
X110148289Y-73919432D01*
X110148287Y-73919431D01*
X110120730Y-73913950D01*
X110099364Y-73909700D01*
X110011616Y-73909700D01*
X109953425Y-73890793D01*
X109917461Y-73841293D01*
X109912616Y-73810700D01*
X109912616Y-72853208D01*
X109912866Y-72849807D01*
X109914394Y-72845356D01*
X109912686Y-72799869D01*
X109912616Y-72796154D01*
X109912616Y-72778306D01*
X109911839Y-72774133D01*
X109911557Y-72769786D01*
X109910858Y-72751184D01*
X109910515Y-72742051D01*
X109906907Y-72733652D01*
X109906652Y-72733058D01*
X109900288Y-72712110D01*
X109900170Y-72711476D01*
X109900169Y-72711472D01*
X109898495Y-72702486D01*
X109885879Y-72682020D01*
X109879198Y-72669156D01*
X109872469Y-72653494D01*
X109869709Y-72647069D01*
X109866007Y-72642563D01*
X109862598Y-72639154D01*
X109850629Y-72624012D01*
X109849047Y-72622268D01*
X109844250Y-72614485D01*
X109823208Y-72598485D01*
X109813129Y-72589685D01*
X108615962Y-71392518D01*
X108588185Y-71338001D01*
X108587813Y-71309592D01*
X108603171Y-71192934D01*
X108604018Y-71186500D01*
X108584033Y-71034698D01*
X108573705Y-71009763D01*
X108538732Y-70925334D01*
X108525439Y-70893241D01*
X108432231Y-70771769D01*
X108310759Y-70678561D01*
X108169302Y-70619967D01*
X108017500Y-70599982D01*
X107865698Y-70619967D01*
X107724241Y-70678561D01*
X107602769Y-70771769D01*
X107598815Y-70776922D01*
X107529120Y-70867750D01*
X107478695Y-70902406D01*
X107417531Y-70900804D01*
X107368263Y-70862485D01*
X107359552Y-70849448D01*
X107293231Y-70805133D01*
X107283668Y-70803231D01*
X107283666Y-70803230D01*
X107260995Y-70798721D01*
X107234748Y-70793500D01*
X104405252Y-70793500D01*
X104379005Y-70798721D01*
X104356334Y-70803230D01*
X104356332Y-70803231D01*
X104346769Y-70805133D01*
X104280448Y-70849448D01*
X104236133Y-70915769D01*
X104234231Y-70925332D01*
X104234230Y-70925334D01*
X104233743Y-70927783D01*
X104224500Y-70974252D01*
X104224500Y-71753748D01*
X104236133Y-71812231D01*
X104280448Y-71878552D01*
X104288558Y-71883971D01*
X104337517Y-71916685D01*
X104375396Y-71964735D01*
X104377798Y-72025873D01*
X104343805Y-72076747D01*
X104337520Y-72081313D01*
X104328078Y-72087622D01*
X104325718Y-72089199D01*
X104266829Y-72105807D01*
X104209426Y-72084629D01*
X104200713Y-72076887D01*
X103387528Y-71263702D01*
X103383984Y-71261221D01*
X103380868Y-71258606D01*
X103348442Y-71206719D01*
X103345500Y-71182764D01*
X103345500Y-70974252D01*
X103336257Y-70927783D01*
X103335770Y-70925334D01*
X103335769Y-70925332D01*
X103333867Y-70915769D01*
X103289552Y-70849448D01*
X103223231Y-70805133D01*
X103213668Y-70803231D01*
X103213666Y-70803230D01*
X103190995Y-70798721D01*
X103164748Y-70793500D01*
X100335252Y-70793500D01*
X100330489Y-70794447D01*
X100330483Y-70794448D01*
X100318816Y-70796769D01*
X100258054Y-70789579D01*
X100213124Y-70748047D01*
X100200500Y-70699672D01*
X100200500Y-70299500D01*
X100219407Y-70241309D01*
X100268907Y-70205345D01*
X100299500Y-70200500D01*
X120271000Y-70200500D01*
X120329191Y-70219407D01*
G37*
G04 #@! TD.AperFunction*
G04 #@! TA.AperFunction,Conductor*
G36*
X103564004Y-72360831D02*
G01*
X103845504Y-72642331D01*
X103873281Y-72696848D01*
X103874500Y-72712335D01*
X103874500Y-77450500D01*
X103855593Y-77508691D01*
X103806093Y-77544655D01*
X103775500Y-77549500D01*
X103674514Y-77549500D01*
X103670931Y-77550028D01*
X103670924Y-77550028D01*
X103613729Y-77558448D01*
X103613727Y-77558449D01*
X103606116Y-77559569D01*
X103502120Y-77610628D01*
X103496338Y-77616420D01*
X103475037Y-77637758D01*
X103420545Y-77665583D01*
X103360104Y-77656064D01*
X103334969Y-77637819D01*
X103274563Y-77577413D01*
X103262118Y-77568371D01*
X103163806Y-77518279D01*
X103149170Y-77513524D01*
X103067630Y-77500609D01*
X103059891Y-77500000D01*
X103025680Y-77500000D01*
X103012995Y-77504122D01*
X103010000Y-77508243D01*
X103010000Y-78096000D01*
X102991093Y-78154191D01*
X102941593Y-78190155D01*
X102911000Y-78195000D01*
X102355680Y-78195000D01*
X102342995Y-78199122D01*
X102340000Y-78203243D01*
X102340000Y-78269891D01*
X102340609Y-78277630D01*
X102353524Y-78359170D01*
X102358279Y-78373806D01*
X102408371Y-78472118D01*
X102417413Y-78484563D01*
X102495437Y-78562587D01*
X102507882Y-78571629D01*
X102598484Y-78617792D01*
X102641748Y-78661056D01*
X102651320Y-78721489D01*
X102623543Y-78776005D01*
X102569027Y-78803783D01*
X102553539Y-78805002D01*
X102464953Y-78805002D01*
X102438706Y-78810223D01*
X102416035Y-78814732D01*
X102416033Y-78814733D01*
X102406470Y-78816635D01*
X102340149Y-78860950D01*
X102295834Y-78927271D01*
X102295494Y-78928980D01*
X102259039Y-78971661D01*
X102199544Y-78985943D01*
X102143017Y-78962526D01*
X102115850Y-78925133D01*
X102105378Y-78899852D01*
X102060958Y-78833372D01*
X102047429Y-78819843D01*
X101980950Y-78775424D01*
X101963282Y-78768105D01*
X101904687Y-78756450D01*
X101895065Y-78755502D01*
X101520679Y-78755502D01*
X101507994Y-78759624D01*
X101504999Y-78763745D01*
X101504999Y-80128822D01*
X101509121Y-80141507D01*
X101513242Y-80144502D01*
X101895065Y-80144502D01*
X101904687Y-80143554D01*
X101963282Y-80131899D01*
X101980950Y-80124580D01*
X102047429Y-80080161D01*
X102060958Y-80066632D01*
X102105378Y-80000152D01*
X102115850Y-79974871D01*
X102155586Y-79928345D01*
X102215081Y-79914061D01*
X102271609Y-79937475D01*
X102295309Y-79970095D01*
X102295834Y-79972733D01*
X102340149Y-80039054D01*
X102406470Y-80083369D01*
X102416033Y-80085271D01*
X102416035Y-80085272D01*
X102438706Y-80089781D01*
X102464953Y-80095002D01*
X103495049Y-80095002D01*
X103521296Y-80089781D01*
X103543967Y-80085272D01*
X103543969Y-80085271D01*
X103553532Y-80083369D01*
X103619853Y-80039054D01*
X103664168Y-79972733D01*
X103675801Y-79914250D01*
X103675801Y-79275135D01*
X103694708Y-79216944D01*
X103744208Y-79180980D01*
X103805394Y-79180980D01*
X103844805Y-79205131D01*
X103865504Y-79225830D01*
X103893281Y-79280347D01*
X103894500Y-79295834D01*
X103894500Y-81381477D01*
X103894123Y-81390106D01*
X103890736Y-81428818D01*
X103892978Y-81437185D01*
X103900796Y-81466360D01*
X103902666Y-81474794D01*
X103909412Y-81513056D01*
X103913742Y-81520555D01*
X103915738Y-81526040D01*
X103918204Y-81531327D01*
X103920446Y-81539695D01*
X103941013Y-81569067D01*
X103942732Y-81571522D01*
X103947371Y-81578803D01*
X103966806Y-81612466D01*
X103985313Y-81627995D01*
X103996571Y-81637442D01*
X104002939Y-81643276D01*
X104307372Y-81947709D01*
X104335149Y-82002226D01*
X104325578Y-82062658D01*
X104282313Y-82105922D01*
X104257887Y-82118368D01*
X104245437Y-82127413D01*
X104167413Y-82205437D01*
X104158371Y-82217882D01*
X104108279Y-82316194D01*
X104103524Y-82330830D01*
X104090609Y-82412370D01*
X104090000Y-82420109D01*
X104090000Y-82479320D01*
X104094122Y-82492005D01*
X104098243Y-82495000D01*
X104661000Y-82495000D01*
X104719191Y-82513907D01*
X104755155Y-82563407D01*
X104760000Y-82594000D01*
X104760000Y-82646000D01*
X104741093Y-82704191D01*
X104691593Y-82740155D01*
X104661000Y-82745000D01*
X104105680Y-82745000D01*
X104092995Y-82749122D01*
X104090000Y-82753243D01*
X104090000Y-82819891D01*
X104090609Y-82827630D01*
X104103524Y-82909170D01*
X104108279Y-82923806D01*
X104158371Y-83022118D01*
X104167413Y-83034563D01*
X104239543Y-83106693D01*
X104267320Y-83161210D01*
X104257749Y-83221642D01*
X104213170Y-83265564D01*
X104162120Y-83290628D01*
X104156339Y-83296419D01*
X104086051Y-83366829D01*
X104086049Y-83366832D01*
X104080270Y-83372621D01*
X104076677Y-83379972D01*
X104074525Y-83382989D01*
X104025340Y-83419384D01*
X103993927Y-83424500D01*
X103774801Y-83424500D01*
X103716610Y-83405593D01*
X103680646Y-83356093D01*
X103675801Y-83325500D01*
X103675801Y-83085750D01*
X103664168Y-83027267D01*
X103619853Y-82960946D01*
X103553532Y-82916631D01*
X103543969Y-82914729D01*
X103543967Y-82914728D01*
X103516023Y-82909170D01*
X103495049Y-82904998D01*
X102464953Y-82904998D01*
X102443979Y-82909170D01*
X102416035Y-82914728D01*
X102416033Y-82914729D01*
X102406470Y-82916631D01*
X102340149Y-82960946D01*
X102295834Y-83027267D01*
X102295494Y-83028976D01*
X102259039Y-83071657D01*
X102199544Y-83085939D01*
X102143017Y-83062522D01*
X102115850Y-83025129D01*
X102105378Y-82999848D01*
X102060958Y-82933368D01*
X102047429Y-82919839D01*
X101980950Y-82875420D01*
X101963282Y-82868101D01*
X101904687Y-82856446D01*
X101895065Y-82855498D01*
X101520679Y-82855498D01*
X101507994Y-82859620D01*
X101504999Y-82863741D01*
X101504999Y-84228818D01*
X101509121Y-84241503D01*
X101513242Y-84244498D01*
X101895065Y-84244498D01*
X101904687Y-84243550D01*
X101963282Y-84231895D01*
X101980950Y-84224576D01*
X102047429Y-84180157D01*
X102060958Y-84166628D01*
X102105378Y-84100148D01*
X102115850Y-84074867D01*
X102155586Y-84028341D01*
X102215081Y-84014057D01*
X102271609Y-84037471D01*
X102295309Y-84070091D01*
X102295834Y-84072729D01*
X102340149Y-84139050D01*
X102406470Y-84183365D01*
X102416033Y-84185267D01*
X102416035Y-84185268D01*
X102438706Y-84189777D01*
X102464953Y-84194998D01*
X103495049Y-84194998D01*
X103521296Y-84189777D01*
X103543967Y-84185268D01*
X103543969Y-84185267D01*
X103553532Y-84183365D01*
X103619853Y-84139050D01*
X103632917Y-84119498D01*
X103680966Y-84081619D01*
X103715232Y-84075500D01*
X103993901Y-84075500D01*
X104052092Y-84094407D01*
X104074398Y-84116870D01*
X104077022Y-84120535D01*
X104080628Y-84127880D01*
X104086419Y-84133661D01*
X104156830Y-84203950D01*
X104156833Y-84203952D01*
X104162621Y-84209730D01*
X104266706Y-84260608D01*
X104316229Y-84267833D01*
X104330969Y-84269983D01*
X104330971Y-84269983D01*
X104334514Y-84270500D01*
X104369166Y-84270500D01*
X104427357Y-84289407D01*
X104439170Y-84299496D01*
X104793641Y-84653967D01*
X104821418Y-84708484D01*
X104821790Y-84736893D01*
X104813482Y-84800000D01*
X104833467Y-84951802D01*
X104835951Y-84957799D01*
X104847391Y-84985418D01*
X104892061Y-85093259D01*
X104985269Y-85214731D01*
X105106741Y-85307939D01*
X105248198Y-85366533D01*
X105400000Y-85386518D01*
X105551802Y-85366533D01*
X105693259Y-85307939D01*
X105814731Y-85214731D01*
X105907939Y-85093259D01*
X105952609Y-84985418D01*
X105964049Y-84957799D01*
X105966533Y-84951802D01*
X105986518Y-84800000D01*
X105966533Y-84648198D01*
X105919169Y-84533852D01*
X105914368Y-84472856D01*
X105946337Y-84420687D01*
X106002865Y-84397272D01*
X106062360Y-84411555D01*
X106080637Y-84425963D01*
X106488545Y-84833871D01*
X106516322Y-84888388D01*
X106512855Y-84933971D01*
X106506854Y-84952775D01*
X106495322Y-85121930D01*
X106496347Y-85127802D01*
X106496347Y-85127805D01*
X106503501Y-85168795D01*
X106524473Y-85288954D01*
X106592621Y-85444202D01*
X106672022Y-85547678D01*
X106674306Y-85549962D01*
X107197929Y-86073586D01*
X107225706Y-86128103D01*
X107216135Y-86188535D01*
X107172870Y-86231800D01*
X107112434Y-86241371D01*
X107107620Y-86240608D01*
X107099891Y-86240000D01*
X107040680Y-86240000D01*
X107027995Y-86244122D01*
X107025000Y-86248243D01*
X107025000Y-86644320D01*
X107029122Y-86657005D01*
X107033243Y-86660000D01*
X107454320Y-86660000D01*
X107467005Y-86655878D01*
X107470000Y-86651757D01*
X107470000Y-86610109D01*
X107469391Y-86602375D01*
X107468837Y-86598876D01*
X107478408Y-86538444D01*
X107521671Y-86495178D01*
X107582103Y-86485606D01*
X107636620Y-86513382D01*
X107641219Y-86518305D01*
X107671830Y-86553395D01*
X107707150Y-86578218D01*
X107724055Y-86590099D01*
X107728215Y-86593189D01*
X107773756Y-86628897D01*
X107778456Y-86632582D01*
X107786841Y-86636368D01*
X107803017Y-86645595D01*
X107810546Y-86650886D01*
X107870061Y-86674090D01*
X107874772Y-86676070D01*
X107932983Y-86702354D01*
X107941389Y-86703912D01*
X107942025Y-86704030D01*
X107959937Y-86709132D01*
X107968512Y-86712475D01*
X108031818Y-86720809D01*
X108036913Y-86721615D01*
X108069086Y-86727579D01*
X108093819Y-86732163D01*
X108093822Y-86732163D01*
X108099691Y-86733251D01*
X108161924Y-86729663D01*
X108167621Y-86729499D01*
X111331607Y-86729499D01*
X111389798Y-86748406D01*
X111425762Y-86797906D01*
X111430302Y-86836262D01*
X111430000Y-86840101D01*
X111430000Y-86874320D01*
X111434122Y-86887005D01*
X111438243Y-86890000D01*
X112554320Y-86890000D01*
X112567005Y-86885878D01*
X112570000Y-86881757D01*
X112570000Y-86840101D01*
X112569698Y-86836262D01*
X112583984Y-86776768D01*
X112630511Y-86737033D01*
X112668393Y-86729499D01*
X113941607Y-86729499D01*
X113999798Y-86748406D01*
X114035762Y-86797906D01*
X114040302Y-86836262D01*
X114040000Y-86840101D01*
X114040000Y-86874320D01*
X114044122Y-86887005D01*
X114048243Y-86890000D01*
X114636000Y-86890000D01*
X114694191Y-86908907D01*
X114730155Y-86958407D01*
X114735000Y-86989000D01*
X114735000Y-87544320D01*
X114739122Y-87557005D01*
X114743243Y-87560000D01*
X114809891Y-87560000D01*
X114817630Y-87559391D01*
X114899170Y-87546476D01*
X114913806Y-87541721D01*
X115012118Y-87491629D01*
X115024563Y-87482587D01*
X115102587Y-87404563D01*
X115111630Y-87392116D01*
X115151083Y-87314683D01*
X115194347Y-87271418D01*
X115254779Y-87261846D01*
X115309297Y-87289623D01*
X115490504Y-87470830D01*
X115518281Y-87525347D01*
X115519500Y-87540834D01*
X115519500Y-87705486D01*
X115520028Y-87709069D01*
X115520028Y-87709076D01*
X115526582Y-87753593D01*
X115529569Y-87773884D01*
X115580628Y-87877880D01*
X115586419Y-87883661D01*
X115656830Y-87953950D01*
X115656833Y-87953952D01*
X115662621Y-87959730D01*
X115766706Y-88010608D01*
X115816229Y-88017833D01*
X115830969Y-88019983D01*
X115830971Y-88019983D01*
X115834514Y-88020500D01*
X116034166Y-88020500D01*
X116092357Y-88039407D01*
X116104170Y-88049496D01*
X116316741Y-88262067D01*
X116322575Y-88268434D01*
X116347555Y-88298204D01*
X116380437Y-88317188D01*
X116381215Y-88317637D01*
X116388499Y-88322278D01*
X116420326Y-88344564D01*
X116428693Y-88346806D01*
X116433974Y-88349269D01*
X116439464Y-88351267D01*
X116446965Y-88355598D01*
X116471118Y-88359857D01*
X116485232Y-88362346D01*
X116493661Y-88364215D01*
X116522840Y-88372033D01*
X116531204Y-88374274D01*
X116569919Y-88370887D01*
X116578548Y-88370510D01*
X118056456Y-88370510D01*
X118065085Y-88370887D01*
X118103797Y-88374274D01*
X118141340Y-88364214D01*
X118149774Y-88362344D01*
X118179507Y-88357102D01*
X118179509Y-88357101D01*
X118188035Y-88355598D01*
X118195534Y-88351268D01*
X118201019Y-88349272D01*
X118206306Y-88346806D01*
X118214674Y-88344564D01*
X118246501Y-88322278D01*
X118253785Y-88317637D01*
X118254563Y-88317188D01*
X118287445Y-88298204D01*
X118288343Y-88297134D01*
X118341288Y-88275741D01*
X118348195Y-88275500D01*
X118370500Y-88275500D01*
X118428691Y-88294407D01*
X118464655Y-88343907D01*
X118469500Y-88374500D01*
X118469500Y-88394748D01*
X118470448Y-88399512D01*
X118478730Y-88441149D01*
X118481133Y-88453231D01*
X118525448Y-88519552D01*
X118591769Y-88563867D01*
X118601332Y-88565769D01*
X118601334Y-88565770D01*
X118623064Y-88570092D01*
X118650252Y-88575500D01*
X119224166Y-88575500D01*
X119282357Y-88594407D01*
X119294170Y-88604496D01*
X119377424Y-88687750D01*
X119405573Y-88744831D01*
X119406520Y-88752026D01*
X119410967Y-88785802D01*
X119469561Y-88927259D01*
X119562769Y-89048731D01*
X119684241Y-89141939D01*
X119825698Y-89200533D01*
X119977500Y-89220518D01*
X120129302Y-89200533D01*
X120135299Y-89198049D01*
X120189307Y-89175678D01*
X120250304Y-89170877D01*
X120302473Y-89202847D01*
X120325888Y-89259374D01*
X120311604Y-89318869D01*
X120297197Y-89337146D01*
X119433839Y-90200504D01*
X119379322Y-90228281D01*
X119363835Y-90229500D01*
X118526165Y-90229500D01*
X118467974Y-90210593D01*
X118456161Y-90200504D01*
X118017434Y-89761777D01*
X117989657Y-89707260D01*
X117999228Y-89646828D01*
X118051721Y-89543805D01*
X118056476Y-89529170D01*
X118069391Y-89447630D01*
X118070000Y-89439891D01*
X118070000Y-89405680D01*
X118065878Y-89392995D01*
X118061757Y-89390000D01*
X117474000Y-89390000D01*
X117415809Y-89371093D01*
X117379845Y-89321593D01*
X117375000Y-89291000D01*
X117375000Y-89124320D01*
X117625000Y-89124320D01*
X117629122Y-89137005D01*
X117633243Y-89140000D01*
X118054320Y-89140000D01*
X118067005Y-89135878D01*
X118070000Y-89131757D01*
X118070000Y-89090109D01*
X118069391Y-89082370D01*
X118056476Y-89000830D01*
X118051721Y-88986194D01*
X118001629Y-88887882D01*
X117992587Y-88875437D01*
X117914563Y-88797413D01*
X117902118Y-88788371D01*
X117803806Y-88738279D01*
X117789170Y-88733524D01*
X117707630Y-88720609D01*
X117699891Y-88720000D01*
X117640680Y-88720000D01*
X117627995Y-88724122D01*
X117625000Y-88728243D01*
X117625000Y-89124320D01*
X117375000Y-89124320D01*
X117375000Y-88735680D01*
X117370878Y-88722995D01*
X117366757Y-88720000D01*
X117300109Y-88720000D01*
X117292370Y-88720609D01*
X117210830Y-88733524D01*
X117196194Y-88738279D01*
X117097882Y-88788371D01*
X117085437Y-88797413D01*
X117007413Y-88875437D01*
X116998371Y-88887882D01*
X116948279Y-88986194D01*
X116943524Y-89000830D01*
X116939562Y-89025847D01*
X116911785Y-89080363D01*
X116857268Y-89108141D01*
X116796836Y-89098570D01*
X116777061Y-89084203D01*
X116774552Y-89080448D01*
X116708231Y-89036133D01*
X116698668Y-89034231D01*
X116698666Y-89034230D01*
X116675995Y-89029721D01*
X116649748Y-89024500D01*
X115550252Y-89024500D01*
X115524005Y-89029721D01*
X115501334Y-89034230D01*
X115501332Y-89034231D01*
X115491769Y-89036133D01*
X115425448Y-89080448D01*
X115381133Y-89146769D01*
X115379231Y-89156332D01*
X115379230Y-89156334D01*
X115374721Y-89179005D01*
X115369500Y-89205252D01*
X115369500Y-89894748D01*
X115376908Y-89931988D01*
X115381133Y-89953231D01*
X115377483Y-89953957D01*
X115380876Y-89997040D01*
X115366925Y-90028935D01*
X115339922Y-90069347D01*
X115332603Y-90087017D01*
X115320948Y-90145612D01*
X115320000Y-90155234D01*
X115320000Y-90266677D01*
X115301093Y-90324868D01*
X115251593Y-90360832D01*
X115190407Y-90360832D01*
X115154167Y-90336386D01*
X115153194Y-90337545D01*
X115123429Y-90312569D01*
X115117061Y-90306735D01*
X114659496Y-89849170D01*
X114631719Y-89794653D01*
X114630500Y-89779166D01*
X114630500Y-89205252D01*
X114625279Y-89179005D01*
X114620770Y-89156334D01*
X114620769Y-89156332D01*
X114618867Y-89146769D01*
X114574552Y-89080448D01*
X114508231Y-89036133D01*
X114498668Y-89034231D01*
X114498666Y-89034230D01*
X114475995Y-89029721D01*
X114449748Y-89024500D01*
X113350252Y-89024500D01*
X113324005Y-89029721D01*
X113301334Y-89034230D01*
X113301332Y-89034231D01*
X113291769Y-89036133D01*
X113225448Y-89080448D01*
X113181133Y-89146769D01*
X113179231Y-89156333D01*
X113176309Y-89163386D01*
X113136572Y-89209912D01*
X113084845Y-89224500D01*
X112551681Y-89224500D01*
X112493490Y-89205593D01*
X112468337Y-89175695D01*
X112467743Y-89176121D01*
X112462980Y-89169468D01*
X112459372Y-89162120D01*
X112457223Y-89159975D01*
X112439549Y-89104263D01*
X112443833Y-89079651D01*
X112443681Y-89079622D01*
X112445068Y-89072351D01*
X112447520Y-89065369D01*
X112447811Y-89057973D01*
X112452548Y-88937400D01*
X112452548Y-88937397D01*
X112452838Y-88930006D01*
X112418119Y-88799063D01*
X112405836Y-88779367D01*
X112350346Y-88690392D01*
X112350345Y-88690391D01*
X112346433Y-88684118D01*
X112347017Y-88683754D01*
X112325805Y-88632548D01*
X112325500Y-88624779D01*
X112325500Y-88506099D01*
X112344407Y-88447908D01*
X112366870Y-88425602D01*
X112370535Y-88422978D01*
X112377880Y-88419372D01*
X112390045Y-88407186D01*
X112453950Y-88343170D01*
X112453952Y-88343167D01*
X112459730Y-88337379D01*
X112510608Y-88233294D01*
X112520500Y-88165486D01*
X112520500Y-87804514D01*
X112516567Y-87777793D01*
X112511552Y-87743729D01*
X112511551Y-87743727D01*
X112510431Y-87736116D01*
X112459372Y-87632120D01*
X112450215Y-87622979D01*
X112432242Y-87605037D01*
X112404417Y-87550545D01*
X112413936Y-87490104D01*
X112432181Y-87464969D01*
X112492587Y-87404563D01*
X112501629Y-87392118D01*
X112551721Y-87293806D01*
X112556476Y-87279170D01*
X112569391Y-87197630D01*
X112570000Y-87189891D01*
X114040000Y-87189891D01*
X114040609Y-87197630D01*
X114053524Y-87279170D01*
X114058279Y-87293806D01*
X114108371Y-87392118D01*
X114117413Y-87404563D01*
X114195437Y-87482587D01*
X114207882Y-87491629D01*
X114306194Y-87541721D01*
X114320830Y-87546476D01*
X114402370Y-87559391D01*
X114410109Y-87560000D01*
X114469320Y-87560000D01*
X114482005Y-87555878D01*
X114485000Y-87551757D01*
X114485000Y-87155680D01*
X114480878Y-87142995D01*
X114476757Y-87140000D01*
X114055680Y-87140000D01*
X114042995Y-87144122D01*
X114040000Y-87148243D01*
X114040000Y-87189891D01*
X112570000Y-87189891D01*
X112570000Y-87155680D01*
X112565878Y-87142995D01*
X112561757Y-87140000D01*
X111445680Y-87140000D01*
X111432995Y-87144122D01*
X111430000Y-87148243D01*
X111430000Y-87189891D01*
X111430609Y-87197630D01*
X111443524Y-87279170D01*
X111448279Y-87293806D01*
X111498371Y-87392118D01*
X111507413Y-87404563D01*
X111567843Y-87464993D01*
X111595620Y-87519510D01*
X111586049Y-87579942D01*
X111567904Y-87604939D01*
X111540270Y-87632621D01*
X111489392Y-87736706D01*
X111479500Y-87804514D01*
X111479500Y-88165486D01*
X111480028Y-88169069D01*
X111480028Y-88169076D01*
X111488448Y-88226271D01*
X111489569Y-88233884D01*
X111492960Y-88240790D01*
X111492960Y-88240791D01*
X111506952Y-88269290D01*
X111540628Y-88337880D01*
X111546419Y-88343661D01*
X111622621Y-88419730D01*
X111620215Y-88422140D01*
X111647557Y-88459104D01*
X111648080Y-88520287D01*
X111612540Y-88570092D01*
X111553667Y-88589500D01*
X111491150Y-88589500D01*
X111458511Y-88594407D01*
X111398359Y-88603450D01*
X111398357Y-88603451D01*
X111391038Y-88604551D01*
X111384367Y-88607754D01*
X111384365Y-88607755D01*
X111316312Y-88640434D01*
X111268921Y-88663191D01*
X111256687Y-88674500D01*
X111241867Y-88688199D01*
X111186302Y-88713814D01*
X111174667Y-88714500D01*
X110830011Y-88714500D01*
X110771820Y-88695593D01*
X110735856Y-88646093D01*
X110735856Y-88584907D01*
X110747696Y-88560498D01*
X110759932Y-88542186D01*
X110788366Y-88499632D01*
X110790472Y-88489048D01*
X110795983Y-88461340D01*
X110799999Y-88441149D01*
X110799999Y-87588853D01*
X110792379Y-87550545D01*
X110790269Y-87539935D01*
X110790268Y-87539933D01*
X110788366Y-87530370D01*
X110744051Y-87464049D01*
X110677730Y-87419734D01*
X110668167Y-87417832D01*
X110668165Y-87417831D01*
X110645494Y-87413322D01*
X110619247Y-87408101D01*
X109690751Y-87408101D01*
X109664504Y-87413322D01*
X109641833Y-87417831D01*
X109641831Y-87417832D01*
X109632268Y-87419734D01*
X109565947Y-87464049D01*
X109521632Y-87530370D01*
X109519730Y-87539933D01*
X109519729Y-87539935D01*
X109517619Y-87550545D01*
X109509999Y-87588853D01*
X109509999Y-88441149D01*
X109514015Y-88461340D01*
X109519527Y-88489048D01*
X109521632Y-88499632D01*
X109550066Y-88542186D01*
X109562302Y-88560498D01*
X109578911Y-88619386D01*
X109557734Y-88676790D01*
X109506860Y-88710783D01*
X109479987Y-88714500D01*
X109009000Y-88714500D01*
X108950809Y-88695593D01*
X108914845Y-88646093D01*
X108911263Y-88623477D01*
X108910477Y-88623554D01*
X108910000Y-88618710D01*
X108910000Y-88613852D01*
X108904779Y-88587605D01*
X108900270Y-88564934D01*
X108900269Y-88564932D01*
X108898367Y-88555369D01*
X108854052Y-88489048D01*
X108787731Y-88444733D01*
X108778168Y-88442831D01*
X108778166Y-88442830D01*
X108755495Y-88438321D01*
X108729248Y-88433100D01*
X107800752Y-88433100D01*
X107774505Y-88438321D01*
X107751834Y-88442830D01*
X107751832Y-88442831D01*
X107742269Y-88444733D01*
X107675948Y-88489048D01*
X107631633Y-88555369D01*
X107629731Y-88564932D01*
X107629730Y-88564934D01*
X107625221Y-88587605D01*
X107620000Y-88613852D01*
X107620000Y-89466148D01*
X107624844Y-89490500D01*
X107629088Y-89511835D01*
X107631633Y-89524631D01*
X107656366Y-89561645D01*
X107657243Y-89562958D01*
X107673853Y-89621846D01*
X107652677Y-89679250D01*
X107644934Y-89687963D01*
X107512722Y-89820174D01*
X107392321Y-89940575D01*
X107337805Y-89968352D01*
X107321802Y-89969570D01*
X107269001Y-89969293D01*
X107224860Y-89969062D01*
X107224858Y-89969062D01*
X107218895Y-89969031D01*
X107213099Y-89970423D01*
X107213095Y-89970423D01*
X107110729Y-89995000D01*
X107054032Y-90008612D01*
X107022337Y-90024971D01*
X106908675Y-90083636D01*
X106908673Y-90083638D01*
X106903369Y-90086375D01*
X106775604Y-90197831D01*
X106678113Y-90336547D01*
X106616524Y-90494513D01*
X106615745Y-90500428D01*
X106615745Y-90500429D01*
X106601791Y-90606422D01*
X106575450Y-90661647D01*
X106521679Y-90690842D01*
X106503638Y-90692500D01*
X105118631Y-90692500D01*
X105060440Y-90673593D01*
X105024476Y-90624093D01*
X105021757Y-90578007D01*
X105021269Y-90577959D01*
X105021572Y-90574878D01*
X105021532Y-90574193D01*
X105021746Y-90573118D01*
X105021747Y-90573108D01*
X105022694Y-90568347D01*
X105022694Y-90071651D01*
X105011289Y-90014314D01*
X105011289Y-89975686D01*
X105018983Y-89937004D01*
X105022694Y-89918348D01*
X105022694Y-89421652D01*
X105011289Y-89364315D01*
X105011289Y-89325687D01*
X105015385Y-89305096D01*
X105022694Y-89268349D01*
X105022694Y-88778550D01*
X105039379Y-88723548D01*
X105052272Y-88704252D01*
X105059591Y-88686583D01*
X105071246Y-88627988D01*
X105072194Y-88618366D01*
X105072194Y-88510680D01*
X105068072Y-88497995D01*
X105063951Y-88495000D01*
X103216274Y-88495000D01*
X103203589Y-88499122D01*
X103200594Y-88503243D01*
X103200594Y-88618366D01*
X103201542Y-88627988D01*
X103213197Y-88686583D01*
X103220516Y-88704252D01*
X103233409Y-88723548D01*
X103250094Y-88778550D01*
X103250094Y-89268349D01*
X103257403Y-89305096D01*
X103261499Y-89325687D01*
X103261499Y-89364315D01*
X103250094Y-89421652D01*
X103250094Y-89918348D01*
X103253805Y-89937004D01*
X103261499Y-89975686D01*
X103261499Y-90014314D01*
X103250094Y-90071651D01*
X103250094Y-90568347D01*
X103251042Y-90573113D01*
X103261499Y-90625687D01*
X103261499Y-90664314D01*
X103259188Y-90675932D01*
X103250094Y-90721652D01*
X103250094Y-91096399D01*
X103231187Y-91154590D01*
X103181687Y-91190554D01*
X103151094Y-91195399D01*
X102724300Y-91195399D01*
X102666109Y-91176492D01*
X102630145Y-91126992D01*
X102625300Y-91096399D01*
X102625300Y-89901952D01*
X102613667Y-89843469D01*
X102569352Y-89777148D01*
X102532187Y-89752314D01*
X102494308Y-89704265D01*
X102491906Y-89643127D01*
X102525899Y-89592253D01*
X102532187Y-89587685D01*
X102557733Y-89570616D01*
X102569352Y-89562852D01*
X102613667Y-89496531D01*
X102615759Y-89486017D01*
X102624352Y-89442812D01*
X102625300Y-89438048D01*
X102625300Y-88243601D01*
X102644207Y-88185410D01*
X102693707Y-88149446D01*
X102724300Y-88144601D01*
X103101594Y-88144601D01*
X103159785Y-88163508D01*
X103195749Y-88213008D01*
X103196182Y-88215739D01*
X103204716Y-88242005D01*
X103208837Y-88245000D01*
X105056514Y-88245000D01*
X105069199Y-88240878D01*
X105072194Y-88236757D01*
X105072194Y-88121634D01*
X105071246Y-88112012D01*
X105059591Y-88053417D01*
X105052272Y-88035748D01*
X105039385Y-88016461D01*
X105022700Y-87961459D01*
X105022700Y-87584001D01*
X105041607Y-87525810D01*
X105091107Y-87489846D01*
X105121700Y-87485001D01*
X106196548Y-87485001D01*
X106254739Y-87503908D01*
X106266552Y-87513997D01*
X106350504Y-87597949D01*
X106378281Y-87652466D01*
X106379500Y-87667953D01*
X106379500Y-87935486D01*
X106380028Y-87939069D01*
X106380028Y-87939076D01*
X106388448Y-87996271D01*
X106389569Y-88003884D01*
X106440628Y-88107880D01*
X106446419Y-88113661D01*
X106516830Y-88183950D01*
X106516833Y-88183952D01*
X106522621Y-88189730D01*
X106626706Y-88240608D01*
X106676229Y-88247833D01*
X106690969Y-88249983D01*
X106690971Y-88249983D01*
X106694514Y-88250500D01*
X107105486Y-88250500D01*
X107109069Y-88249972D01*
X107109076Y-88249972D01*
X107166271Y-88241552D01*
X107166273Y-88241551D01*
X107173884Y-88240431D01*
X107189521Y-88232754D01*
X107229739Y-88213008D01*
X107277880Y-88189372D01*
X107298186Y-88169031D01*
X107353950Y-88113170D01*
X107353952Y-88113167D01*
X107359730Y-88107379D01*
X107410608Y-88003294D01*
X107420500Y-87935486D01*
X107420500Y-87574514D01*
X107418364Y-87560000D01*
X107411552Y-87513729D01*
X107411551Y-87513727D01*
X107410431Y-87506116D01*
X107406629Y-87498371D01*
X107375144Y-87434244D01*
X107359372Y-87402120D01*
X107332242Y-87375037D01*
X107304417Y-87320545D01*
X107313936Y-87260104D01*
X107332181Y-87234969D01*
X107392587Y-87174563D01*
X107401629Y-87162118D01*
X107451721Y-87063806D01*
X107456476Y-87049170D01*
X107469391Y-86967630D01*
X107470000Y-86959891D01*
X107470000Y-86925680D01*
X107465878Y-86912995D01*
X107461757Y-86910000D01*
X106345680Y-86910000D01*
X106303680Y-86923646D01*
X106301598Y-86925159D01*
X106271014Y-86930001D01*
X105121700Y-86930001D01*
X105063509Y-86911094D01*
X105027545Y-86861594D01*
X105022700Y-86831001D01*
X105022700Y-86644320D01*
X106330000Y-86644320D01*
X106334122Y-86657005D01*
X106338243Y-86660000D01*
X106759320Y-86660000D01*
X106772005Y-86655878D01*
X106775000Y-86651757D01*
X106775000Y-86255680D01*
X106770878Y-86242995D01*
X106766757Y-86240000D01*
X106700109Y-86240000D01*
X106692370Y-86240609D01*
X106610830Y-86253524D01*
X106596194Y-86258279D01*
X106497882Y-86308371D01*
X106485437Y-86317413D01*
X106407413Y-86395437D01*
X106398371Y-86407882D01*
X106348279Y-86506194D01*
X106343524Y-86520830D01*
X106330609Y-86602370D01*
X106330000Y-86610109D01*
X106330000Y-86644320D01*
X105022700Y-86644320D01*
X105022700Y-86451153D01*
X105011067Y-86392670D01*
X104966752Y-86326349D01*
X104900431Y-86282034D01*
X104890868Y-86280132D01*
X104890866Y-86280131D01*
X104868195Y-86275622D01*
X104841948Y-86270401D01*
X102715404Y-86270401D01*
X102657213Y-86251494D01*
X102621249Y-86201994D01*
X102621249Y-86140808D01*
X102624963Y-86131134D01*
X102681400Y-86004375D01*
X102681401Y-86004371D01*
X102683509Y-85999637D01*
X102722800Y-85814789D01*
X102722800Y-85625811D01*
X102683509Y-85440963D01*
X102680464Y-85434122D01*
X102608753Y-85273058D01*
X102608752Y-85273056D01*
X102606645Y-85268324D01*
X102495567Y-85115438D01*
X102355130Y-84988987D01*
X102321847Y-84969771D01*
X102195960Y-84897091D01*
X102195958Y-84897090D01*
X102191470Y-84894499D01*
X102172903Y-84888466D01*
X102108180Y-84867437D01*
X102011742Y-84836102D01*
X101954700Y-84830106D01*
X101873496Y-84821571D01*
X101873489Y-84821571D01*
X101870914Y-84821300D01*
X101065486Y-84821300D01*
X101062911Y-84821571D01*
X101062904Y-84821571D01*
X100981700Y-84830106D01*
X100924658Y-84836102D01*
X100828220Y-84867437D01*
X100763498Y-84888466D01*
X100744930Y-84894499D01*
X100740442Y-84897090D01*
X100740440Y-84897091D01*
X100614553Y-84969771D01*
X100581270Y-84988987D01*
X100440833Y-85115438D01*
X100431848Y-85127805D01*
X100379593Y-85199728D01*
X100330093Y-85235692D01*
X100268908Y-85235692D01*
X100219407Y-85199728D01*
X100200500Y-85141537D01*
X100200500Y-84014264D01*
X100634699Y-84014264D01*
X100635647Y-84023886D01*
X100647302Y-84082481D01*
X100654621Y-84100149D01*
X100699040Y-84166628D01*
X100712569Y-84180157D01*
X100779048Y-84224576D01*
X100796716Y-84231895D01*
X100855311Y-84243550D01*
X100864933Y-84244498D01*
X101239319Y-84244498D01*
X101252004Y-84240376D01*
X101254999Y-84236255D01*
X101254999Y-83690678D01*
X101250877Y-83677993D01*
X101246756Y-83674998D01*
X100650379Y-83674998D01*
X100637694Y-83679120D01*
X100634699Y-83683241D01*
X100634699Y-84014264D01*
X100200500Y-84014264D01*
X100200500Y-83409318D01*
X100634699Y-83409318D01*
X100638821Y-83422003D01*
X100642942Y-83424998D01*
X101239319Y-83424998D01*
X101252004Y-83420876D01*
X101254999Y-83416755D01*
X101254999Y-82871178D01*
X101250877Y-82858493D01*
X101246756Y-82855498D01*
X100864933Y-82855498D01*
X100855311Y-82856446D01*
X100796716Y-82868101D01*
X100779048Y-82875420D01*
X100712569Y-82919839D01*
X100699040Y-82933368D01*
X100654621Y-82999847D01*
X100647302Y-83017515D01*
X100635647Y-83076110D01*
X100634699Y-83085732D01*
X100634699Y-83409318D01*
X100200500Y-83409318D01*
X100200500Y-82652973D01*
X100219407Y-82594782D01*
X100268907Y-82558818D01*
X100330093Y-82558818D01*
X100354502Y-82570658D01*
X100369947Y-82580978D01*
X100387616Y-82588297D01*
X100446211Y-82599952D01*
X100455833Y-82600900D01*
X100614319Y-82600900D01*
X100627004Y-82596778D01*
X100629999Y-82592657D01*
X100629999Y-82585220D01*
X100879999Y-82585220D01*
X100884121Y-82597905D01*
X100888242Y-82600900D01*
X101054165Y-82600900D01*
X101063787Y-82599952D01*
X101122382Y-82588297D01*
X101140050Y-82580978D01*
X101206529Y-82536559D01*
X101220058Y-82523030D01*
X101264477Y-82456551D01*
X101271796Y-82438883D01*
X101283451Y-82380288D01*
X101284399Y-82370666D01*
X101284399Y-81640680D01*
X101280277Y-81627995D01*
X101276156Y-81625000D01*
X100895679Y-81625000D01*
X100882994Y-81629122D01*
X100879999Y-81633243D01*
X100879999Y-82585220D01*
X100629999Y-82585220D01*
X100629999Y-81359320D01*
X100879999Y-81359320D01*
X100884121Y-81372005D01*
X100888242Y-81375000D01*
X101268719Y-81375000D01*
X101281404Y-81370878D01*
X101284399Y-81366757D01*
X101284399Y-80629334D01*
X101283451Y-80619712D01*
X101271796Y-80561117D01*
X101264477Y-80543449D01*
X101220058Y-80476970D01*
X101206529Y-80463441D01*
X101140050Y-80419022D01*
X101122382Y-80411703D01*
X101063787Y-80400048D01*
X101054165Y-80399100D01*
X100895679Y-80399100D01*
X100882994Y-80403222D01*
X100879999Y-80407343D01*
X100879999Y-81359320D01*
X100629999Y-81359320D01*
X100629999Y-80414780D01*
X100625877Y-80402095D01*
X100621756Y-80399100D01*
X100455833Y-80399100D01*
X100446211Y-80400048D01*
X100387616Y-80411703D01*
X100369947Y-80419022D01*
X100354502Y-80429342D01*
X100295614Y-80445951D01*
X100238211Y-80424774D01*
X100204217Y-80373901D01*
X100200500Y-80347027D01*
X100200500Y-79914268D01*
X100634699Y-79914268D01*
X100635647Y-79923890D01*
X100647302Y-79982485D01*
X100654621Y-80000153D01*
X100699040Y-80066632D01*
X100712569Y-80080161D01*
X100779048Y-80124580D01*
X100796716Y-80131899D01*
X100855311Y-80143554D01*
X100864933Y-80144502D01*
X101239319Y-80144502D01*
X101252004Y-80140380D01*
X101254999Y-80136259D01*
X101254999Y-79590682D01*
X101250877Y-79577997D01*
X101246756Y-79575002D01*
X100650379Y-79575002D01*
X100637694Y-79579124D01*
X100634699Y-79583245D01*
X100634699Y-79914268D01*
X100200500Y-79914268D01*
X100200500Y-79309322D01*
X100634699Y-79309322D01*
X100638821Y-79322007D01*
X100642942Y-79325002D01*
X101239319Y-79325002D01*
X101252004Y-79320880D01*
X101254999Y-79316759D01*
X101254999Y-78771182D01*
X101250877Y-78758497D01*
X101246756Y-78755502D01*
X100864933Y-78755502D01*
X100855311Y-78756450D01*
X100796716Y-78768105D01*
X100779048Y-78775424D01*
X100712569Y-78819843D01*
X100699040Y-78833372D01*
X100654621Y-78899851D01*
X100647302Y-78917519D01*
X100635647Y-78976114D01*
X100634699Y-78985736D01*
X100634699Y-79309322D01*
X100200500Y-79309322D01*
X100200500Y-77929320D01*
X102340000Y-77929320D01*
X102344122Y-77942005D01*
X102348243Y-77945000D01*
X102744320Y-77945000D01*
X102757005Y-77940878D01*
X102760000Y-77936757D01*
X102760000Y-77515680D01*
X102755878Y-77502995D01*
X102751757Y-77500000D01*
X102710109Y-77500000D01*
X102702370Y-77500609D01*
X102620830Y-77513524D01*
X102606194Y-77518279D01*
X102507882Y-77568371D01*
X102495437Y-77577413D01*
X102417413Y-77655437D01*
X102408371Y-77667882D01*
X102358279Y-77766194D01*
X102353524Y-77780830D01*
X102340609Y-77862370D01*
X102340000Y-77870109D01*
X102340000Y-77929320D01*
X100200500Y-77929320D01*
X100200500Y-77158798D01*
X100219407Y-77100607D01*
X100268907Y-77064643D01*
X100318815Y-77061701D01*
X100325605Y-77063052D01*
X100335234Y-77064000D01*
X101609320Y-77064000D01*
X101622005Y-77059878D01*
X101625000Y-77055757D01*
X101625000Y-77048320D01*
X101875000Y-77048320D01*
X101879122Y-77061005D01*
X101883243Y-77064000D01*
X103164766Y-77064000D01*
X103174388Y-77063052D01*
X103232983Y-77051397D01*
X103250651Y-77044078D01*
X103317130Y-76999659D01*
X103330659Y-76986130D01*
X103375078Y-76919651D01*
X103382397Y-76901983D01*
X103394052Y-76843388D01*
X103395000Y-76833766D01*
X103395000Y-76584680D01*
X103390878Y-76571995D01*
X103386757Y-76569000D01*
X101890680Y-76569000D01*
X101877995Y-76573122D01*
X101875000Y-76577243D01*
X101875000Y-77048320D01*
X101625000Y-77048320D01*
X101625000Y-76418000D01*
X101643907Y-76359809D01*
X101693407Y-76323845D01*
X101724000Y-76319000D01*
X103379320Y-76319000D01*
X103392005Y-76314878D01*
X103395000Y-76310757D01*
X103395000Y-76054234D01*
X103394052Y-76044612D01*
X103382397Y-75986017D01*
X103375078Y-75968349D01*
X103330659Y-75901870D01*
X103317129Y-75888340D01*
X103277032Y-75861548D01*
X103239153Y-75813498D01*
X103236751Y-75752360D01*
X103270744Y-75701487D01*
X103277031Y-75696919D01*
X103281440Y-75693973D01*
X103281442Y-75693971D01*
X103289552Y-75688552D01*
X103333867Y-75622231D01*
X103345500Y-75563748D01*
X103345500Y-74784252D01*
X103336889Y-74740960D01*
X103335770Y-74735334D01*
X103335769Y-74735332D01*
X103333867Y-74725769D01*
X103289552Y-74659448D01*
X103281442Y-74654029D01*
X103281440Y-74654027D01*
X103277031Y-74651081D01*
X103239152Y-74603031D01*
X103236752Y-74541892D01*
X103270745Y-74491019D01*
X103277032Y-74486452D01*
X103317129Y-74459660D01*
X103330659Y-74446130D01*
X103375078Y-74379651D01*
X103382397Y-74361983D01*
X103394052Y-74303388D01*
X103395000Y-74293766D01*
X103395000Y-74044680D01*
X103390878Y-74031995D01*
X103386757Y-74029000D01*
X101724000Y-74029000D01*
X101665809Y-74010093D01*
X101629845Y-73960593D01*
X101625000Y-73930000D01*
X101625000Y-73284000D01*
X101625017Y-73284000D01*
X101623025Y-73258684D01*
X101623767Y-73254000D01*
X101874983Y-73254000D01*
X101876975Y-73279316D01*
X101875000Y-73291787D01*
X101875000Y-73763320D01*
X101879122Y-73776005D01*
X101883243Y-73779000D01*
X103379320Y-73779000D01*
X103392005Y-73774878D01*
X103395000Y-73770757D01*
X103395000Y-73514234D01*
X103394052Y-73504612D01*
X103382397Y-73446017D01*
X103375078Y-73428349D01*
X103330659Y-73361870D01*
X103310237Y-73341448D01*
X103312231Y-73339454D01*
X103283703Y-73303269D01*
X103281299Y-73242131D01*
X103311145Y-73197460D01*
X103310237Y-73196552D01*
X103314801Y-73191988D01*
X103315290Y-73191256D01*
X103316179Y-73190610D01*
X103330659Y-73176130D01*
X103375078Y-73109651D01*
X103382397Y-73091983D01*
X103394052Y-73033388D01*
X103395000Y-73023766D01*
X103395000Y-72774680D01*
X103390878Y-72761995D01*
X103386757Y-72759000D01*
X101890680Y-72759000D01*
X101877995Y-72763122D01*
X101875000Y-72767243D01*
X101875000Y-73254000D01*
X101874983Y-73254000D01*
X101623767Y-73254000D01*
X101625000Y-73246213D01*
X101625000Y-72608000D01*
X101643907Y-72549809D01*
X101693407Y-72513845D01*
X101724000Y-72509000D01*
X103379320Y-72509000D01*
X103392005Y-72504878D01*
X103395000Y-72500757D01*
X103395000Y-72430835D01*
X103413907Y-72372644D01*
X103463407Y-72336680D01*
X103524593Y-72336680D01*
X103564004Y-72360831D01*
G37*
G04 #@! TD.AperFunction*
G04 #@! TA.AperFunction,Conductor*
G36*
X105947357Y-77033407D02*
G01*
X105959170Y-77043496D01*
X106586196Y-77670522D01*
X106613973Y-77725039D01*
X106614261Y-77747078D01*
X106614329Y-77747078D01*
X106614329Y-77752305D01*
X106614344Y-77753452D01*
X106613482Y-77760000D01*
X106633467Y-77911802D01*
X106692061Y-78053259D01*
X106696012Y-78058408D01*
X106740920Y-78116934D01*
X106761344Y-78174610D01*
X106743966Y-78233276D01*
X106692971Y-78271356D01*
X106677995Y-78276222D01*
X106675001Y-78280343D01*
X106675001Y-78533820D01*
X106679123Y-78546505D01*
X106683244Y-78549500D01*
X106924021Y-78549500D01*
X106936706Y-78545378D01*
X106950742Y-78526059D01*
X106966095Y-78495928D01*
X107020612Y-78468150D01*
X107081044Y-78477721D01*
X107106103Y-78495927D01*
X107560788Y-78950613D01*
X108001216Y-79391041D01*
X108028993Y-79445558D01*
X108030212Y-79461045D01*
X108030212Y-79925772D01*
X108011305Y-79983963D01*
X107961805Y-80019927D01*
X107900619Y-80019927D01*
X107893333Y-80017239D01*
X107811802Y-79983467D01*
X107660000Y-79963482D01*
X107508198Y-79983467D01*
X107366741Y-80042061D01*
X107245269Y-80135269D01*
X107152061Y-80256741D01*
X107149579Y-80262733D01*
X107149575Y-80262740D01*
X107143388Y-80277677D01*
X107103651Y-80324202D01*
X107044156Y-80338485D01*
X106987628Y-80315069D01*
X106981921Y-80309794D01*
X106919197Y-80247070D01*
X106891420Y-80192553D01*
X106890201Y-80177066D01*
X106890201Y-80153352D01*
X106885669Y-80130568D01*
X106892861Y-80069807D01*
X106912763Y-80041250D01*
X106914342Y-80039671D01*
X106922452Y-80034252D01*
X106966767Y-79967931D01*
X106978400Y-79909448D01*
X106978400Y-79590552D01*
X106977452Y-79585787D01*
X106977083Y-79582038D01*
X106993291Y-79517333D01*
X107007978Y-79495353D01*
X107015297Y-79477683D01*
X107026952Y-79419088D01*
X107027900Y-79409466D01*
X107027900Y-79390680D01*
X107023778Y-79377995D01*
X107019657Y-79375000D01*
X106599500Y-79375000D01*
X106541309Y-79356093D01*
X106505345Y-79306593D01*
X106500500Y-79276000D01*
X106500500Y-79132580D01*
X106496378Y-79119895D01*
X106472902Y-79102838D01*
X106473740Y-79101685D01*
X106454000Y-79091628D01*
X106426220Y-79037113D01*
X106425001Y-79021622D01*
X106425001Y-78815180D01*
X106422271Y-78806778D01*
X106675702Y-78806778D01*
X106679123Y-78817305D01*
X106702599Y-78834362D01*
X106701761Y-78835515D01*
X106721501Y-78845572D01*
X106749281Y-78900087D01*
X106750500Y-78915578D01*
X106750500Y-79109320D01*
X106754622Y-79122005D01*
X106758743Y-79125000D01*
X107012220Y-79125000D01*
X107024905Y-79120878D01*
X107027900Y-79116757D01*
X107027900Y-79090534D01*
X107026952Y-79080912D01*
X107015297Y-79022317D01*
X107007978Y-79004649D01*
X106958140Y-78930060D01*
X106960250Y-78928650D01*
X106938924Y-78886795D01*
X106939439Y-78861251D01*
X106938276Y-78861136D01*
X106939701Y-78846666D01*
X106939701Y-78815180D01*
X106935579Y-78802495D01*
X106931458Y-78799500D01*
X106690681Y-78799500D01*
X106677996Y-78803622D01*
X106675702Y-78806778D01*
X106422271Y-78806778D01*
X106420879Y-78802495D01*
X106416758Y-78799500D01*
X106024000Y-78799500D01*
X105965809Y-78780593D01*
X105929845Y-78731093D01*
X105925000Y-78700500D01*
X105925000Y-78533820D01*
X106175000Y-78533820D01*
X106179122Y-78546505D01*
X106183243Y-78549500D01*
X106409321Y-78549500D01*
X106422006Y-78545378D01*
X106425001Y-78541257D01*
X106425001Y-78287780D01*
X106420879Y-78275095D01*
X106416758Y-78272100D01*
X106390535Y-78272100D01*
X106380913Y-78273048D01*
X106319315Y-78285300D01*
X106280688Y-78285300D01*
X106219090Y-78273048D01*
X106209466Y-78272100D01*
X106190680Y-78272100D01*
X106177995Y-78276222D01*
X106175000Y-78280343D01*
X106175000Y-78533820D01*
X105925000Y-78533820D01*
X105925000Y-78287780D01*
X105920878Y-78275095D01*
X105916757Y-78272100D01*
X105890534Y-78272100D01*
X105880912Y-78273048D01*
X105822317Y-78284703D01*
X105804647Y-78292022D01*
X105782667Y-78306709D01*
X105717962Y-78322917D01*
X105714213Y-78322548D01*
X105709448Y-78321600D01*
X105390552Y-78321600D01*
X105364152Y-78326851D01*
X105341629Y-78331331D01*
X105341627Y-78331332D01*
X105332069Y-78333233D01*
X105331886Y-78333356D01*
X105276883Y-78337682D01*
X105272416Y-78336230D01*
X105267930Y-78333233D01*
X105209447Y-78321600D01*
X104890551Y-78321600D01*
X104832068Y-78333233D01*
X104823961Y-78338650D01*
X104817167Y-78341464D01*
X104779281Y-78349000D01*
X104633026Y-78349000D01*
X104624398Y-78348623D01*
X104621076Y-78348332D01*
X104585693Y-78345237D01*
X104577330Y-78347478D01*
X104577327Y-78347478D01*
X104548156Y-78355294D01*
X104539729Y-78357163D01*
X104501455Y-78363912D01*
X104493952Y-78368243D01*
X104485818Y-78371204D01*
X104485628Y-78370682D01*
X104476280Y-78374553D01*
X104474851Y-78374936D01*
X104413750Y-78371738D01*
X104366197Y-78333236D01*
X104351344Y-78275486D01*
X104350500Y-78275486D01*
X104350500Y-78075834D01*
X104369407Y-78017643D01*
X104379496Y-78005830D01*
X104417057Y-77968269D01*
X104423425Y-77962434D01*
X104444202Y-77945000D01*
X104453194Y-77937455D01*
X104472629Y-77903792D01*
X104477268Y-77896511D01*
X104482373Y-77889220D01*
X104499554Y-77864684D01*
X104501796Y-77856316D01*
X104504262Y-77851029D01*
X104506258Y-77845544D01*
X104510588Y-77838045D01*
X104517334Y-77799783D01*
X104519204Y-77791349D01*
X104527022Y-77762174D01*
X104529264Y-77753807D01*
X104525877Y-77715091D01*
X104525500Y-77706463D01*
X104525500Y-77113500D01*
X104544407Y-77055309D01*
X104593907Y-77019345D01*
X104624500Y-77014500D01*
X105889166Y-77014500D01*
X105947357Y-77033407D01*
G37*
G04 #@! TD.AperFunction*
G04 #@! TA.AperFunction,Conductor*
G36*
X107681910Y-71661958D02*
G01*
X107724241Y-71694439D01*
X107865698Y-71753033D01*
X108017500Y-71773018D01*
X108023934Y-71772171D01*
X108140592Y-71756813D01*
X108200753Y-71767963D01*
X108223518Y-71784962D01*
X109328620Y-72890064D01*
X109356397Y-72944581D01*
X109357616Y-72960068D01*
X109357616Y-73810700D01*
X109338709Y-73868891D01*
X109289209Y-73904855D01*
X109258616Y-73909700D01*
X109170868Y-73909700D01*
X109149502Y-73913950D01*
X109121950Y-73919430D01*
X109121948Y-73919431D01*
X109112385Y-73921333D01*
X109046064Y-73965648D01*
X109001749Y-74031969D01*
X108999847Y-74041532D01*
X108999846Y-74041534D01*
X108995337Y-74064205D01*
X108990116Y-74090452D01*
X108990116Y-74191535D01*
X108971209Y-74249726D01*
X108921709Y-74285690D01*
X108860523Y-74285690D01*
X108811023Y-74249726D01*
X108800178Y-74229794D01*
X108798891Y-74222882D01*
X108781436Y-74194565D01*
X108776770Y-74186095D01*
X108766167Y-74164405D01*
X108766166Y-74164404D01*
X108762153Y-74156194D01*
X108755456Y-74149981D01*
X108752633Y-74146180D01*
X108749442Y-74142661D01*
X108744646Y-74134881D01*
X108718157Y-74114738D01*
X108710754Y-74108515D01*
X108693065Y-74092106D01*
X108686363Y-74085889D01*
X108677873Y-74082502D01*
X108675151Y-74080781D01*
X108658049Y-74067105D01*
X108613462Y-74022518D01*
X108585685Y-73968001D01*
X108585313Y-73939592D01*
X108600671Y-73822934D01*
X108601518Y-73816500D01*
X108581533Y-73664698D01*
X108575196Y-73649398D01*
X108561636Y-73616662D01*
X108522939Y-73523241D01*
X108429731Y-73401769D01*
X108308259Y-73308561D01*
X108200418Y-73263891D01*
X108172799Y-73252451D01*
X108166802Y-73249967D01*
X108015000Y-73229982D01*
X108008566Y-73230829D01*
X107891907Y-73246187D01*
X107831746Y-73235037D01*
X107808981Y-73218037D01*
X107444496Y-72853551D01*
X107416719Y-72799035D01*
X107415500Y-72783548D01*
X107415500Y-72244252D01*
X107403867Y-72185769D01*
X107359552Y-72119448D01*
X107330448Y-72100001D01*
X107302483Y-72081315D01*
X107264604Y-72033265D01*
X107262202Y-71972127D01*
X107296195Y-71921253D01*
X107302483Y-71916685D01*
X107351442Y-71883971D01*
X107359552Y-71878552D01*
X107403867Y-71812231D01*
X107415500Y-71753748D01*
X107415500Y-71740500D01*
X107434407Y-71682309D01*
X107483907Y-71646345D01*
X107514500Y-71641500D01*
X107621644Y-71641500D01*
X107681910Y-71661958D01*
G37*
G04 #@! TD.AperFunction*
G04 #@! TD*
M02*
