M48
; DRILL file {KiCad (6.0.11)} date Fri May  5 12:53:33 2023
; FORMAT={-:-/ absolute / inch / decimal}
; #@! TF.CreationDate,2023-05-05T12:53:33-03:00
; #@! TF.GenerationSoftware,Kicad,Pcbnew,(6.0.11)
; #@! TF.FileFunction,Plated,1,2,PTH
FMAT,2
INCH
; #@! TA.AperFunction,Plated,PTH,ViaDrill
T1C0.0157
; #@! TA.AperFunction,Plated,PTH,ComponentDrill
T2C0.0236
%
G90
G05
T1
X3.9921Y-3.0748
X4.0509Y-3.2023
X4.1496Y-3.3386
X4.1622Y-3.7119
X4.1654Y-3.1307
X4.1673Y-3.0638
X4.2001Y-3.2019
X4.2087Y-3.4988
X4.2205Y-3.0614
X4.2386Y-3.1713
X4.2526Y-2.9062
X4.2527Y-2.8026
X4.2849Y-2.8824
X4.2913Y-3.6445
X4.3386Y-3.063
X4.339Y-2.9972
X4.3398Y-3.1496
X4.3398Y-3.252
X4.3788Y-3.604
X4.4055Y-2.878
X4.4083Y-2.798
X4.4177Y-3.072
X4.4177Y-3.135
X4.4268Y-3.2531
X4.4709Y-3.4256
X4.4846Y-2.9894
X4.4846Y-3.139
X4.4847Y-3.072
X4.5035Y-3.4783
X4.5138Y-3.2531
X4.5705Y-2.8012
X4.5929Y-3.078
X4.5929Y-3.1654
X4.5961Y-3.2531
X4.6319Y-3.626
X4.6331Y-2.8898
X4.6413Y-3.3681
X4.6417Y-3.4382
X4.6618Y-3.702
X4.674Y-3.5173
X4.6768Y-2.8535
X4.6768Y-2.8945
X4.6819Y-3.2531
X4.6858Y-3.1067
X4.6858Y-3.1713
X4.6882Y-3.0429
X4.7235Y-3.4895
X4.7642Y-3.698
X4.7878Y-3.6075
X4.8303Y-3.4252
X4.8744Y-3.6193
X4.8843Y-3.4787
T2
G00X4.0086Y-3.3748
M15
G01X3.981Y-3.3748
M16
G05
G00X4.0086Y-3.6858
M15
G01X3.981Y-3.6858
M16
G05
T0
M30
